{
.appVersion = "1268";
DisplayStrings = (
abdghijklmnopqruvy,
"HHIHHEHHFHH\012HHLHHPHHTHH\012HHUHHDHHNHH \012HHAHHZHHJHH\012HHBHHOHoHHOOHH\012Bnita\012Honduras Oman Belgium India Ekvador France\012Lima Panama Turkey Ukraine\012Denmark Norway Andora Zambia"
);
customParameters = (
{
name = glyphOrder;
value = (
.notdef,
NULL,
CR,
space,
nbspace,
enspace,
emspace,
thinspace,
A,
B,
C,
D,
E,
F,
G,
H,
I,
J,
K,
L,
M,
N,
O,
P,
Q,
R,
S,
T,
U,
V,
W,
X,
Y,
Z,
a,
b,
c,
d,
e,
f,
g,
h,
i,
j,
k,
l,
m,
n,
o,
p,
q,
r,
s,
t,
u,
v,
w,
x,
y,
z,
quotesingle,
quotedbl,
numbersign,
ampersand,
asterisk,
comma,
hyphen,
softhyphen,
period,
colon,
semicolon,
question,
exclam,
questiondown,
exclamdown,
at,
parenleft,
parenright,
bracketleft,
bracketright,
braceleft,
braceright,
backslash,
slash,
brokenbar,
bar,
asciicircum,
underscore,
asciitilde,
section,
copyright,
registered,
trademark,
ordfeminine,
ordmasculine,
guilsinglleft,
guilsinglright,
guillemetleft,
guillemetright,
quoteleft,
quoteright,
quotesinglbase,
quotedblleft,
quotedblright,
quotedblbase,
dagger,
daggerdbl,
ellipsis,
paragraph,
periodcentered,
endash,
emdash,
circumflex,
caron,
macron,
firsttonechinese,
breve,
dieresis,
acute,
grave,
cedilla,
dotaccent,
ring,
ogonek,
tilde,
hungarumlaut,
circumflexcomb,
circumflexcomb.case,
circumflexcomb.narrow,
caroncomb,
caroncomb.case,
caroncomb.calt,
macroncomb,
macroncomb.case,
macroncomb.narrow,
brevecomb,
brevecomb.case,
brevecomb.narrow,
dieresiscomb,
dieresiscomb.case,
acutecomb,
acutecomb.case,
gravecomb,
gravecomb.case,
cedillacomb,
dotaccentcomb,
dotaccentcomb.case,
ringcomb,
ringcomb.case,
ringcomb.case.low,
ogonekcomb,
tildecomb,
tildecomb.case,
tildecomb.narrow,
hungarumlautcomb,
hungarumlautcomb.case,
commaaccentcomb,
commaaccentturnedabovecomb,
apostrophemodifier,
Agrave,
Aacute,
Acircumflex,
Atilde,
Amacron,
Abreve,
Adieresis,
Aring,
Aogonek,
AE,
AEacute,
Cacute,
Ccircumflex,
Cdotaccent,
Ccaron,
Ccedilla,
Dcaron,
Dcroat,
Egrave,
Eacute,
Ecircumflex,
Emacron,
Ebreve,

glyphs = (
{
glyphname = .notdef;
lastChange = "2016-03-11 11:43:14 +0000";
layers = (
{
layerId = "DAAEA780-4710-4479-B303-5C05B40621B2";
paths = (
{
closed = 1;
nodes = (
"160 141 LINE",
"285 256 LINE",
"160 379 LINE",
"201 421 LINE",
"322 293 LINE",
"441 421 LINE",
"485 379 LINE",
"358 257 LINE",
"485 133 LINE",
"444 92 LINE",
"321 220 LINE",
"203 92 LINE"
);
},
{
closed = 1;
nodes = (
"64 0 LINE",
"579 0 LINE",
"579 515 LINE",
"64 515 LINE"
);
}
);
width = 644;
},
{
layerId = "925CB40E-795E-477B-BAE7-1EE7D58841B5";
paths = (
{
closed = 1;
nodes = (
"160 141 LINE",
"285 256 LINE",
"160 379 LINE",
"201 421 LINE",
"322 293 LINE",
"441 421 LINE",
"485 379 LINE",
"358 257 LINE",
"485 133 LINE",
"444 92 LINE",
"321 220 LINE",
"203 92 LINE"
);
},
{
closed = 1;
nodes = (
"64 0 LINE",
"579 0 LINE",
"579 515 LINE",
"64 515 LINE"
);
}
);
width = 644;
}
);
userData = {
com.typemytype.robofont.layerData = {
background = {
anchors = (
);
components = (
);
contours = (
{
points = (
{
segmentType = line;
smooth = 0;
x = 440;
y = 387;
},
{
segmentType = line;
smooth = 0;
x = 783;
y = 705;
},
{
segmentType = line;
smooth = 0;
x = 439;
y = 1043;
},
{
segmentType = line;
smooth = 0;
x = 553;
y = 1159;
},
{
segmentType = line;
smooth = 0;
x = 886;
y = 807;
},
{
segmentType = line;
smooth = 0;
x = 1214;
y = 1158;
},
{
segmentType = line;
smooth = 0;
x = 1333;
y = 1042;
},
{
segmentType = line;
smooth = 0;
x = 985;
y = 708;
},
{
segmentType = line;
smooth = 0;
x = 1333;
y = 365;
},
{
segmentType = line;
smooth = 0;
x = 1220;
y = 252;
},
{
segmentType = line;
smooth = 0;
x = 883;
y = 605;
},
{
segmentType = line;
smooth = 0;
x = 559;
y = 252;
}
);
},
{
points = (
{
segmentType = line;
smooth = 0;
x = 177;
y = 0;
},
{
segmentType = line;
smooth = 0;
x = 1593;
y = 0;
},
{
segmentType = line;
smooth = 0;
x = 1593;
y = 1416;
},
{
segmentType = line;
smooth = 0;
x = 177;
y = 1416;
}
);
}
);
lib = {
};
name = .notdef;
unicodes = (
);
width = 1770;
};
};
};
},
{
color = 8;
glyphname = A;
lastChange = "2020-03-11 19:27:33 +0000";
layers = (
{
anchors = (
{
name = btm;
position = "{234, 0}";
},
{
name = top;
position = "{315, 568}";
}
);
background = {
anchors = (
{
name = btm;
position = "{234, 0}";
},
{
name = top;
position = "{315, 568}";
}
);
paths = (
{
closed = 1;
nodes = (
"112 176 LINE",
"389 176 LINE",
"378 214 LINE",
"128 214 LINE"
);
},
{
closed = 1;
nodes = (
"337 570 LINE",
"276 570 LINE",
"38 62 LINE SMOOTH",
"33 51 OFFCURVE",
"25 45 OFFCURVE",
"13 42 CURVE SMOOTH",
"-31 32 LINE",
"-35 0 LINE",
"146 0 LINE",
"150 32 LINE",
"80 46 LINE",
"307 543 LINE",
"281 543 LINE",
"399 46 LINE",
"324 32 LINE",
"320 0 LINE",
"516 0 LINE",
"520 32 LINE",
"480 42 LINE SMOOTH",
"470 45 OFFCURVE",
"464 51 OFFCURVE",
"461 62 CURVE SMOOTH"
);
}
);
};
layerId = "DAAEA780-4710-4479-B303-5C05B40621B2";
paths = (
{
closed = 1;
nodes = (
"122 176 LINE",
"389 176 LINE",
"379 214 LINE",
"139 214 LINE"
);
},
{
closed = 1;
nodes = (
"336 570 LINE",
"275 570 LINE",
"55 62 LINE SMOOTH",
"50 51 OFFCURVE",
"41 45 OFFCURVE",
"30 42 CURVE SMOOTH",
"-10 32 LINE",
"-14 0 LINE",
"162 0 LINE",
"166 32 LINE",
"98 46 LINE",
"307 543 LINE",
"281 543 LINE",
"383 46 LINE",
"312 32 LINE",
"308 0 LINE",
"497 0 LINE",
"501 32 LINE",
"463 42 LINE SMOOTH",
"455 44 OFFCURVE",
"446 52 OFFCURVE",
"444 62 CURVE SMOOTH"
);
}
);
width = 530;
},
{
anchors = (
{
name = btm;
position = "{211, 0}";
},
{
name = top;
position = "{336, 568}";
}
);
background = {
anchors = (
{
name = btm;
position = "{211, 0}";
},
{
name = top;
position = "{336, 568}";
}
);
paths = (
{
closed = 1;
nodes = (
"123 166 LINE",
"389 166 LINE",
"376 228 LINE",
"148 228 LINE"
);
},
{
closed = 1;
nodes = (
"397 570 LINE",
"268 570 LINE",
"42 82 LINE SMOOTH",
"37 72 OFFCURVE",
"31 66 OFFCURVE",
"21 64 CURVE SMOOTH",
"-30 52 LINE",
"-36 0 LINE",
"176 0 LINE",
"182 52 LINE",
"115 64 LINE",
"308 517 LINE",
"277 517 LINE",
"363 64 LINE",
"291 52 LINE",
"285 0 LINE",
"558 0 LINE",
"564 52 LINE",
"521 64 LINE SMOOTH",
"511 67 OFFCURVE",
"505 72 OFFCURVE",
"503 82 CURVE SMOOTH"
);
}
);
};
layerId = "925CB40E-795E-477B-BAE7-1EE7D58841B5";
paths = (
{
closed = 1;
nodes = (
"129 166 LINE",
"385 166 LINE",
"371 228 LINE",
"152 228 LINE"
);
},
{
closed = 1;
nodes = (
"395 570 LINE",
"267 570 LINE",
"52 81 LINE SMOOTH",
"48 72 OFFCURVE",
"39 66 OFFCURVE",
"31 64 CURVE SMOOTH",
"-15 52 LINE",
"-21 0 LINE",
"183 0 LINE",
"189 52 LINE",
"125 64 LINE",
"312 521 LINE",
"275 521 LINE",
"354 64 LINE",
"287 52 LINE",
"281 0 LINE",
"541 0 LINE",
"547 52 LINE",
"506 64 LINE SMOOTH",
"492 68 OFFCURVE",
"489 75 OFFCURVE",
"488 82 CURVE SMOOTH"
);
}
);
width = 567;
}
);
leftKerningGroup = A;
rightKerningGroup = A;
unicode = 0041;
userData = {
com.typemytype.robofont.layerData = {
background = {
anchors = (
{
name = btm;
x = 757;
y = -170;
},
{
name = top;
x = 786;
y = 1700;
}
);
components = (
);
contours = (
{
points = (
{
segmentType = line;
smooth = 0;
x = 60;
y = 0;
},
{
segmentType = line;
smooth = 0;
x = 521;
y = 0;
},
{
segmentType = line;
smooth = 0;
x = 521;
y = 88;
},
{
segmentType = line;
smooth = 0;
x = 317;
y = 111;
},
{
segmentType = line;
smooth = 0;
x = 325;
y = 64;
},
{
segmentType = line;
smooth = 0;
x = 707;
y = 1214;
},
{
segmentType = line;
smooth = 0;
x = 763;
y = 1415;
},
{
segmentType = line;
smooth = 0;
x = 820;
y = 1220;
},
{
segmentType = line;
smooth = 0;
x = 1209;
y = 68;
},
{
segmentType = line;
smooth = 0;
x = 1226;
y = 111;
},
{
segmentType = line;
smooth = 0;
x = 1015;
y = 88;
},
{
segmentType = line;
smooth = 0;
x = 1015;
y = 0;
},
{
segmentType = line;
smooth = 0;
x = 1515;
y = 0;
},
{
segmentType = line;
smooth = 0;
x = 1515;
y = 88;
},
{
segmentType = line;
smooth = 0;
x = 1354;
y = 111;
},
{
segmentType = line;
smooth = 0;
x = 1397;
y = 62;
},
{
segmentType = line;
smooth = 0;
x = 870;
y = 1537;
},
{
segmentType = line;
smooth = 0;
x = 702;
y = 1537;
},
{
segmentType = line;
smooth = 0;
x = 178;
y = 68;
},
{
segmentType = line;
smooth = 0;
x = 221;
y = 112;
},
{
segmentType = line;
smooth = 0;
x = 60;
y = 88;
}
);
},
{
points = (
{
segmentType = line;
smooth = 0;
x = 384;
y = 433;
},
{
segmentType = line;
smooth = 0;
x = 1126;
y = 433;
},
{
segmentType = line;
smooth = 0;
x = 1084;
y = 539;
},
{
segmentType = line;
smooth = 0;
x = 418;
y = 539;
}
);
}
);
lib = {
};
name = A;
unicodes = (
);
width = 1486;
};
};
};
},
{
color = 8;
glyphname = B;
lastChange = "2020-03-12 14:17:12 +0000";
layers = (
{
anchors = (
{
name = btm;
position = "{255, 0}";
},
{
name = top;
position = "{326, 568}";
}
);
background = {
anchors = (
{
name = btm;
position = "{255, 0}";
},
{
name = top;
position = "{326, 568}";
}
);
paths = (
{
closed = 1;
nodes = (
"476 441 CURVE SMOOTH",
"486 527 OFFCURVE",
"439 574 OFFCURVE",
"310 574 CURVE SMOOTH",
"269 574 OFFCURVE",
"235 568 OFFCURVE",
"190 568 CURVE SMOOTH",
"81 568 LINE",
"77 536 LINE",
"137 524 LINE SMOOTH",
"147 522 OFFCURVE",
"152 513 OFFCURVE",
"151 503 CURVE SMOOTH",
"97 64 LINE SMOOTH",
"96 53 OFFCURVE",
"88 45 OFFCURVE",
"77 43 CURVE SMOOTH",
"15 32 LINE",
"11 0 LINE",
"117 0 LINE SMOOTH",
"174 0 OFFCURVE",
"199 -4 OFFCURVE",
"235 -4 CURVE SMOOTH",
"408 -4 OFFCURVE",
"471 71 OFFCURVE",
"483 167 CURVE SMOOTH",
"494 255 OFFCURVE",
"437 311 OFFCURVE",
"333 301 CURVE",
"332 297 LINE",
"418 307 OFFCURVE",
"467 367 OFFCURVE"
);
},
{
closed = 1;
nodes = (
"163 274 LINE",
"200 275 OFFCURVE",
"263 276 OFFCURVE",
"291 276 CURVE SMOOTH",
"387 276 OFFCURVE",
"425 241 OFFCURVE",
"414 156 CURVE SMOOTH",
"403 71 OFFCURVE",
"354 31 OFFCURVE",
"239 31 CURVE SMOOTH",
"213 31 OFFCURVE",
"176 34 OFFCURVE",
"155 37 CURVE",
"216 535 LINE",
"231 535 OFFCURVE",
"258 540 OFFCURVE",
"294 540 CURVE SMOOTH",
"393 540 OFFCURVE",
"423 504 OFFCURVE",
"414 432 CURVE SMOOTH",
"404 351 OFFCURVE",
"357 314 OFFCURVE",
"281 314 CURVE SMOOTH",
"261 314 OFFCURVE",
"205 313 OFFCURVE",
"168 315 CURVE"
);
}
);
};
hints = (
{
origin = "{0, 9}";
type = Corner;
name = _corner.RightSerif;
},
{
origin = "{0, 10}";
type = Corner;
name = _corner.LeftSerif;
}
);
layerId = "DAAEA780-4710-4479-B303-5C05B40621B2";
paths = (
{
closed = 1;
nodes = (
"400 306 OFFCURVE",
"451 380 OFFCURVE",
"451 453 CURVE SMOOTH",
"451 527 OFFCURVE",
"404 572 OFFCURVE",
"299 572 CURVE SMOOTH",
"269 572 OFFCURVE",
"220 568 OFFCURVE",
"190 568 CURVE SMOOTH",
"159 568 LINE",
"89 0 LINE",
"117 0 LINE SMOOTH",
"151 0 OFFCURVE",
"199 -4 OFFCURVE",
"235 -4 CURVE SMOOTH",
"379 -4 OFFCURVE",
"458 73 OFFCURVE",
"458 172 CURVE SMOOTH",
"458 252 OFFCURVE",
"393 307 OFFCURVE",
"312 302 CURVE",
"312 297 LINE"
);
},
{
closed = 1;
nodes = (
"162 274 LINE",
"191 275 OFFCURVE",
"227 276 OFFCURVE",
"254 276 CURVE SMOOTH",
"341 276 OFFCURVE",
"389 237 OFFCURVE",
"389 166 CURVE SMOOTH",
"389 84 OFFCURVE",
"339 31 OFFCURVE",
"243 31 CURVE SMOOTH",
"212 31 OFFCURVE",
"175 34 OFFCURVE",
"155 37 CURVE",
"217 535 LINE",
"234 536 OFFCURVE",
"263 538 OFFCURVE",
"282 538 CURVE SMOOTH",
"354 538 OFFCURVE",
"385 509 OFFCURVE",
"385 443 CURVE SMOOTH",
"385 370 OFFCURVE",
"342 314 OFFCURVE",
"244 314 CURVE SMOOTH",
"219 314 OFFCURVE",
"180 316 OFFCURVE",
"167 317 CURVE"
);
}
);
width = 492;
},
{
anchors = (
{
name = btm;
position = "{273, 0}";
},
{
name = top;
position = "{344, 568}";
}
);
background = {
anchors = (
{
name = btm;
position = "{273, 0}";
},
{
name = top;
position = "{344, 568}";
}
);
paths = (
{
closed = 1;
nodes = (
"537 439 CURVE SMOOTH",
"548 527 OFFCURVE",
"510 572 OFFCURVE",
"350 572 CURVE SMOOTH",
"299 572 OFFCURVE",
"263 568 OFFCURVE",
"216 568 CURVE SMOOTH",
"74 568 LINE",
"67 513 LINE",
"125 501 LINE SMOOTH",
"134 499 OFFCURVE",
"139 493 OFFCURVE",
"138 484 CURVE SMOOTH",
"88 81 LINE SMOOTH",
"87 72 OFFCURVE",
"80 65 OFFCURVE",
"71 63 CURVE SMOOTH",
"11 52 LINE",
"4 0 LINE",
"148 0 LINE SMOOTH",
"195 0 OFFCURVE",
"223 -4 OFFCURVE",
"277 -4 CURVE SMOOTH",
"465 -4 OFFCURVE",
"530 69 OFFCURVE",
"542 168 CURVE SMOOTH",
"554 266 OFFCURVE",
"480 310 OFFCURVE",
"380 303 CURVE",
"380 297 LINE",
"463 301 OFFCURVE",
"526 349 OFFCURVE"
);
},
{
closed = 1;
nodes = (
"223 260 LINE",
"254 261 OFFCURVE",
"285 263 OFFCURVE",
"308 263 CURVE SMOOTH",
"369 263 OFFCURVE",
"398 238 OFFCURVE",
"389 164 CURVE SMOOTH",
"380 91 OFFCURVE",
"347 49 OFFCURVE",
"276 49 CURVE SMOOTH",
"257 49 OFFCURVE",
"235 51 OFFCURVE",
"222 54 CURVE",
"279 518 LINE",
"288 520 OFFCURVE",
"319 521 OFFCURVE",
"327 521 CURVE SMOOTH",
"384 521 OFFCURVE",
"408 494 OFFCURVE",
"400 427 CURVE SMOOTH",
"392 359 OFFCURVE",
"364 321 OFFCURVE",
"310 321 CURVE SMOOTH",
"291 321 OFFCURVE",
"262 321 OFFCURVE",
"231 323 CURVE"
);
}
);
};
hints = (
{
origin = "{0, 10}";
type = Corner;
name = _corner.LeftSerif;
},
{
origin = "{0, 9}";
type = Corner;
name = _corner.RightSerif;
}
);
layerId = "925CB40E-795E-477B-BAE7-1EE7D58841B5";
paths = (
{
closed = 1;
nodes = (
"461 303 OFFCURVE",
"517 378 OFFCURVE",
"517 447 CURVE SMOOTH",
"517 521 OFFCURVE",
"471 572 OFFCURVE",
"344 572 CURVE SMOOTH",
"308 572 OFFCURVE",
"260 568 OFFCURVE",
"217 568 CURVE SMOOTH",
"149 568 LINE",
"79 0 LINE",
"148 0 LINE SMOOTH",
"192 0 OFFCURVE",
"231 -4 OFFCURVE",
"272 -4 CURVE SMOOTH",
"455 -4 OFFCURVE",
"521 81 OFFCURVE",
"521 172 CURVE SMOOTH",
"521 252 OFFCURVE",
"459 310 OFFCURVE",
"366 305 CURVE",
"365 299 LINE"
);
},
{
closed = 1;
nodes = (
"223 260 LINE",
"225 260 OFFCURVE",
"276 263 OFFCURVE",
"294 263 CURVE SMOOTH",
"353 263 OFFCURVE",
"374 234 OFFCURVE",
"374 176 CURVE SMOOTH",
"374 99 OFFCURVE",
"336 49 OFFCURVE",
"282 49 CURVE SMOOTH",
"256 49 OFFCURVE",
"233 51 OFFCURVE",
"221 54 CURVE",
"279 518 LINE",
"289 520 OFFCURVE",
"303 521 OFFCURVE",
"315 521 CURVE SMOOTH",
"363 521 OFFCURVE",
"382 499 OFFCURVE",
"382 445 CURVE SMOOTH",
"382 373 OFFCURVE",
"348 321 OFFCURVE",
"297 321 CURVE SMOOTH",
"280 321 OFFCURVE",
"256 321 OFFCURVE",
"230 323 CURVE"
);
}
);
width = 547;
}
);
leftKerningGroup = H;
leftMetricsKey = H;
unicode = 0042;
userData = {
com.typemytype.robofont.layerData = {
background = {
anchors = (
{
name = btm;
x = 737;
y = -170;
},
{
name = top;
x = 737;
y = 1700;
}
);
components = (
);
contours = (
{
points = (
{
segmentType = line;
smooth = 0;
x = 103;
y = 0;
},
{
segmentType = line;
smooth = 0;
x = 355;
y = 0;
},
{
smooth = 0;
x = 511;
y = 0;
},
{
smooth = 0;
x = 580;
y = -12;
},
{
segmentType = curve;
smooth = 1;
x = 679;
y = -12;
},
{
smooth = 0;
x = 1154;
y = -12;
},
{
smooth = 0;
x = 1296;
y = 215;
},
{
segmentType = curve;
smooth = 1;
x = 1296;
y = 455;
},
{
smooth = 0;
x = 1296;
y = 671;
},
{
smooth = 0;
x = 1144;
y = 820;
},
{
segmentType = curve;
smooth = 0;
x = 885;
y = 810;
},
{
smooth = 0;
x = 1084;
y = 850;
},
{
smooth = 0;
x = 1187;
y = 1009;
},
{
segmentType = curve;
smooth = 1;
x = 1187;
y = 1194;
},
{
smooth = 0;
x = 1187;
y = 1410;
},
{
smooth = 0;
x = 1048;
y = 1538;
},
{
segmentType = curve;
smooth = 1;
x = 681;
y = 1538;
},
{
smooth = 0;
x = 580;
y = 1538;
},
{
smooth = 0;
x = 485;
y = 1522;
},
{
segmentType = curve;
smooth = 0;
x = 363;
y = 1522;
},
{
segmentType = line;
smooth = 0;
x = 107;
y = 1522;
},
{
segmentType = line;
smooth = 0;
x = 107;
y = 1434;
},
{
segmentType = line;
smooth = 0;
x = 299;
y = 1409;
},
{
segmentType = line;
smooth = 0;
x = 278;
y = 1450;
},
{
segmentType = line;
smooth = 0;
x = 278;
y = 65;
},
{
segmentType = line;
smooth = 0;
x = 317;
y = 111;
},
{
segmentType = line;
smooth = 0;
x = 103;
y = 88;
}
);
},
{
points = (
{
segmentType = line;
smooth = 0;
x = 447;
y = 736;
},
{
smooth = 0;
x = 508;
y = 739;
},
{
smooth = 0;
x = 666;
y = 738;
},
{
segmentType = curve;
smooth = 1;
x = 740;
y = 738;
},
{
smooth = 0;
x = 1004;
y = 738;
},
{
smooth = 0;
x = 1113;
y = 642;
},
{
segmentType = curve;
smooth = 1;
x = 1113;
y = 423;
},
{
smooth = 0;
x = 1113;
y = 216;
},
{
smooth = 0;
x = 996;
y = 85;
},
{
segmentType = curve;
smooth = 1;
x = 678;
y = 85;
},
{
smooth = 0;
x = 608;
y = 85;
},
{
smooth = 0;
x = 499;
y = 87;
},
{
segmentType = curve;
smooth = 0;
x = 447;
y = 103;
}
);
},
{
points = (
{
segmentType = line;
smooth = 0;
x = 447;
y = 1431;
},
{
smooth = 0;
x = 487;
y = 1432;
},
{
smooth = 0;
x = 560;
y = 1444;
},
{
segmentType = curve;
smooth = 1;
x = 660;
y = 1444;
},
{
smooth = 0;
x = 931;
y = 1444;
},
{
smooth = 0;
x = 1018;
y = 1346;
},
{
segmentType = curve;
smooth = 1;
x = 1018;
y = 1156;
},
{
smooth = 0;
x = 1018;
y = 955;
},
{
smooth = 0;
x = 906;
y = 843;
},
{
segmentType = curve;
smooth = 1;
x = 699;
y = 843;
},
{
smooth = 0;
x = 645;
y = 843;
},
{
smooth = 0;
x = 509;
y = 842;
},
{
segmentType = curve;
smooth = 0;
x = 447;
y = 846;
}
);
}
);
lib = {
};
name = B;
unicodes = (
);
width = 1437;
};
};
};
},
{
color = 4;
glyphname = C;
lastChange = "2020-03-11 20:15:55 +0000";
layers = (
{
anchors = (
{
name = btm;
position = "{295, 0}";
},
{
name = top;
position = "{369, 568}";
}
);
background = {
anchors = (
{
name = btm;
position = "{295, 0}";
},
{
name = top;
position = "{369, 568}";
}
);
paths = (
{
closed = 1;
nodes = (
"272 -9 CURVE SMOOTH",
"329 -9 OFFCURVE",
"389 2 OFFCURVE",
"432 19 CURVE",
"443 58 OFFCURVE",
"453 104 OFFCURVE",
"457 142 CURVE",
"421 146 LINE",
"387 74 LINE SMOOTH",
"382 63 OFFCURVE",
"376 56 OFFCURVE",
"365 49 CURVE SMOOTH",
"341 34 OFFCURVE",
"304 27 OFFCURVE",
"269 27 CURVE SMOOTH",
"139 27 OFFCURVE",
"101 139 OFFCURVE",
"120 288 CURVE SMOOTH",
"141 463 OFFCURVE",
"220 540 OFFCURVE",
"330 540 CURVE SMOOTH",
"370 540 OFFCURVE",
"408 530 OFFCURVE",
"424 520 CURVE SMOOTH",
"433 514 OFFCURVE",
"438 508 OFFCURVE",
"439 496 CURVE SMOOTH",
"446 419 LINE",
"482 419 LINE",
"493 462 OFFCURVE",
"502 510 OFFCURVE",
"506 550 CURVE",
"459 569 OFFCURVE",
"399 576 OFFCURVE",
"356 576 CURVE SMOOTH",
"190 576 OFFCURVE",
"72 473 OFFCURVE",
"48 275 CURVE SMOOTH",
"26 99 OFFCURVE",
"96 -9 OFFCURVE"
);
}
);
};
layerId = "DAAEA780-4710-4479-B303-5C05B40621B2";
paths = (
{
closed = 1;
nodes = (
"47 90 OFFCURVE",
"116 -9 OFFCURVE",
"269 -9 CURVE SMOOTH",
"318 -9 OFFCURVE",
"375 1 OFFCURVE",
"419 20 CURVE",
"426 58 OFFCURVE",
"432 110 OFFCURVE",
"432 150 CURVE",
"397 152 LINE",
"373 84 LINE SMOOTH",
"366 64 OFFCURVE",
"363 54 OFFCURVE",
"344 44 CURVE SMOOTH",
"325 34 OFFCURVE",
"298 29 OFFCURVE",
"273 29 CURVE SMOOTH",
"164 29 OFFCURVE",
"117 114 OFFCURVE",
"117 232 CURVE SMOOTH",
"117 393 OFFCURVE",
"202 538 OFFCURVE",
"325 538 CURVE SMOOTH",
"349 538 OFFCURVE",
"375 533 OFFCURVE",
"392 523 CURVE SMOOTH",
"413 511 OFFCURVE",
"411 498 OFFCURVE",
"412 480 CURVE SMOOTH",
"416 414 LINE",
"452 414 LINE",
"465 456 OFFCURVE",
"475 506 OFFCURVE",
"480 546 CURVE",
"438 564 OFFCURVE",
"388 576 OFFCURVE",
"336 576 CURVE SMOOTH",
"158 576 OFFCURVE",
"47 422 OFFCURVE",
"47 234 CURVE SMOOTH"
);
}
);
width = 492;
},
{
anchors = (
{
name = btm;
position = "{282, 0}";
},
{
name = top;
position = "{370, 568}";
}
);
background = {
anchors = (
{
name = btm;
position = "{253, 0}";
},
{
name = top;
position = "{340, 568}";
}
);
paths = (
{
closed = 1;
nodes = (
"258 -13 CURVE SMOOTH",
"323 -13 OFFCURVE",
"400 1 OFFCURVE",
"455 19 CURVE",
"469 73 OFFCURVE",
"477 126 OFFCURVE",
"479 171 CURVE",
"400 177 LINE",
"365 93 LINE SMOOTH",
"358 78 OFFCURVE",
"352 71 OFFCURVE",
"345 65 CURVE SMOOTH",
"327 50 OFFCURVE",
"303 43 OFFCURVE",
"279 43 CURVE SMOOTH",
"196 43 OFFCURVE",
"170 127 OFFCURVE",
"189 286 CURVE SMOOTH",
"210 458 OFFCURVE",
"262 524 OFFCURVE",
"335 524 CURVE SMOOTH",
"358 524 OFFCURVE",
"379 517 OFFCURVE",
"391 508 CURVE SMOOTH",
"403 500 OFFCURVE",
"405 488 OFFCURVE",
"407 479 CURVE SMOOTH",
"416 384 LINE",
"497 384 LINE",
"515 445 OFFCURVE",
"524 500 OFFCURVE",
"526 548 CURVE",
"475 568 OFFCURVE",
"410 579 OFFCURVE",
"352 579 CURVE SMOOTH",
"182 579 OFFCURVE",
"59 483 OFFCURVE",
"33 272 CURVE SMOOTH",
"10 88 OFFCURVE",
"83 -13 OFFCURVE"
);
},
{
closed = 0;
nodes = (
"734.958 76.822 LINE",
"734.775 76.914 OFFCURVE",
"734.591 77.006 OFFCURVE",
"734.408 77.099 CURVE SMOOTH"
);
}
);
};
layerId = "925CB40E-795E-477B-BAE7-1EE7D58841B5";
paths = (
{
closed = 1;
nodes = (
"40 85 OFFCURVE",
"105 -13 OFFCURVE",
"279 -13 CURVE SMOOTH",
"330 -13 OFFCURVE",
"407 0 OFFCURVE",
"457 20 CURVE",
"469 70 OFFCURVE",
"472 133 OFFCURVE",
"471 177 CURVE",
"392 180 LINE",
"373 116 LINE SMOOTH",
"363 81 OFFCURVE",
"356 67 OFFCURVE",
"344 58 CURVE SMOOTH",
"330 48 OFFCURVE",
"313 44 OFFCURVE",
"292 44 CURVE SMOOTH",
"216 44 OFFCURVE",
"190 117 OFFCURVE",
"190 219 CURVE SMOOTH",
"190 368 OFFCURVE",
"244 524 OFFCURVE",
"341 524 CURVE SMOOTH",
"361 524 OFFCURVE",
"374 519 OFFCURVE",
"386 510 CURVE SMOOTH",
"401 498 OFFCURVE",
"404 486 OFFCURVE",
"406 445 CURVE SMOOTH",
"409 383 LINE",
"486 383 LINE",
"504 439 OFFCURVE",
"514 503 OFFCURVE",
"515 545 CURVE",
"467 566 OFFCURVE",
"403 579 OFFCURVE",
"346 579 CURVE SMOOTH",
"148 579 OFFCURVE",
"40 421 OFFCURVE",
"40 235 CURVE SMOOTH"
);
}
);
width = 518;
},
{
anchors = (
{
name = btm;
position = "{288, 0}";
},
{
name = top;
position = "{376, 568}";
}
);
associatedMasterId = "925CB40E-795E-477B-BAE7-1EE7D58841B5";
background = {
paths = (
{
closed = 1;
nodes = (
"293 -13 CURVE SMOOTH",
"359 -13 OFFCURVE",
"435 1 OFFCURVE",
"490 19 CURVE",
"504 73 OFFCURVE",
"511 122 OFFCURVE",
"515 171 CURVE",
"435 177 LINE",
"400 93 LINE SMOOTH",
"394 79 OFFCURVE",
"389 73 OFFCURVE",
"379 64 CURVE SMOOTH",
"364 51 OFFCURVE",
"338 43 OFFCURVE",
"314 43 CURVE SMOOTH",
"248 43 OFFCURVE",
"218 96 OFFCURVE",
"218 195 CURVE SMOOTH",
"218 390 OFFCURVE",
"280 524 OFFCURVE",
"371 524 CURVE SMOOTH",
"392 524 OFFCURVE",
"415 517 OFFCURVE",
"427 508 CURVE SMOOTH",
"438 500 OFFCURVE",
"441 488 OFFCURVE",
"442 479 CURVE SMOOTH",
"452 384 LINE",
"533 384 LINE",
"551 445 OFFCURVE",
"559 504 OFFCURVE",
"561 548 CURVE",
"511 568 OFFCURVE",
"446 579 OFFCURVE",
"388 579 CURVE SMOOTH",
"189 579 OFFCURVE",
"64 437 OFFCURVE",
"64 210 CURVE SMOOTH",
"64 65 OFFCURVE",
"139 -13 OFFCURVE"
);
}
);
};
layerId = "C03C7571-9931-4249-A57E-E08EEDA4262D";
name = "Feb 12 20, 16:46";
paths = (
{
closed = 1;
nodes = (
"44 82 OFFCURVE",
"115 -13 OFFCURVE",
"282 -13 CURVE SMOOTH",
"339 -13 OFFCURVE",
"411 -2 OFFCURVE",
"464 19 CURVE",
"478 73 OFFCURVE",
"476 122 OFFCURVE",
"480 171 CURVE",
"400 177 LINE",
"370 93 LINE SMOOTH",
"368 87 OFFCURVE",
"362 75 OFFCURVE",
"349 64 CURVE SMOOTH",
"335 52 OFFCURVE",
"313 44 OFFCURVE",
"286 44 CURVE SMOOTH",
"225 44 OFFCURVE",
"198 111 OFFCURVE",
"198 205 CURVE SMOOTH",
"198 366 OFFCURVE",
"252 524 OFFCURVE",
"340 524 CURVE SMOOTH",
"357 524 OFFCURVE",
"377 518 OFFCURVE",
"391 508 CURVE SMOOTH",
"405 498 OFFCURVE",
"407 488 OFFCURVE",
"407 479 CURVE SMOOTH",
"412 384 LINE",
"493 384 LINE",
"511 445 OFFCURVE",
"524 504 OFFCURVE",
"526 548 CURVE",
"487 564 OFFCURVE",
"405 579 OFFCURVE",
"343 579 CURVE SMOOTH",
"157 579 OFFCURVE",
"44 433 OFFCURVE",
"44 239 CURVE SMOOTH"
);
}
);
width = 531;
}
);
leftKerningGroup = O;
rightKerningGroup = C;
unicode = 0043;
userData = {
com.typemytype.robofont.layerData = {
background = {
anchors = (
{
name = btm;
x = 765;
y = -170;
},
{
name = top;
x = 784;
y = 1700;
}
);
components = (
);
contours = (
{
points = (
{
segmentType = curve;
smooth = 1;
x = 772;
y = -23;
},
{
smooth = 0;
x = 1017;
y = -23;
},
{
smooth = 0;
x = 1093;
y = 51;
},
{
segmentType = curve;
smooth = 0;
x = 1201;
y = 56;
},
{
segmentType = line;
smooth = 0;
x = 1251;
y = 329;
},
{
segmentType = line;
smooth = 0;
x = 1151;
y = 344;
},
{
segmentType = line;
smooth = 0;
x = 1069;
y = 151;
},
{
smooth = 0;
x = 1015;
y = 108;
},
{
smooth = 0;
x = 946;
y = 75;
},
{
segmentType = curve;
smooth = 1;
x = 776;
y = 75;
},
{
smooth = 0;
x = 426;
y = 75;
},
{
smooth = 0;
x = 267;
y = 416;
},
{
segmentType = curve;
smooth = 1;
x = 267;
y = 786;
},
{
smooth = 0;
x = 267;
y = 1207;
},
{
smooth = 0;
x = 484;
y = 1439;
},
{
segmentType = curve;
smooth = 1;
x = 762;
y = 1439;
},
{
smooth = 0;
x = 924;
y = 1439;
},
{
smooth = 0;
x = 1031;
y = 1410;
},
{
segmentType = curve;
smooth = 0;
x = 1068;
y = 1376;
},
{
segmentType = line;
smooth = 0;
x = 1112;
y = 1139;
},
{
segmentType = line;
smooth = 0;
x = 1218;
y = 1139;
},
{
segmentType = line;
smooth = 0;
x = 1235;
y = 1473;
},
{
smooth = 0;
x = 1164;
y = 1489;
},
{
smooth = 0;
x = 986;
y = 1538;
},
{
segmentType = curve;
smooth = 1;
x = 803;
y = 1538;
},
{
smooth = 0;
x = 391;
y = 1538;
},
{
smooth = 0;
x = 74;
y = 1224;
},
{
segmentType = curve;
smooth = 1;
x = 74;
y = 768;
},
{
smooth = 0;
x = 74;
y = 293;
},
{
smooth = 0;
x = 325;
y = -23;
}
);
}
);
lib = {
};
name = C;
unicodes = (
);
width = 1391;
};
};
};
},
{
color = 8;
glyphname = D;
lastChange = "2020-03-12 14:21:04 +0000";
layers = (
{
anchors = (
{
name = btm;
position = "{280, 0}";
},
{
name = top;
position = "{330, 568}";
}
);
background = {
anchors = (
{
name = btm;
position = "{280, 0}";
},
{
name = top;
position = "{330, 568}";
}
);
paths = (
{
closed = 1;
nodes = (
"189 568 CURVE SMOOTH",
"80 568 LINE",
"76 536 LINE",
"136 524 LINE SMOOTH",
"146 522 OFFCURVE",
"151 513 OFFCURVE",
"150 503 CURVE SMOOTH",
"96 65 LINE SMOOTH",
"95 53 OFFCURVE",
"87 45 OFFCURVE",
"74 43 CURVE SMOOTH",
"14 32 LINE",
"10 0 LINE",
"120 0 LINE SMOOTH",
"163 0 OFFCURVE",
"208 -5 OFFCURVE",
"240 -5 CURVE SMOOTH",
"412 -5 OFFCURVE",
"537 96 OFFCURVE",
"561 300 CURVE SMOOTH",
"582 475 OFFCURVE",
"512 574 OFFCURVE",
"323 574 CURVE SMOOTH",
"277 574 OFFCURVE",
"235 568 OFFCURVE"
);
},
{
closed = 1;
nodes = (
"155 37 CURVE",
"216 533 LINE",
"236 534 OFFCURVE",
"265 537 OFFCURVE",
"298 537 CURVE SMOOTH",
"449 537 OFFCURVE",
"515 464 OFFCURVE",
"493 288 CURVE SMOOTH",
"471 113 OFFCURVE",
"387 35 OFFCURVE",
"255 31 CURVE SMOOTH",
"224 30 OFFCURVE",
"178 33 OFFCURVE"
);
}
);
};
hints = (
{
origin = "{0, 9}";
type = Corner;
name = _corner.RightSerif;
options = 1;
},
{
origin = "{0, 10}";
type = Corner;
name = _corner.LeftSerif;
}
);
layerId = "DAAEA780-4710-4479-B303-5C05B40621B2";
paths = (
{
closed = 1;
nodes = (
"443 -4 OFFCURVE",
"525 177 OFFCURVE",
"525 334 CURVE SMOOTH",
"525 493 OFFCURVE",
"437 571 OFFCURVE",
"282 571 CURVE SMOOTH",
"243 571 OFFCURVE",
"206 568 OFFCURVE",
"178 568 CURVE SMOOTH",
"159 568 LINE",
"88 0 LINE",
"117 0 LINE SMOOTH",
"154 0 OFFCURVE",
"191 -4 OFFCURVE",
"223 -4 CURVE SMOOTH"
);
},
{
closed = 1;
nodes = (
"208 32 OFFCURVE",
"175 34 OFFCURVE",
"155 37 CURVE",
"216 533 LINE",
"238 534 OFFCURVE",
"252 535 OFFCURVE",
"268 535 CURVE SMOOTH",
"393 535 OFFCURVE",
"454 467 OFFCURVE",
"454 322 CURVE SMOOTH",
"454 194 OFFCURVE",
"400 32 OFFCURVE",
"230 32 CURVE SMOOTH"
);
}
);
width = 555;
},
{
anchors = (
{
name = btm;
position = "{295, 0}";
},
{
name = top;
position = "{341, 568}";
}
);
background = {
anchors = (
{
name = btm;
position = "{295, 0}";
},
{
name = top;
position = "{341, 568}";
}
);
paths = (
{
closed = 1;
nodes = (
"215 568 CURVE SMOOTH",
"74 568 LINE",
"67 513 LINE",
"125 501 LINE SMOOTH",
"134 499 OFFCURVE",
"139 493 OFFCURVE",
"138 484 CURVE SMOOTH",
"88 81 LINE SMOOTH",
"87 72 OFFCURVE",
"80 65 OFFCURVE",
"71 63 CURVE SMOOTH",
"11 52 LINE",
"4 0 LINE",
"146 0 LINE SMOOTH",
"175 0 OFFCURVE",
"233 -5 OFFCURVE",
"266 -6 CURVE SMOOTH",
"445 -11 OFFCURVE",
"565 101 OFFCURVE",
"589 303 CURVE SMOOTH",
"611 490 OFFCURVE",
"530 572 OFFCURVE",
"345 572 CURVE SMOOTH",
"303 572 OFFCURVE",
"264 568 OFFCURVE"
);
},
{
closed = 1;
nodes = (
"223 59 CURVE",
"279 512 LINE",
"283 513 OFFCURVE",
"304 519 OFFCURVE",
"329 519 CURVE SMOOTH",
"428 519 OFFCURVE",
"454 431 OFFCURVE",
"436 282 CURVE SMOOTH",
"415 107 OFFCURVE",
"359 51 OFFCURVE",
"275 51 CURVE SMOOTH",
"258 51 OFFCURVE",
"235 53 OFFCURVE"
);
}
);
};
hints = (
{
origin = "{0, 9}";
type = Corner;
name = _corner.RightSerif;
},
{
origin = "{0, 10}";
type = Corner;
name = _corner.LeftSerif;
}
);
layerId = "925CB40E-795E-477B-BAE7-1EE7D58841B5";
paths = (
{
closed = 1;
nodes = (
"486 -5 OFFCURVE",
"567 187 OFFCURVE",
"567 341 CURVE SMOOTH",
"567 504 OFFCURVE",
"476 571 OFFCURVE",
"322 571 CURVE SMOOTH",
"290 571 OFFCURVE",
"229 568 OFFCURVE",
"189 568 CURVE SMOOTH",
"149 568 LINE",
"78 0 LINE",
"123 0 LINE SMOOTH",
"163 0 OFFCURVE",
"212 -5 OFFCURVE",
"250 -5 CURVE SMOOTH"
);
},
{
closed = 1;
nodes = (
"253 52 OFFCURVE",
"235 54 OFFCURVE",
"221 59 CURVE",
"278 514 LINE",
"287 516 OFFCURVE",
"302 517 OFFCURVE",
"312 517 CURVE SMOOTH",
"384 517 OFFCURVE",
"418 462 OFFCURVE",
"418 345 CURVE SMOOTH",
"418 216 OFFCURVE",
"377 52 OFFCURVE",
"265 52 CURVE SMOOTH"
);
}
);
width = 592;
}
);
leftKerningGroup = H;
leftMetricsKey = H;
rightKerningGroup = D;
unicode = 0044;
userData = {
com.typemytype.robofont.layerData = {
background = {
anchors = (
{
name = btm;
x = 805;
y = -170;
},
{
name = top;
x = 806;
y = 1700;
}
);
components = (
);
contours = (
{
points = (
{
segmentType = line;
smooth = 0;
x = 102;
y = 0;
},
{
smooth = 0;
x = 194;
y = 0;
},
{
smooth = 0;
x = 274;
y = 0;
},
{
segmentType = curve;
smooth = 1;
x = 365;
y = 0;
},
{
smooth = 0;
x = 483;
y = 0;
},
{
smooth = 0;
x = 600;
y = -14;
},
{
segmentType = curve;
smooth = 1;
x = 698;
y = -16;
},
{
smooth = 0;
x = 1154;
y = -27;
},
{
smooth = 0;
x = 1475;
y = 305;
},
{
segmentType = curve;
smooth = 1;
x = 1475;
y = 806;
},
{
smooth = 0;
x = 1475;
y = 1246;
},
{
smooth = 0;
x = 1256;
y = 1538;
},
{
segmentType = curve;
smooth = 1;
x = 724;
y = 1538;
},
{
smooth = 0;
x = 603;
y = 1538;
},
{
smooth = 0;
x = 488;
y = 1522;
},
{
segmentType = curve;
smooth = 1;
x = 362;
y = 1522;
},
{
segmentType = line;
smooth = 0;
x = 114;
y = 1522;
},
{
segmentType = line;
smooth = 0;
x = 114;
y = 1434;
},
{
segmentType = line;
smooth = 0;
x = 302;
y = 1408;
},
{
segmentType = line;
smooth = 0;
x = 278;
y = 1445;
},
{
segmentType = line;
smooth = 0;
x = 278;
y = 67;
},
{
segmentType = line;
smooth = 0;
x = 318;
y = 112;
},
{
segmentType = line;
smooth = 0;
x = 102;
y = 88;
}
);
},
{
points = (
{
segmentType = line;
smooth = 0;
x = 447;
y = 1427;
},
{
smooth = 0;
x = 503;
y = 1430;
},
{
smooth = 0;
x = 579;
y = 1440;
},
{
segmentType = curve;
smooth = 1;
x = 672;
y = 1440;
},
{
smooth = 0;
x = 1087;
y = 1440;
},
{
smooth = 0;
x = 1294;
y = 1217;
},
{
segmentType = curve;
smooth = 1;
x = 1294;
y = 771;
},
{
smooth = 0;
x = 1294;
y = 326;
},
{
smooth = 0;
x = 1053;
y = 89;
},
{
segmentType = curve;
smooth = 1;
x = 723;
y = 83;
},
{
smooth = 0;
x = 629;
y = 81;
},
{
smooth = 0;
x = 545;
y = 82;
},
{
segmentType = curve;
smooth = 0;
x = 447;
y = 100;
}
);
}
);
lib = {
};
name = D;
unicodes = (
);
width = 1624;
};
};
};
},
{
color = 8;
glyphname = E;
lastChange = "2020-03-12 12:45:53 +0000";
layers = (
{
anchors = (
{
name = btm;
position = "{232, 0}";
},
{
name = top;
position = "{295, 568}";
}
);
background = {
anchors = (
{
name = btm;
position = "{232, 0}";
},
{
name = top;
position = "{295, 568}";
}
);
paths = (
{
closed = 1;
nodes = (
"455 433 LINE",
"465 482 OFFCURVE",
"470 524 OFFCURVE",
"474 568 CURVE",
"81 568 LINE",
"77 536 LINE",
"134 524 LINE SMOOTH",
"146 521 OFFCURVE",
"152 513 OFFCURVE",
"151 501 CURVE SMOOTH",
"97 66 LINE SMOOTH",
"95 53 OFFCURVE",
"89 46 OFFCURVE",
"75 43 CURVE SMOOTH",
"15 32 LINE",
"11 0 LINE",
"422 0 LINE",
"437 47 OFFCURVE",
"449 96 OFFCURVE",
"455 140 CURVE",
"424 144 LINE",
"389 69 LINE SMOOTH",
"384 58 OFFCURVE",
"378 52 OFFCURVE",
"365 48 CURVE SMOOTH",
"346 42 OFFCURVE",
"314 39 OFFCURVE",
"279 39 CURVE SMOOTH",
"156 39 LINE",
"185 272 LINE",
"368 268 LINE",
"374 317 LINE",
"189 311 LINE",
"216 532 LINE",
"317 532 LINE SMOOTH",
"351 532 OFFCURVE",
"380 530 OFFCURVE",
"397 524 CURVE SMOOTH",
"409 520 OFFCURVE",
"415 513 OFFCURVE",
"416 503 CURVE SMOOTH",
"422 433 LINE"
);
}
);
};
guideLines = (
{
angle = 180;
position = "{194, 272}";
},
{
position = "{194, 311}";
}
);
hints = (
{
origin = "{0, 5}";
type = Corner;
name = _corner.LeftSerif;
},
{
origin = "{0, 4}";
type = Corner;
name = _corner.RightSerif;
}
);
layerId = "DAAEA780-4710-4479-B303-5C05B40621B2";
paths = (
{
closed = 1;
nodes = (
"431 433 LINE",
"442 482 OFFCURVE",
"450 523 OFFCURVE",
"454 568 CURVE",
"159 568 LINE",
"89 0 LINE",
"404 0 LINE",
"416 47 OFFCURVE",
"426 98 OFFCURVE",
"429 140 CURVE",
"398 144 LINE",
"366 69 LINE SMOOTH",
"363 62 OFFCURVE",
"358 53 OFFCURVE",
"344 48 CURVE SMOOTH",
"326 42 OFFCURVE",
"294 39 OFFCURVE",
"259 39 CURVE SMOOTH",
"156 39 LINE",
"185 272 LINE",
"338 268 LINE",
"345 284 OFFCURVE",
"347 301 OFFCURVE",
"344 317 CURVE",
"190 311 LINE",
"217 532 LINE",
"296 532 LINE SMOOTH",
"323 532 OFFCURVE",
"358 531 OFFCURVE",
"376 524 CURVE SMOOTH",
"388 519 OFFCURVE",
"392 513 OFFCURVE",
"393 503 CURVE SMOOTH",
"398 433 LINE"
);
}
);
width = 470;
},
{
anchors = (
{
name = btm;
position = "{257, 0}";
},
{
name = top;
position = "{313, 568}";
}
);
background = {
anchors = (
{
name = btm;
position = "{257, 0}";
},
{
name = top;
position = "{313, 568}";
}
);
paths = (
{
closed = 1;
nodes = (
"497 413 LINE",
"507 466 OFFCURVE",
"514 517 OFFCURVE",
"513 568 CURVE",
"76 568 LINE",
"69 513 LINE",
"125 502 LINE SMOOTH",
"136 500 OFFCURVE",
"140 493 OFFCURVE",
"139 481 CURVE SMOOTH",
"90 83 LINE SMOOTH",
"89 72 OFFCURVE",
"82 65 OFFCURVE",
"71 63 CURVE SMOOTH",
"13 52 LINE",
"6 0 LINE",
"462 0 LINE",
"478 59 OFFCURVE",
"490 112 OFFCURVE",
"497 171 CURVE",
"433 181 LINE",
"391 91 LINE SMOOTH",
"385 78 OFFCURVE",
"380 72 OFFCURVE",
"369 67 CURVE SMOOTH",
"356 61 OFFCURVE",
"326 59 OFFCURVE",
"302 59 CURVE SMOOTH",
"225 59 LINE",
"250 256 LINE",
"405 252 LINE",
"414 327 LINE",
"258 321 LINE",
"281 512 LINE",
"342 512 LINE SMOOTH",
"366 512 OFFCURVE",
"390 508 OFFCURVE",
"402 504 CURVE SMOOTH",
"413 500 OFFCURVE",
"418 493 OFFCURVE",
"420 480 CURVE SMOOTH",
"432 413 LINE"
);
}
);
};
hints = (
{
origin = "{0, 4}";
type = Corner;
name = _corner.RightSerif;
},
{
origin = "{0, 5}";
type = Corner;
name = _corner.LeftSerif;
}
);
layerId = "925CB40E-795E-477B-BAE7-1EE7D58841B5";
paths = (
{
closed = 1;
nodes = (
"482 413 LINE",
"494 466 OFFCURVE",
"501 520 OFFCURVE",
"504 568 CURVE",
"149 568 LINE",
"78 0 LINE",
"446 0 LINE",
"462 59 OFFCURVE",
"471 117 OFFCURVE",
"475 172 CURVE",
"411 178 LINE",
"377 99 LINE SMOOTH",
"370 82 OFFCURVE",
"364 72 OFFCURVE",
"349 67 CURVE SMOOTH",
"332 61 OFFCURVE",
"305 59 OFFCURVE",
"276 59 CURVE SMOOTH",
"221 59 LINE",
"246 256 LINE",
"379 252 LINE",
"388 275 OFFCURVE",
"391 301 OFFCURVE",
"389 327 CURVE",
"254 321 LINE",
"278 512 LINE",
"334 512 LINE SMOOTH",
"352 512 OFFCURVE",
"375 512 OFFCURVE",
"391 506 CURVE SMOOTH",
"407 500 OFFCURVE",
"409 493 OFFCURVE",
"411 476 CURVE SMOOTH",
"418 413 LINE"
);
}
);
width = 513;
}
);
leftKerningGroup = H;
leftMetricsKey = H;
rightKerningGroup = E;
unicode = 0045;
userData = {
com.typemytype.robofont.guides = (
{
angle = 180;
isGlobal = 0;
x = 605;
y = 749;
},
{
angle = 0;
isGlobal = 0;
x = 605;
y = 855;
}
);
com.typemytype.robofont.layerData = {
background = {
anchors = (
{
name = btm;
x = 698;
y = -170;
},
{
name = top;
x = 696;
y = 1700;
}
);
components = (
);
contours = (
{
points = (
{
segmentType = line;
smooth = 0;
x = 103;
y = 0;
},
{
segmentType = line;
smooth = 0;
x = 1212;
y = 0;
},
{
segmentType = line;
smooth = 0;
x = 1275;
y = 346;
},
{
segmentType = line;
smooth = 0;
x = 1178;
y = 377;
},
{
segmentType = line;
smooth = 0;
x = 1074;
y = 121;
},
{
segmentType = line;
smooth = 0;
x = 447;
y = 104;
},
{
segmentType = line;
smooth = 0;
x = 447;
y = 735;
},
{
segmentType = line;
smooth = 0;
x = 824;
y = 730;
},
{
segmentType = line;
smooth = 0;
x = 849;
y = 555;
},
{
segmentType = line;
smooth = 0;
x = 953;
y = 555;
},
{
segmentType = line;
smooth = 0;
x = 953;
y = 1007;
},
{
segmentType = line;
smooth = 0;
x = 849;
y = 1007;
},
{
segmentType = line;
smooth = 0;
x = 824;
y = 837;
},
{
segmentType = line;
smooth = 0;
x = 447;
y = 831;
},
{
segmentType = line;
smooth = 0;
x = 447;
y = 1427;
},
{
segmentType = line;
smooth = 0;
x = 995;
y = 1418;
},
{
segmentType = line;
smooth = 0;
x = 1051;
y = 1221;
},
{
segmentType = line;
smooth = 0;
x = 1148;
y = 1221;
},
{
segmentType = line;
smooth = 0;
x = 1120;
y = 1522;
},
{
segmentType = line;
smooth = 0;
x = 107;
y = 1522;
},
{
segmentType = line;
smooth = 0;
x = 107;
y = 1434;
},
{
segmentType = line;
smooth = 0;
x = 299;
y = 1409;
},
{
segmentType = line;
smooth = 0;
x = 278;
y = 1453;
},
{
segmentType = line;
smooth = 0;
x = 278;
y = 66;
},
{
segmentType = line;
smooth = 0;
x = 325;
y = 113;
},
{
segmentType = line;
smooth = 0;
x = 103;
y = 88;
}
);
}
);
lib = {
};
name = E;
unicodes = (
);
width = 1348;
};
};
};
},
{
color = 8;
glyphname = F;
lastChange = "2020-03-12 12:45:56 +0000";
layers = (
{
anchors = (
{
name = btm;
position = "{225, 0}";
},
{
name = top;
position = "{286, 568}";
}
);
background = {
anchors = (
{
name = btm;
position = "{225, 0}";
},
{
name = top;
position = "{286, 568}";
}
);
paths = (
{
closed = 1;
nodes = (
"367 260 LINE",
"373 310 LINE",
"188 304 LINE",
"216 532 LINE",
"317 532 LINE SMOOTH",
"351 532 OFFCURVE",
"380 530 OFFCURVE",
"397 524 CURVE SMOOTH",
"409 520 OFFCURVE",
"415 513 OFFCURVE",
"416 503 CURVE SMOOTH",
"422 433 LINE",
"455 433 LINE",
"465 482 OFFCURVE",
"470 524 OFFCURVE",
"474 568 CURVE",
"81 568 LINE",
"77 536 LINE",
"134 524 LINE SMOOTH",
"146 521 OFFCURVE",
"152 513 OFFCURVE",
"151 501 CURVE SMOOTH",
"97 66 LINE SMOOTH",
"95 53 OFFCURVE",
"89 46 OFFCURVE",
"75 43 CURVE SMOOTH",
"15 32 LINE",
"11 0 LINE",
"262 0 LINE",
"266 32 LINE",
"176 44 LINE SMOOTH",
"165 45 OFFCURVE",
"158 54 OFFCURVE",
"159 65 CURVE SMOOTH",
"184 265 LINE"
);
}
);
};
hints = (
{
origin = "{0, 25}";
type = Corner;
name = _corner.RightSerif;
},
{
origin = "{0, 26}";
type = Corner;
name = _corner.LeftSerif;
}
);
layerId = "DAAEA780-4710-4479-B303-5C05B40621B2";
paths = (
{
closed = 1;
nodes = (
"255 0 LINE",
"260 32 LINE",
"177 44 LINE SMOOTH",
"168 45 OFFCURVE",
"158 52 OFFCURVE",
"160 68 CURVE SMOOTH",
"184 265 LINE",
"336 260 LINE",
"343 277 OFFCURVE",
"346 293 OFFCURVE",
"343 310 CURVE",
"189 304 LINE",
"217 532 LINE",
"296 532 LINE SMOOTH",
"323 532 OFFCURVE",
"358 531 OFFCURVE",
"376 524 CURVE SMOOTH",
"388 519 OFFCURVE",
"392 513 OFFCURVE",
"393 503 CURVE SMOOTH",
"398 433 LINE",
"431 433 LINE",
"442 482 OFFCURVE",
"450 523 OFFCURVE",
"454 568 CURVE",
"159 568 LINE",
"89 0 LINE"
);
}
);
width = 436;
},
{
anchors = (
{
name = btm;
position = "{234, -62}";
},
{
name = top;
position = "{234, 618}";
}
);
associatedMasterId = "DAAEA780-4710-4479-B303-5C05B40621B2";
layerId = "250A3C6B-31B9-4D3E-9872-561517E1DD17";
name = "Light Oct 7 15, 12:37";
paths = (
{
closed = 1;
nodes = (
"163 265 LINE",
"272 265 LINE SMOOTH",
"285 265 OFFCURVE",
"291 257 OFFCURVE",
"295 245 CURVE SMOOTH",
"310 198 LINE",
"342 198 LINE",
"342 370 LINE",
"310 370 LINE",
"295 324 LINE SMOOTH",
"291 311 OFFCURVE",
"285 304 OFFCURVE",
"272 304 CURVE SMOOTH",
"163 304 LINE",
"163 532 LINE",
"263 532 LINE SMOOTH",
"299 532 OFFCURVE",
"329 530 OFFCURVE",
"348 524 CURVE SMOOTH",
"359 520 OFFCURVE",
"365 513 OFFCURVE",
"369 503 CURVE SMOOTH",
"395 433 LINE",
"428 433 LINE",
"429 482 OFFCURVE",
"427 523 OFFCURVE",
"418 568 CURVE",
"23 568 LINE",
"23 536 LINE",
"81 524 LINE SMOOTH",
"94 522 OFFCURVE",
"101 513 OFFCURVE",
"101 501 CURVE SMOOTH",
"101 66 LINE SMOOTH",
"101 53 OFFCURVE",
"94 45 OFFCURVE",
"81 43 CURVE SMOOTH",
"23 32 LINE",
"23 0 LINE",
"273 0 LINE",
"273 32 LINE",
"181 44 LINE SMOOTH",
"170 45 OFFCURVE",
"163 54 OFFCURVE",
"163 65 CURVE SMOOTH"
);
}
);
width = 460;
},
{
anchors = (
{
name = btm;
position = "{238, 0}";
},
{
name = top;
position = "{309, 568}";
}
);
background = {
anchors = (
{
name = btm;
position = "{238, 0}";
},
{
name = top;
position = "{309, 568}";
}
);
paths = (
{
closed = 1;
nodes = (
"403 243 LINE",
"412 317 LINE",
"255 312 LINE",
"280 512 LINE",
"341 512 LINE SMOOTH",
"365 512 OFFCURVE",
"389 508 OFFCURVE",
"401 504 CURVE SMOOTH",
"412 500 OFFCURVE",
"417 493 OFFCURVE",
"419 480 CURVE SMOOTH",
"431 413 LINE",
"496 413 LINE",
"506 466 OFFCURVE",
"513 517 OFFCURVE",
"512 568 CURVE",
"75 568 LINE",
"68 513 LINE",
"124 502 LINE SMOOTH",
"135 500 OFFCURVE",
"139 493 OFFCURVE",
"138 481 CURVE SMOOTH",
"89 82 LINE SMOOTH",
"88 72 OFFCURVE",
"81 65 OFFCURVE",
"71 63 CURVE SMOOTH",
"12 52 LINE",
"5 0 LINE",
"326 0 LINE",
"333 52 LINE",
"241 64 LINE SMOOTH",
"232 65 OFFCURVE",
"226 72 OFFCURVE",
"227 81 CURVE SMOOTH",
"247 247 LINE"
);
}
);
};
hints = (
{
origin = "{0, 26}";
type = Corner;
name = _corner.LeftSerif;
},
{
origin = "{0, 25}";
type = Corner;
name = _corner.RightSerif;
}
);
layerId = "925CB40E-795E-477B-BAE7-1EE7D58841B5";
paths = (
{
closed = 1;
nodes = (
"310 0 LINE",
"317 52 LINE",
"247 61 LINE SMOOTH",
"223 64 OFFCURVE",
"224 74 OFFCURVE",
"225 85 CURVE SMOOTH",
"245 247 LINE",
"379 243 LINE",
"388 266 OFFCURVE",
"389 293 OFFCURVE",
"388 317 CURVE",
"253 312 LINE",
"278 512 LINE",
"334 512 LINE SMOOTH",
"355 512 OFFCURVE",
"377 512 OFFCURVE",
"389 507 CURVE SMOOTH",
"407 500 OFFCURVE",
"409 493 OFFCURVE",
"411 476 CURVE SMOOTH",
"418 413 LINE",
"482 413 LINE",
"494 466 OFFCURVE",
"501 521 OFFCURVE",
"504 568 CURVE",
"149 568 LINE",
"78 0 LINE"
);
}
);
width = 477;
}
);
leftKerningGroup = H;
leftMetricsKey = H;
unicode = 0046;
userData = {
com.typemytype.robofont.layerData = {
"Light Oct 7 15, 12:37" = {
anchors = (
{
name = btm;
x = 644;
y = -170;
},
{
name = top;
x = 644;
y = 1700;
}
);
components = (
);
contours = (
{
points = (
{
segmentType = line;
smooth = 0;
x = 447;
y = 729;
},
{
segmentType = line;
smooth = 1;
x = 748;
y = 729;
},
{
smooth = 0;
x = 785;
y = 729;
},
{
smooth = 0;
x = 801;
y = 708;
},
{
segmentType = curve;
smooth = 1;
x = 812;
y = 674;
},
{
segmentType = line;
smooth = 0;
x = 853;
y = 545;
},
{
segmentType = line;
smooth = 0;
x = 941;
y = 545;
},
{
segmentType = line;
smooth = 0;
x = 941;
y = 1017;
},
{
segmentType = line;
smooth = 0;
x = 853;
y = 1017;
},
{
segmentType = line;
smooth = 1;
x = 812;
y = 890;
},
{
smooth = 0;
x = 801;
y = 856;
},
{
smooth = 0;
x = 785;
y = 835;
},
{
segmentType = curve;
smooth = 1;
x = 748;
y = 835;
},
{
segmentType = line;
smooth = 0;
x = 447;
y = 835;
},
{
segmentType = line;
smooth = 0;
x = 447;
y = 1464;
},
{
segmentType = line;
smooth = 1;
x = 724;
y = 1464;
},
{
smooth = 0;
x = 821;
y = 1464;
},
{
smooth = 0;
x = 906;
y = 1458;
},
{
segmentType = curve;
smooth = 1;
x = 957;
y = 1440;
},
{
smooth = 0;
x = 988;
y = 1429;
},
{
smooth = 0;
x = 1003;
y = 1411;
},
{
segmentType = curve;
smooth = 1;
x = 1014;
y = 1383;
},
{
segmentType = line;
smooth = 0;
x = 1087;
y = 1192;
},
{
segmentType = line;
smooth = 0;
x = 1176;
y = 1192;
},
{
smooth = 0;
x = 1181;
y = 1325;
},
{
smooth = 0;
x = 1173;
y = 1439;
},
{
segmentType = curve;
smooth = 0;
x = 1150;
y = 1562;
},
{
segmentType = line;
smooth = 0;
x = 62;
y = 1562;
},
{
segmentType = line;
smooth = 0;
x = 62;
y = 1474;
},
{
segmentType = line;
smooth = 1;
x = 223;
y = 1442;
},
{
smooth = 0;
x = 258;
y = 1435;
},
{
smooth = 0;
x = 277;
y = 1412;
},
{
segmentType = curve;
smooth = 1;
x = 277;
y = 1377;
},
{
segmentType = line;
smooth = 1;
x = 277;
y = 182;
},
{
smooth = 0;
x = 277;
y = 146;
},
{
smooth = 0;
x = 259;
y = 124;
},
{
segmentType = curve;
smooth = 1;
x = 223;
y = 117;
},
{
segmentType = line;
smooth = 0;
x = 62;
y = 88;
},
{
segmentType = line;
smooth = 0;
x = 62;
y = 0;
},
{
segmentType = line;
smooth = 0;
x = 751;
y = 0;
},
{
segmentType = line;
smooth = 0;
x = 751;
y = 88;
},
{
segmentType = line;
smooth = 1;
x = 498;
y = 121;
},
{
smooth = 0;
x = 468;
y = 125;
},
{
smooth = 0;
x = 447;
y = 149;
},
{
segmentType = curve;
smooth = 1;
x = 447;
y = 179;
}
);
}
);
lib = {
};
name = F;
unicodes = (
);
width = 1264;
};
background = {
anchors = (
{
name = btm;
x = 644;
y = -170;
},
{
name = top;
x = 644;
y = 1700;
}
);
components = (
);
contours = (
{
points = (
{
segmentType = line;
smooth = 0;
x = 111;
y = 0;
},
{
segmentType = line;
smooth = 0;
x = 767;
y = 0;
},
{
segmentType = line;
smooth = 0;
x = 767;
y = 88;
},
{
segmentType = line;
smooth = 0;
x = 406;
y = 110;
},
{
segmentType = line;
smooth = 0;
x = 447;
y = 66;
},
{
segmentType = line;
smooth = 0;
x = 447;
y = 722;
},
{
segmentType = line;
smooth = 0;
x = 856;
y = 714;
},
{
segmentType = line;
smooth = 0;
x = 890;
y = 541;
},
{
segmentType = line;
smooth = 0;
x = 985;
y = 541;
},
{
segmentType = line;
smooth = 0;
x = 985;
y = 994;
},
{
segmentType = line;
smooth = 0;
x = 890;
y = 994;
},
{
segmentType = line;
smooth = 0;
x = 856;
y = 827;
},
{
segmentType = line;
smooth = 0;
x = 447;
y = 821;
},
{
segmentType = line;
smooth = 0;
x = 447;
y = 1427;
},
{
segmentType = line;
smooth = 0;
x = 1024;
y = 1418;
},
{
segmentType = line;
smooth = 0;
x = 1080;
y = 1185;
},
{
segmentType = line;
smooth = 0;
x = 1192;
y = 1185;
},
{
segmentType = line;
smooth = 0;
x = 1171;
y = 1522;
},
{
segmentType = line;
smooth = 0;
x = 99;
y = 1522;
},
{
segmentType = line;
smooth = 0;
x = 99;
y = 1434;
},
{
segmentType = line;
smooth = 0;
x = 321;
y = 1406;
},
{
segmentType = line;
smooth = 0;
x = 278;
y = 1450;
},
{
segmentType = line;
smooth = 0;
x = 278;
y = 66;
},
{
segmentType = line;
smooth = 0;
x = 322;
y = 111;
},
{
segmentType = line;
smooth = 0;
x = 111;
y = 88;
}
);
}
);
lib = {
};
name = F;
unicodes = (
);
width = 1236;
};
};
};
},
{
glyphname = G;
lastChange = "2020-02-21 16:30:30 +0000";
layers = (
{
anchors = (
{
name = btm;
position = "{294, 0}";
},
{
name = top;
position = "{378, 568}";
}
);
background = {
anchors = (
{
name = btm;
position = "{294, 0}";
},
{
name = top;
position = "{378, 568}";
}
);
paths = (
{
closed = 1;
nodes = (
"482 79 CURVE",
"478 114 LINE",
"438 55 OFFCURVE",
"377 37 OFFCURVE",
"320 37 CURVE SMOOTH",
"198 37 OFFCURVE",
"150 122 OFFCURVE",
"150 233 CURVE SMOOTH",
"150 416 OFFCURVE",
"244 541 OFFCURVE",
"379 541 CURVE SMOOTH",
"423 541 OFFCURVE",
"459 531 OFFCURVE",
"480 518 CURVE SMOOTH",
"491 512 OFFCURVE",
"494 502 OFFCURVE",
"495 490 CURVE SMOOTH",
"502 420 LINE",
"538 420 LINE",
"549 459 OFFCURVE",
"558 499 OFFCURVE",
"561 540 CURVE",
"516 567 OFFCURVE",
"458 576 OFFCURVE",
"401 576 CURVE SMOOTH",
"209 576 OFFCURVE",
"79 434 OFFCURVE",
"79 222 CURVE SMOOTH",
"79 85 OFFCURVE",
"151 -8 OFFCURVE",
"295 -8 CURVE SMOOTH",
"371 -8 OFFCURVE",
"433 18 OFFCURVE"
);
},
{
closed = 1;
nodes = (
"499 4 LINE",
"528 239 LINE",
"575 246 LINE",
"580 285 LINE",
"361 285 LINE",
"356 246 LINE",
"465 239 LINE",
"441 47 LINE",
"445 47 LINE",
"481 -3 LINE"
);
}
);
};
layerId = "DAAEA780-4710-4479-B303-5C05B40621B2";
paths = (
{
closed = 1;
nodes = (
"482 79 CURVE",
"478 114 LINE",
"438 55 OFFCURVE",
"377 37 OFFCURVE",
"320 37 CURVE SMOOTH",
"198 37 OFFCURVE",
"150 122 OFFCURVE",
"150 233 CURVE SMOOTH",
"150 416 OFFCURVE",
"244 541 OFFCURVE",
"379 541 CURVE SMOOTH",
"423 541 OFFCURVE",
"459 531 OFFCURVE",
"480 518 CURVE SMOOTH",
"491 512 OFFCURVE",
"494 502 OFFCURVE",
"495 490 CURVE SMOOTH",
"502 420 LINE",
"538 420 LINE",
"549 459 OFFCURVE",
"558 499 OFFCURVE",
"561 540 CURVE",
"516 567 OFFCURVE",
"458 576 OFFCURVE",
"401 576 CURVE SMOOTH",
"209 576 OFFCURVE",
"79 434 OFFCURVE",
"79 222 CURVE SMOOTH",
"79 85 OFFCURVE",
"151 -8 OFFCURVE",
"295 -8 CURVE SMOOTH",
"371 -8 OFFCURVE",
"433 18 OFFCURVE"
);
},
{
closed = 1;
nodes = (
"499 4 LINE",
"528 239 LINE",
"575 246 LINE",
"580 285 LINE",
"361 285 LINE",
"356 246 LINE",
"465 239 LINE",
"441 47 LINE",
"445 47 LINE",
"481 -3 LINE"
);
}
);
width = 579;
},
{
anchors = (
{
name = btm;
position = "{295, 0}";
},
{
name = top;
position = "{397, 568}";
}
);
background = {
anchors = (
{
name = btm;
position = "{295, 0}";
},
{
name = top;
position = "{397, 568}";
}
);
paths = (
{
closed = 1;
nodes = (
"455 78 CURVE",
"438 118 LINE",
"411 83 OFFCURVE",
"371 59 OFFCURVE",
"319 59 CURVE SMOOTH",
"249 59 OFFCURVE",
"223 105 OFFCURVE",
"223 190 CURVE SMOOTH",
"223 388 OFFCURVE",
"288 524 OFFCURVE",
"384 524 CURVE SMOOTH",
"410 524 OFFCURVE",
"429 516 OFFCURVE",
"441 506 CURVE SMOOTH",
"449 499 OFFCURVE",
"454 490 OFFCURVE",
"455 478 CURVE SMOOTH",
"465 395 LINE",
"549 395 LINE",
"562 446 OFFCURVE",
"572 496 OFFCURVE",
"574 545 CURVE",
"528 565 OFFCURVE",
"461 579 OFFCURVE",
"395 579 CURVE SMOOTH",
"186 579 OFFCURVE",
"65 445 OFFCURVE",
"65 213 CURVE SMOOTH",
"65 71 OFFCURVE",
"134 -12 OFFCURVE",
"267 -12 CURVE SMOOTH",
"357 -12 OFFCURVE",
"421 29 OFFCURVE"
);
},
{
closed = 1;
nodes = (
"521 9 LINE",
"549 232 LINE",
"586 238 LINE",
"593 294 LINE",
"356 294 LINE",
"349 238 LINE",
"417 230 LINE",
"395 51 LINE",
"425 51 LINE",
"493 -6 LINE"
);
}
);
};
layerId = "925CB40E-795E-477B-BAE7-1EE7D58841B5";
paths = (
{
closed = 1;
nodes = (
"455 78 CURVE",
"438 118 LINE",
"411 83 OFFCURVE",
"371 59 OFFCURVE",
"319 59 CURVE SMOOTH",
"249 59 OFFCURVE",
"223 105 OFFCURVE",
"223 190 CURVE SMOOTH",
"223 388 OFFCURVE",
"288 524 OFFCURVE",
"384 524 CURVE SMOOTH",
"410 524 OFFCURVE",
"429 516 OFFCURVE",
"441 506 CURVE SMOOTH",
"449 499 OFFCURVE",
"454 490 OFFCURVE",
"455 478 CURVE SMOOTH",
"465 395 LINE",
"549 395 LINE",
"562 446 OFFCURVE",
"572 496 OFFCURVE",
"574 545 CURVE",
"528 565 OFFCURVE",
"461 579 OFFCURVE",
"395 579 CURVE SMOOTH",
"186 579 OFFCURVE",
"65 445 OFFCURVE",
"65 213 CURVE SMOOTH",
"65 71 OFFCURVE",
"134 -12 OFFCURVE",
"267 -12 CURVE SMOOTH",
"357 -12 OFFCURVE",
"421 29 OFFCURVE"
);
},
{
closed = 1;
nodes = (
"521 9 LINE",
"549 232 LINE",
"586 238 LINE",
"593 294 LINE",
"356 294 LINE",
"349 238 LINE",
"417 230 LINE",
"395 51 LINE",
"425 51 LINE",
"493 -6 LINE"
);
}
);
width = 580;
}
);
leftKerningGroup = O;
rightKerningGroup = G;
unicode = 0047;
userData = {
com.typemytype.robofont.layerData = {
background = {
anchors = (
{
name = btm;
x = 784;
y = -170;
},
{
name = top;
x = 820;
y = 1700;
}
);
components = (
);
contours = (
{
points = (
{
segmentType = curve;
smooth = 1;
x = 803;
y = -23;
},
{
smooth = 0;
x = 1077;
y = -23;
},
{
smooth = 0;
x = 1237;
y = 77;
},
{
segmentType = curve;
smooth = 0;
x = 1345;
y = 82;
},
{
segmentType = line;
smooth = 0;
x = 1345;
y = 669;
},
{
segmentType = line;
smooth = 0;
x = 1292;
y = 627;
},
{
segmentType = line;
smooth = 0;
x = 1471;
y = 657;
},
{
segmentType = line;
smooth = 0;
x = 1471;
y = 765;
},
{
segmentType = line;
smooth = 0;
x = 889;
y = 765;
},
{
segmentType = line;
smooth = 0;
x = 889;
y = 657;
},
{
segmentType = line;
smooth = 0;
x = 1233;
y = 632;
},
{
segmentType = line;
smooth = 0;
x = 1173;
y = 671;
},
{
segmentType = line;
smooth = 0;
x = 1173;
y = 170;
},
{
smooth = 0;
x = 1100;
y = 113;
},
{
smooth = 0;
x = 961;
y = 76;
},
{
segmentType = curve;
smooth = 1;
x = 816;
y = 76;
},
{
smooth = 0;
x = 458;
y = 76;
},
{
smooth = 0;
x = 291;
y = 428;
},
{
segmentType = curve;
smooth = 1;
x = 291;
y = 789;
},
{
smooth = 0;
x = 291;
y = 1220;
},
{
smooth = 0;
x = 531;
y = 1440;
},
{
segmentType = curve;
smooth = 1;
x = 847;
y = 1440;
},
{
smooth = 0;
x = 1040;
y = 1440;
},
{
smooth = 0;
x = 1130;
y = 1394;
},
{
segmentType = curve;
smooth = 0;
x = 1161;
y = 1371;
},
{
segmentType = line;
smooth = 0;
x = 1206;
y = 1134;
},
{
segmentType = line;
smooth = 0;
x = 1313;
y = 1134;
},
{
segmentType = line;
smooth = 0;
x = 1329;
y = 1474;
},
{
smooth = 0;
x = 1259;
y = 1491;
},
{
smooth = 0;
x = 1077;
y = 1538;
},
{
segmentType = curve;
smooth = 1;
x = 866;
y = 1538;
},
{
smooth = 0;
x = 439;
y = 1538;
},
{
smooth = 0;
x = 99;
y = 1250;
},
{
segmentType = curve;
smooth = 1;
x = 99;
y = 736;
},
{
smooth = 0;
x = 99;
y = 304;
},
{
smooth = 0;
x = 359;
y = -23;
}
);
}
);
lib = {
};
name = G;
unicodes = (
);
width = 1552;
};
};
};
},
{
color = 8;
glyphname = H;
lastChange = "2020-03-12 12:45:45 +0000";
layers = (
{
anchors = (
{
name = btm;
position = "{274, 0}";
},
{
name = top;
position = "{352, 568}";
}
);
background = {
anchors = (
{
name = btm;
position = "{274, 0}";
},
{
name = top;
position = "{352, 568}";
}
);
paths = (
{
closed = 1;
nodes = (
"636 568 LINE",
"423 568 LINE",
"419 536 LINE",
"471 524 LINE SMOOTH",
"484 521 OFFCURVE",
"490 514 OFFCURVE",
"488 501 CURVE SMOOTH",
"464 311 LINE",
"173 311 LINE",
"197 501 LINE SMOOTH",
"199 514 OFFCURVE",
"206 522 OFFCURVE",
"218 524 CURVE SMOOTH",
"277 536 LINE",
"281 568 LINE",
"65 568 LINE",
"61 536 LINE",
"118 524 LINE SMOOTH",
"130 521 OFFCURVE",
"137 513 OFFCURVE",
"135 500 CURVE SMOOTH",
"81 67 LINE SMOOTH",
"79 53 OFFCURVE",
"73 46 OFFCURVE",
"59 43 CURVE SMOOTH",
"-1 32 LINE",
"-5 0 LINE",
"211 0 LINE",
"215 32 LINE",
"160 43 LINE SMOOTH",
"148 45 OFFCURVE",
"141 53 OFFCURVE",
"143 66 CURVE SMOOTH",
"169 272 LINE",
"460 272 LINE",
"434 67 LINE SMOOTH",
"432 53 OFFCURVE",
"425 46 OFFCURVE",
"411 43 CURVE SMOOTH",
"357 32 LINE",
"353 0 LINE",
"566 0 LINE",
"570 32 LINE",
"513 43 LINE SMOOTH",
"500 45 OFFCURVE",
"494 53 OFFCURVE",
"496 67 CURVE SMOOTH",
"550 500 LINE SMOOTH",
"552 513 OFFCURVE",
"559 521 OFFCURVE",
"572 524 CURVE SMOOTH",
"632 536 LINE"
);
}
);
};
hints = (
{
origin = "{0, 15}";
type = Corner;
name = _corner.LeftSerif;
},
{
origin = "{0, 31}";
type = Corner;
name = _corner.LeftSerif;
},
{
origin = "{0, 30}";
type = Corner;
name = _corner.RightSerif;
},
{
origin = "{0, 14}";
type = Corner;
name = _corner.RightSerif;
}
);
layerId = "DAAEA780-4710-4479-B303-5C05B40621B2";
paths = (
{
closed = 1;
nodes = (
"223 0 LINE",
"227 32 LINE",
"176 42 LINE SMOOTH",
"162 45 OFFCURVE",
"157 51 OFFCURVE",
"159 68 CURVE SMOOTH",
"185 272 LINE",
"442 272 LINE",
"417 75 LINE SMOOTH",
"414 49 OFFCURVE",
"405 45 OFFCURVE",
"390 42 CURVE SMOOTH",
"340 32 LINE",
"336 0 LINE",
"470 0 LINE",
"541 568 LINE",
"407 568 LINE",
"403 536 LINE",
"454 526 LINE SMOOTH",
"468 523 OFFCURVE",
"473 517 OFFCURVE",
"471 500 CURVE SMOOTH",
"447 311 LINE",
"190 311 LINE",
"212 493 LINE SMOOTH",
"215 517 OFFCURVE",
"218 522 OFFCURVE",
"239 526 CURVE SMOOTH",
"289 536 LINE",
"293 568 LINE",
"159 568 LINE",
"89 0 LINE"
);
}
);
width = 610;
},
{
anchors = (
{
name = btm;
position = "{296, 0}";
},
{
name = top;
position = "{393, 568}";
}
);
background = {
anchors = (
{
name = btm;
position = "{296, 0}";
},
{
name = top;
position = "{393, 568}";
}
);
paths = (
{
closed = 1;
nodes = (
"683 568 LINE",
"413 568 LINE",
"406 513 LINE",
"447 502 LINE SMOOTH",
"456 500 OFFCURVE",
"461 492 OFFCURVE",
"460 481 CURVE SMOOTH",
"441 322 LINE",
"242 322 LINE",
"261 481 LINE SMOOTH",
"262 493 OFFCURVE",
"269 499 OFFCURVE",
"280 502 CURVE SMOOTH",
"327 513 LINE",
"334 568 LINE",
"60 568 LINE",
"53 513 LINE",
"109 502 LINE SMOOTH",
"120 500 OFFCURVE",
"124 493 OFFCURVE",
"123 481 CURVE SMOOTH",
"74 83 LINE SMOOTH",
"73 72 OFFCURVE",
"66 65 OFFCURVE",
"55 63 CURVE SMOOTH",
"-3 52 LINE",
"-10 0 LINE",
"264 0 LINE",
"271 52 LINE",
"226 63 LINE SMOOTH",
"215 66 OFFCURVE",
"211 72 OFFCURVE",
"212 83 CURVE SMOOTH",
"233 255 LINE",
"432 255 LINE",
"411 83 LINE SMOOTH",
"410 72 OFFCURVE",
"403 66 OFFCURVE",
"392 63 CURVE SMOOTH",
"351 52 LINE",
"344 0 LINE",
"613 0 LINE",
"620 52 LINE",
"564 63 LINE SMOOTH",
"553 65 OFFCURVE",
"548 72 OFFCURVE",
"549 83 CURVE SMOOTH",
"598 481 LINE SMOOTH",
"599 492 OFFCURVE",
"607 500 OFFCURVE",
"617 502 CURVE SMOOTH",
"676 513 LINE"
);
}
);
};
hints = (
{
origin = "{0, 31}";
type = Corner;
name = _corner.LeftSerif;
},
{
origin = "{0, 14}";
type = Corner;
name = _corner.RightSerif;
},
{
origin = "{0, 30}";
type = Corner;
name = _corner.RightSerif;
},
{
origin = "{0, 15}";
type = Corner;
name = _corner.LeftSerif;
}
);
layerId = "925CB40E-795E-477B-BAE7-1EE7D58841B5";
paths = (
{
closed = 1;
nodes = (
"275 0 LINE",
"281 52 LINE",
"245 59 LINE SMOOTH",
"229 62 OFFCURVE",
"223 68 OFFCURVE",
"225 85 CURVE SMOOTH",
"246 255 LINE",
"421 255 LINE",
"400 85 LINE SMOOTH",
"398 68 OFFCURVE",
"391 62 OFFCURVE",
"374 59 CURVE SMOOTH",
"339 52 LINE",
"333 0 LINE",
"525 0 LINE",
"596 568 LINE",
"400 568 LINE",
"394 516 LINE",
"429 509 LINE SMOOTH",
"447 505 OFFCURVE",
"451 499 OFFCURVE",
"449 483 CURVE SMOOTH",
"429 322 LINE",
"254 322 LINE",
"274 483 LINE SMOOTH",
"277 504 OFFCURVE",
"286 506 OFFCURVE",
"300 509 CURVE SMOOTH",
"336 516 LINE",
"342 568 LINE",
"149 568 LINE",
"78 0 LINE"
);
}
);
width = 655;
}
);
leftKerningGroup = H;
rightKerningGroup = H;
rightMetricsKey = "=|";
unicode = 0048;
userData = {
com.schriftgestaltung.Glyphs.rightMetricsKey = "=|";
com.typemytype.robofont.layerData = {
background = {
anchors = (
{
name = btm;
x = 890;
y = -170;
},
{
name = top;
x = 895;
y = 1700;
}
);
components = (
);
contours = (
{
points = (
{
segmentType = line;
smooth = 0;
x = 161;
y = 0;
},
{
segmentType = line;
smooth = 0;
x = 683;
y = 0;
},
{
segmentType = line;
smooth = 0;
x = 683;
y = 88;
},
{
segmentType = line;
smooth = 0;
x = 460;
y = 111;
},
{
segmentType = line;
smooth = 0;
x = 504;
y = 86;
},
{
segmentType = line;
smooth = 0;
x = 504;
y = 728;
},
{
segmentType = line;
smooth = 0;
x = 1285;
y = 728;
},
{
segmentType = line;
smooth = 0;
x = 1285;
y = 76;
},
{
segmentType = line;
smooth = 0;
x = 1341;
y = 113;
},
{
segmentType = line;
smooth = 0;
x = 1114;
y = 88;
},
{
segmentType = line;
smooth = 0;
x = 1114;
y = 0;
},
{
segmentType = line;
smooth = 0;
x = 1623;
y = 0;
},
{
segmentType = line;
smooth = 0;
x = 1623;
y = 88;
},
{
segmentType = line;
smooth = 0;
x = 1400;
y = 113;
},
{
segmentType = line;
smooth = 0;
x = 1455;
y = 76;
},
{
segmentType = line;
smooth = 0;
x = 1455;
y = 1449;
},
{
segmentType = line;
smooth = 0;
x = 1421;
y = 1407;
},
{
segmentType = line;
smooth = 0;
x = 1623;
y = 1434;
},
{
segmentType = line;
smooth = 0;
x = 1623;
y = 1522;
},
{
segmentType = line;
smooth = 0;
x = 1115;
y = 1522;
},
{
segmentType = line;
smooth = 0;
x = 1115;
y = 1434;
},
{
segmentType = line;
smooth = 0;
x = 1320;
y = 1407;
},
{
segmentType = line;
smooth = 0;
x = 1285;
y = 1448;
},
{
segmentType = line;
smooth = 0;
x = 1285;
y = 836;
},
{
segmentType = line;
smooth = 0;
x = 504;
y = 836;
},
{
segmentType = line;
smooth = 0;
x = 504;
y = 1446;
},
{
segmentType = line;
smooth = 0;
x = 473;
y = 1408;
},
{
segmentType = line;
smooth = 0;
x = 682;
y = 1434;
},
{
segmentType = line;
smooth = 0;
x = 682;
y = 1522;
},
{
segmentType = line;
smooth = 0;
x = 167;
y = 1522;
},
{
segmentType = line;
smooth = 0;
x = 167;
y = 1434;
},
{
segmentType = line;
smooth = 0;
x = 369;
y = 1407;
},
{
segmentType = line;
smooth = 0;
x = 335;
y = 1444;
},
{
segmentType = line;
smooth = 0;
x = 335;
y = 92;
},
{
segmentType = line;
smooth = 0;
x = 384;
y = 113;
},
{
segmentType = line;
smooth = 0;
x = 161;
y = 88;
}
);
}
);
lib = {
};
name = H;
unicodes = (
);
width = 1762;
};
};
};
},
{
color = 8;
glyphname = I;
lastChange = "2020-03-12 12:45:51 +0000";
layers = (
{
anchors = (
{
name = btm;
position = "{121, 0}";
},
{
name = top;
position = "{191, 568}";
}
);
background = {
anchors = (
{
name = btm;
position = "{121, 0}";
},
{
name = top;
position = "{191, 568}";
}
);
paths = (
{
closed = 1;
nodes = (
"151 0 LINE",
"221 568 LINE",
"159 568 LINE",
"89 0 LINE"
);
}
);
};
hints = (
{
origin = "{0, 3}";
type = Corner;
name = _corner.LeftSerif;
},
{
origin = "{0, 1}";
type = Corner;
name = _corner.LeftSerif;
},
{
origin = "{0, 0}";
type = Corner;
name = _corner.RightSerif;
options = 1;
},
{
origin = "{0, 2}";
type = Corner;
name = _corner.RightSerif;
options = 1;
}
);
layerId = "DAAEA780-4710-4479-B303-5C05B40621B2";
paths = (
{
closed = 1;
nodes = (
"151 0 LINE",
"221 568 LINE",
"159 568 LINE",
"89 0 LINE"
);
}
);
width = 291;
},
{
anchors = (
{
name = btm;
position = "{181, 0}";
},
{
name = top;
position = "{242, 568}";
}
);
background = {
anchors = (
{
name = btm;
position = "{181, 0}";
},
{
name = top;
position = "{242, 568}";
}
);
paths = (
{
closed = 1;
nodes = (
"214 0 LINE",
"284 567 LINE",
"148 568 LINE",
"78 0 LINE"
);
}
);
};
hints = (
{
origin = "{0, 3}";
type = Corner;
name = _corner.LeftSerif;
},
{
origin = "{0, 0}";
type = Corner;
name = _corner.RightSerif;
},
{
origin = "{0, 2}";
type = Corner;
name = _corner.RightSerif;
},
{
origin = "{0, 1}";
type = Corner;
name = _corner.LeftSerif;
}
);
layerId = "925CB40E-795E-477B-BAE7-1EE7D58841B5";
paths = (
{
closed = 1;
nodes = (
"214 0 LINE",
"285 567 LINE",
"149 568 LINE",
"78 0 LINE"
);
}
);
width = 344;
}
);
leftKerningGroup = H;
rightKerningGroup = H;
rightMetricsKey = "=|";
unicode = 0049;
userData = {
com.schriftgestaltung.Glyphs.rightMetricsKey = "=|";
com.typemytype.robofont.layerData = {
background = {
anchors = (
{
name = btm;
x = 423;
y = -170;
},
{
name = top;
x = 423;
y = 1700;
}
);
components = (
);
contours = (
{
points = (
{
segmentType = line;
smooth = 0;
x = 135;
y = 0;
},
{
segmentType = line;
smooth = 0;
x = 704;
y = 0;
},
{
segmentType = line;
smooth = 0;
x = 704;
y = 87;
},
{
segmentType = line;
smooth = 0;
x = 468;
y = 111;
},
{
segmentType = line;
smooth = 0;
x = 505;
y = 59;
},
{
segmentType = line;
smooth = 0;
x = 505;
y = 1452;
},
{
segmentType = line;
smooth = 0;
x = 474;
y = 1409;
},
{
segmentType = line;
smooth = 0;
x = 704;
y = 1434;
},
{
segmentType = line;
smooth = 0;
x = 704;
y = 1522;
},
{
segmentType = line;
smooth = 0;
x = 135;
y = 1522;
},
{
segmentType = line;
smooth = 0;
x = 135;
y = 1434;
},
{
segmentType = line;
smooth = 0;
x = 374;
y = 1407;
},
{
segmentType = line;
smooth = 0;
x = 335;
y = 1452;
},
{
segmentType = line;
smooth = 0;
x = 335;
y = 59;
},
{
segmentType = line;
smooth = 0;
x = 371;
y = 111;
},
{
segmentType = line;
smooth = 0;
x = 135;
y = 88;
}
);
}
);
lib = {
};
name = I;
unicodes = (
);
width = 792;
};
};
};
},
{
color = 8;
glyphname = J;
lastChange = "2020-03-11 19:46:59 +0000";
layers = (
{
anchors = (
{
name = btm;
position = "{80, 0}";
},
{
name = top;
position = "{184, 568}";
}
);
background = {
anchors = (
{
name = btm;
position = "{80, 0}";
},
{
name = top;
position = "{184, 568}";
}
);
paths = (
{
closed = 1;
nodes = (
"236 524 CURVE SMOOTH",
"288 536 LINE",
"292 568 LINE",
"81 568 LINE",
"77 536 LINE",
"135 524 LINE SMOOTH",
"146 522 OFFCURVE",
"152 513 OFFCURVE",
"151 501 CURVE SMOOTH",
"108 149 LINE SMOOTH",
"91 13 OFFCURVE",
"64 -32 OFFCURVE",
"-34 -102 CURVE",
"-20 -132 LINE",
"130 -60 OFFCURVE",
"150 -5 OFFCURVE",
"171 163 CURVE SMOOTH",
"213 501 LINE SMOOTH",
"215 514 OFFCURVE",
"222 521 OFFCURVE"
);
}
);
};
hints = (
{
origin = "{0, 0}";
type = Corner;
name = _corner.RightSerif;
},
{
origin = "{0, 9}";
scale = "{0.9, 1}";
type = Corner;
name = _corner.LeftSerif;
}
);
layerId = "DAAEA780-4710-4479-B303-5C05B40621B2";
paths = (
{
closed = 1;
nodes = (
"160 568 LINE",
"108 149 LINE SMOOTH",
"93 29 OFFCURVE",
"70 -39 OFFCURVE",
"-34 -102 CURVE",
"-20 -132 LINE",
"136 -69 OFFCURVE",
"153 6 OFFCURVE",
"172 163 CURVE SMOOTH",
"222 568 LINE"
);
}
);
width = 276;
},
{
anchors = (
{
name = btm;
position = "{103, 0}";
},
{
name = top;
position = "{207, 568}";
}
);
background = {
anchors = (
{
name = btm;
position = "{103, 0}";
},
{
name = top;
position = "{207, 568}";
}
);
paths = (
{
closed = 1;
nodes = (
"292 502 CURVE SMOOTH",
"343 513 LINE",
"349 568 LINE",
"72 568 LINE",
"66 513 LINE",
"120 502 LINE SMOOTH",
"131 500 OFFCURVE",
"136 493 OFFCURVE",
"135 481 CURVE SMOOTH",
"89 111 LINE SMOOTH",
"74 -9 OFFCURVE",
"55 -48 OFFCURVE",
"-49 -99 CURVE",
"-32 -154 LINE",
"159 -106 OFFCURVE",
"208 -41 OFFCURVE",
"229 128 CURVE SMOOTH",
"273 481 LINE SMOOTH",
"274 493 OFFCURVE",
"281 500 OFFCURVE"
);
}
);
};
hints = (
{
origin = "{0, 0}";
type = Corner;
name = _corner.RightSerif;
},
{
origin = "{0, 9}";
type = Corner;
name = _corner.LeftSerif;
}
);
layerId = "925CB40E-795E-477B-BAE7-1EE7D58841B5";
paths = (
{
closed = 1;
nodes = (
"146 568 LINE",
"89 112 LINE SMOOTH",
"75 0 OFFCURVE",
"53 -54 OFFCURVE",
"-48 -101 CURVE",
"-33 -154 LINE",
"186 -107 OFFCURVE",
"209 -12 OFFCURVE",
"227 129 CURVE SMOOTH",
"282 568 LINE"
);
}
);
width = 326;
}
);
leftKerningGroup = J;
rightKerningGroup = J;
unicode = 004A;
userData = {
com.typemytype.robofont.layerData = {
background = {
anchors = (
{
name = btm;
x = 294;
y = -170;
},
{
name = top;
x = 390;
y = 1700;
}
);
components = (
);
contours = (
{
points = (
{
segmentType = line;
smooth = 0;
x = 42;
y = -354;
},
{
smooth = 0;
x = 219;
y = -321;
},
{
smooth = 0;
x = 413;
y = -192;
},
{
segmentType = curve;
smooth = 1;
x = 460;
y = 43;
},
{
smooth = 0;
x = 485;
y = 169;
},
{
smooth = 0;
x = 482;
y = 336;
},
{
segmentType = curve;
smooth = 1;
x = 482;
y = 563;
},
{
segmentType = line;
smooth = 0;
x = 482;
y = 1457;
},
{
segmentType = line;
smooth = 0;
x = 427;
y = 1404;
},
{
segmentType = line;
smooth = 0;
x = 677;
y = 1434;
},
{
segmentType = line;
smooth = 0;
x = 677;
y = 1522;
},
{
segmentType = line;
smooth = 0;
x = 107;
y = 1522;
},
{
segmentType = line;
smooth = 0;
x = 107;
y = 1434;
},
{
segmentType = line;
smooth = 0;
x = 369;
y = 1404;
},
{
segmentType = line;
smooth = 0;
x = 312;
y = 1457;
},
{
segmentType = line;
smooth = 0;
x = 312;
y = 518;
},
{
smooth = 0;
x = 312;
y = 212;
},
{
smooth = 0;
x = 307;
y = 99;
},
{
segmentType = curve;
smooth = 1;
x = 270;
y = -18;
},
{
smooth = 0;
x = 227;
y = -156;
},
{
smooth = 0;
x = 119;
y = -248;
},
{
segmentType = curve;
smooth = 0;
x = -3;
y = -281;
}
);
}
);
lib = {
};
name = J;
unicodes = (
);
width = 738;
};
};
};
},
{
color = 4;
glyphname = K;
lastChange = "2020-03-11 20:17:07 +0000";
layers = (
{
anchors = (
{
name = btm;
position = "{286, 0}";
},
{
name = top;
position = "{336, 568}";
}
);
background = {
anchors = (
{
name = btm;
position = "{286, 0}";
},
{
name = top;
position = "{336, 568}";
}
);
paths = (
{
closed = 1;
nodes = (
"235 0 LINE",
"239 32 LINE",
"177 43 LINE SMOOTH",
"164 45 OFFCURVE",
"157 52 OFFCURVE",
"159 66 CURVE SMOOTH",
"213 501 LINE SMOOTH",
"215 514 OFFCURVE",
"222 521 OFFCURVE",
"235 524 CURVE SMOOTH",
"295 536 LINE",
"299 568 LINE",
"81 568 LINE",
"77 536 LINE",
"133 524 LINE SMOOTH",
"146 521 OFFCURVE",
"153 515 OFFCURVE",
"151 501 CURVE SMOOTH",
"97 66 LINE SMOOTH",
"95 52 OFFCURVE",
"88 46 OFFCURVE",
"74 43 CURVE SMOOTH",
"15 32 LINE",
"11 0 LINE"
);
},
{
closed = 1;
nodes = (
"293 310 LINE",
"501 511 LINE SMOOTH",
"510 519 OFFCURVE",
"517 521 OFFCURVE",
"528 524 CURVE SMOOTH",
"579 536 LINE",
"583 568 LINE",
"395 568 LINE",
"391 536 LINE",
"455 522 LINE",
"161 231 LINE",
"155 177 LINE"
);
},
{
closed = 1;
nodes = (
"530 0 LINE",
"534 32 LINE",
"493 42 LINE SMOOTH",
"477 46 OFFCURVE",
"470 51 OFFCURVE",
"459 72 CURVE SMOOTH",
"382 222 LINE SMOOTH",
"351 282 OFFCURVE",
"332 319 OFFCURVE",
"309 347 CURVE",
"263 304 LINE",
"281 275 OFFCURVE",
"299 242 OFFCURVE",
"318 200 CURVE SMOOTH",
"371 83 LINE SMOOTH",
"395 30 OFFCURVE",
"414 0 OFFCURVE",
"429 0 CURVE SMOOTH"
);
}
);
};
hints = (
{
origin = "{0, 2}";
type = Corner;
name = _corner.RightSerif;
},
{
origin = "{0, 3}";
type = Corner;
name = _corner.LeftSerif;
},
{
origin = "{0, 0}";
scale = "{1.04, 1}";
type = Corner;
name = _corner.RightSerif;
},
{
origin = "{0, 1}";
type = Corner;
name = _corner.LeftSerif;
}
);
layerId = "DAAEA780-4710-4479-B303-5C05B40621B2";
paths = (
{
closed = 1;
nodes = (
"151 0 LINE",
"221 568 LINE",
"159 568 LINE",
"89 0 LINE"
);
},
{
closed = 1;
nodes = (
"521 0 LINE",
"525 31 LINE",
"490 40 LINE SMOOTH",
"461 48 OFFCURVE",
"449 49 OFFCURVE",
"421 97 CURVE SMOOTH",
"387 154 OFFCURVE",
"348 253 OFFCURVE",
"321 365 CURVE",
"273 314 LINE",
"292 233 OFFCURVE",
"321 138 OFFCURVE",
"357 69 CURVE SMOOTH",
"392 2 OFFCURVE",
"415 0 OFFCURVE",
"417 0 CURVE SMOOTH"
);
},
{
closed = 1;
nodes = (
"287 308 LINE",
"478 511 LINE SMOOTH",
"484 518 OFFCURVE",
"493 521 OFFCURVE",
"505 524 CURVE SMOOTH",
"556 536 LINE",
"560 568 LINE",
"377 568 LINE",
"373 536 LINE",
"437 522 LINE",
"162 226 LINE",
"155 172 LINE"
);
}
);
width = 554;
},
{
anchors = (
{
name = btm;
position = "{328, 0}";
},
{
name = top;
position = "{372, 568}";
}
);
background = {
anchors = (
{
name = btm;
position = "{328, 0}";
},
{
name = top;
position = "{372, 568}";
}
);
paths = (
{
closed = 1;
nodes = (
"286 0 LINE",
"293 52 LINE",
"238 62 LINE SMOOTH",
"226 64 OFFCURVE",
"221 70 OFFCURVE",
"222 81 CURVE SMOOTH",
"271 481 LINE SMOOTH",
"272 493 OFFCURVE",
"280 500 OFFCURVE",
"291 502 CURVE SMOOTH",
"349 513 LINE",
"356 568 LINE",
"71 568 LINE",
"64 513 LINE",
"120 502 LINE SMOOTH",
"131 500 OFFCURVE",
"135 493 OFFCURVE",
"134 481 CURVE SMOOTH",
"85 83 LINE SMOOTH",
"84 72 OFFCURVE",
"77 65 OFFCURVE",
"66 63 CURVE SMOOTH",
"8 52 LINE",
"1 0 LINE"
);
},
{
closed = 1;
nodes = (
"340 292 LINE",
"539 491 LINE SMOOTH",
"546 498 OFFCURVE",
"554 500 OFFCURVE",
"563 502 CURVE SMOOTH",
"622 513 LINE",
"629 568 LINE",
"405 568 LINE",
"398 513 LINE",
"462 502 LINE",
"225 251 LINE",
"214 163 LINE"
);
},
{
closed = 1;
nodes = (
"574 0 LINE",
"581 52 LINE",
"548 61 LINE SMOOTH",
"531 66 OFFCURVE",
"527 76 OFFCURVE",
"523 86 CURVE SMOOTH",
"461 236 LINE SMOOTH",
"435 298 OFFCURVE",
"420 332 OFFCURVE",
"384 375 CURVE",
"288 276 LINE",
"304 252 OFFCURVE",
"313 227 OFFCURVE",
"332 173 CURVE SMOOTH",
"367 72 LINE SMOOTH",
"382 29 OFFCURVE",
"394 0 OFFCURVE",
"415 0 CURVE SMOOTH"
);
}
);
};
hints = (
{
origin = "{0, 0}";
type = Corner;
name = _corner.RightSerif;
},
{
origin = "{0, 1}";
type = Corner;
name = _corner.LeftSerif;
},
{
origin = "{0, 2}";
type = Corner;
name = _corner.RightSerif;
},
{
origin = "{0, 3}";
type = Corner;
name = _corner.LeftSerif;
}
);
layerId = "925CB40E-795E-477B-BAE7-1EE7D58841B5";
paths = (
{
closed = 1;
nodes = (
"211 0 LINE",
"281 567 LINE",
"146 568 LINE",
"76 0 LINE"
);
},
{
closed = 1;
nodes = (
"571 0 LINE",
"577 48 LINE",
"542 57 LINE SMOOTH",
"524 62 OFFCURVE",
"515 62 OFFCURVE",
"495 93 CURVE SMOOTH",
"463 142 OFFCURVE",
"417 273 OFFCURVE",
"396 384 CURVE",
"291 284 LINE",
"304 202 OFFCURVE",
"322 127 OFFCURVE",
"345 69 CURVE SMOOTH",
"372 0 OFFCURVE",
"393 0 OFFCURVE",
"404 0 CURVE SMOOTH"
);
},
{
closed = 1;
nodes = (
"334 289 LINE",
"527 492 LINE SMOOTH",
"533 499 OFFCURVE",
"540 500 OFFCURVE",
"550 502 CURVE SMOOTH",
"610 513 LINE",
"617 568 LINE",
"398 568 LINE",
"392 513 LINE",
"455 502 LINE",
"219 248 LINE",
"206 160 LINE"
);
}
);
width = 598;
}
);
leftKerningGroup = H;
leftMetricsKey = H;
rightKerningGroup = K;
unicode = 004B;
userData = {
com.typemytype.robofont.layerData = {
background = {
anchors = (
{
name = btm;
x = 788;
y = -170;
},
{
name = top;
x = 760;
y = 1700;
}
);
components = (
);
contours = (
{
points = (
{
segmentType = line;
smooth = 0;
x = 109;
y = 0;
},
{
segmentType = line;
smooth = 0;
x = 646;
y = 0;
},
{
segmentType = line;
smooth = 0;
x = 646;
y = 85;
},
{
segmentType = line;
smooth = 0;
x = 419;
y = 111;
},
{
segmentType = line;
smooth = 0;
x = 453;
y = 68;
},
{
segmentType = line;
smooth = 0;
x = 453;
y = 630;
},
{
segmentType = line;
smooth = 0;
x = 398;
y = 458;
},
{
segmentType = line;
smooth = 0;
x = 706;
y = 808;
},
{
segmentType = line;
smooth = 0;
x = 750;
y = 858;
},
{
segmentType = line;
smooth = 0;
x = 1289;
y = 1460;
},
{
segmentType = line;
smooth = 0;
x = 1217;
y = 1408;
},
{
segmentType = line;
smooth = 0;
x = 1394;
y = 1434;
},
{
segmentType = line;
smooth = 0;
x = 1394;
y = 1522;
},
{
segmentType = line;
smooth = 0;
x = 920;
y = 1522;
},
{
segmentType = line;
smooth = 0;
x = 920;
y = 1434;
},
{
segmentType = line;
smooth = 0;
x = 1120;
y = 1409;
},
{
segmentType = line;
smooth = 0;
x = 1134;
y = 1460;
},
{
segmentType = line;
smooth = 0;
x = 453;
y = 666;
},
{
segmentType = line;
smooth = 0;
x = 453;
y = 1457;
},
{
segmentType = line;
smooth = 0;
x = 426;
y = 1408;
},
{
segmentType = line;
smooth = 0;
x = 629;
y = 1434;
},
{
segmentType = line;
smooth = 0;
x = 629;
y = 1522;
},
{
segmentType = line;
smooth = 0;
x = 113;
y = 1522;
},
{
segmentType = line;
smooth = 0;
x = 113;
y = 1434;
},
{
segmentType = line;
smooth = 0;
x = 304;
y = 1409;
},
{
segmentType = line;
smooth = 0;
x = 284;
y = 1457;
},
{
segmentType = line;
smooth = 0;
x = 284;
y = 74;
},
{
segmentType = line;
smooth = 0;
x = 314;
y = 111;
},
{
segmentType = line;
smooth = 0;
x = 109;
y = 88;
}
);
},
{
points = (
{
segmentType = line;
smooth = 0;
x = 1460;
y = 0;
},
{
segmentType = line;
smooth = 0;
x = 1460;
y = 85;
},
{
segmentType = line;
smooth = 0;
x = 1364;
y = 108;
},
{
smooth = 0;
x = 1277;
y = 119;
},
{
smooth = 0;
x = 967;
y = 733;
},
{
segmentType = curve;
smooth = 0;
x = 761;
y = 897;
},
{
segmentType = line;
smooth = 0;
x = 702;
y = 856;
},
{
segmentType = line;
smooth = 0;
x = 647;
y = 799;
},
{
smooth = 0;
x = 842;
y = 636;
},
{
smooth = 0;
x = 1103;
y = 0;
},
{
segmentType = curve;
smooth = 0;
x = 1215;
y = 0;
}
);
}
);
lib = {
};
name = K;
unicodes = (
);
width = 1519;
};
};
};
},
{
color = 8;
glyphname = L;
lastChange = "2020-03-12 12:45:58 +0000";
layers = (
{
anchors = (
{
name = btm;
position = "{239, 0}";
},
{
name = top;
position = "{216, 568}";
},
{
name = topright;
position = "{274, 333}";
}
);
background = {
anchors = (
{
name = btm;
position = "{239, 0}";
},
{
name = top;
position = "{216, 568}";
},
{
name = topright;
position = "{274, 333}";
}
);
paths = (
{
closed = 1;
nodes = (
"383 69 LINE SMOOTH",
"378 58 OFFCURVE",
"371 52 OFFCURVE",
"359 48 CURVE SMOOTH",
"339 41 OFFCURVE",
"309 39 OFFCURVE",
"273 39 CURVE SMOOTH",
"156 39 LINE",
"213 501 LINE SMOOTH",
"215 514 OFFCURVE",
"222 522 OFFCURVE",
"235 524 CURVE SMOOTH",
"313 536 LINE",
"317 568 LINE",
"81 568 LINE",
"77 536 LINE",
"135 525 LINE SMOOTH",
"147 523 OFFCURVE",
"153 514 OFFCURVE",
"151 501 CURVE SMOOTH",
"97 65 LINE SMOOTH",
"95 52 OFFCURVE",
"89 44 OFFCURVE",
"75 42 CURVE SMOOTH",
"15 32 LINE",
"11 0 LINE",
"420 0 LINE",
"436 48 OFFCURVE",
"448 108 OFFCURVE",
"455 157 CURVE",
"424 161 LINE"
);
}
);
};
hints = (
{
origin = "{0, 15}";
type = Corner;
name = _corner.LeftSerif;
},
{
origin = "{0, 14}";
type = Corner;
name = _corner.RightSerif;
}
);
layerId = "DAAEA780-4710-4479-B303-5C05B40621B2";
paths = (
{
closed = 1;
nodes = (
"352 69 LINE SMOOTH",
"348 60 OFFCURVE",
"346 53 OFFCURVE",
"330 48 CURVE SMOOTH",
"311 42 OFFCURVE",
"281 39 OFFCURVE",
"245 39 CURVE SMOOTH",
"156 39 LINE",
"212 493 LINE SMOOTH",
"215 519 OFFCURVE",
"224 523 OFFCURVE",
"240 526 CURVE SMOOTH",
"307 536 LINE",
"311 568 LINE",
"159 568 LINE",
"89 0 LINE",
"395 0 LINE",
"404 36 OFFCURVE",
"418 107 OFFCURVE",
"421 157 CURVE",
"388 161 LINE"
);
}
);
width = 453;
},
{
anchors = (
{
name = btm;
position = "{254, 0}";
},
{
name = top;
position = "{265, 568}";
},
{
name = topright;
position = "{334, 333}";
}
);
background = {
anchors = (
{
name = btm;
position = "{254, 0}";
},
{
name = top;
position = "{265, 568}";
},
{
name = topright;
position = "{334, 333}";
}
);
paths = (
{
closed = 1;
nodes = (
"378 93 LINE SMOOTH",
"372 80 OFFCURVE",
"364 73 OFFCURVE",
"354 69 CURVE SMOOTH",
"340 63 OFFCURVE",
"316 60 OFFCURVE",
"286 60 CURVE SMOOTH",
"223 60 LINE",
"275 481 LINE SMOOTH",
"276 492 OFFCURVE",
"283 499 OFFCURVE",
"295 501 CURVE SMOOTH",
"371 513 LINE",
"378 568 LINE",
"74 568 LINE",
"67 513 LINE",
"123 502 LINE SMOOTH",
"134 500 OFFCURVE",
"138 493 OFFCURVE",
"137 482 CURVE SMOOTH",
"88 83 LINE SMOOTH",
"87 72 OFFCURVE",
"80 65 OFFCURVE",
"69 63 CURVE SMOOTH",
"11 52 LINE",
"4 0 LINE",
"456 0 LINE",
"480 70 OFFCURVE",
"488 139 OFFCURVE",
"496 201 CURVE",
"428 210 LINE"
);
}
);
};
hints = (
{
origin = "{0, 14}";
type = Corner;
name = _corner.RightSerif;
},
{
origin = "{0, 15}";
type = Corner;
name = _corner.LeftSerif;
}
);
layerId = "925CB40E-795E-477B-BAE7-1EE7D58841B5";
paths = (
{
closed = 1;
nodes = (
"357 95 LINE SMOOTH",
"350 78 OFFCURVE",
"342 69 OFFCURVE",
"328 65 CURVE SMOOTH",
"311 60 OFFCURVE",
"290 59 OFFCURVE",
"264 59 CURVE SMOOTH",
"222 59 LINE",
"274 483 LINE SMOOTH",
"277 504 OFFCURVE",
"289 505 OFFCURVE",
"300 507 CURVE SMOOTH",
"361 516 LINE",
"367 568 LINE",
"149 568 LINE",
"78 0 LINE",
"437 0 LINE",
"456 63 OFFCURVE",
"465 135 OFFCURVE",
"468 200 CURVE",
"403 209 LINE"
);
}
);
width = 486;
}
);
leftKerningGroup = H;
leftMetricsKey = H;
rightKerningGroup = L;
unicode = 004C;
userData = {
com.typemytype.robofont.layerData = {
background = {
anchors = (
{
name = btm;
x = 695;
y = -170;
},
{
name = top;
x = 577;
y = 1700;
}
);
components = (
);
contours = (
{
points = (
{
segmentType = line;
smooth = 0;
x = 109;
y = 0;
},
{
segmentType = line;
smooth = 0;
x = 1174;
y = 0;
},
{
segmentType = line;
smooth = 0;
x = 1249;
y = 426;
},
{
segmentType = line;
smooth = 0;
x = 1151;
y = 443;
},
{
segmentType = line;
smooth = 0;
x = 1036;
y = 122;
},
{
segmentType = line;
smooth = 0;
x = 407;
y = 106;
},
{
segmentType = line;
smooth = 0;
x = 453;
y = 50;
},
{
segmentType = line;
smooth = 0;
x = 453;
y = 1459;
},
{
segmentType = line;
smooth = 0;
x = 434;
y = 1410;
},
{
segmentType = line;
smooth = 0;
x = 657;
y = 1434;
},
{
segmentType = line;
smooth = 0;
x = 657;
y = 1522;
},
{
segmentType = line;
smooth = 0;
x = 113;
y = 1522;
},
{
segmentType = line;
smooth = 0;
x = 113;
y = 1434;
},
{
segmentType = line;
smooth = 0;
x = 304;
y = 1409;
},
{
segmentType = line;
smooth = 0;
x = 284;
y = 1459;
},
{
segmentType = line;
smooth = 0;
x = 284;
y = 58;
},
{
segmentType = line;
smooth = 0;
x = 327;
y = 112;
},
{
segmentType = line;
smooth = 0;
x = 109;
y = 88;
}
);
}
);
lib = {
};
name = L;
unicodes = (
);
width = 1310;
};
};
};
},
{
glyphname = M;
lastChange = "2020-02-21 16:30:30 +0000";
layers = (
{
anchors = (
{
name = btm;
position = "{389, 0}";
},
{
name = top;
position = "{463, 568}";
}
);
background = {
anchors = (
{
name = btm;
position = "{389, 0}";
},
{
name = top;
position = "{463, 568}";
}
);
paths = (
{
closed = 1;
nodes = (
"678 499 LINE SMOOTH",
"677 512 OFFCURVE",
"684 521 OFFCURVE",
"699 524 CURVE SMOOTH",
"768 536 LINE",
"772 568 LINE",
"596 568 LINE",
"390 82 LINE",
"419 82 LINE",
"314 568 LINE",
"139 568 LINE",
"135 536 LINE",
"200 524 LINE SMOOTH",
"213 522 OFFCURVE",
"219 512 OFFCURVE",
"216 500 CURVE SMOOTH",
"108 65 LINE SMOOTH",
"104 49 OFFCURVE",
"95 44 OFFCURVE",
"85 42 CURVE SMOOTH",
"29 32 LINE",
"25 0 LINE",
"220 0 LINE",
"224 32 LINE",
"152 44 LINE",
"273 547 LINE",
"252 547 LINE",
"371 25 LINE",
"411 25 LINE",
"634 547 LINE",
"612 547 LINE",
"632 44 LINE",
"562 32 LINE",
"558 0 LINE",
"762 0 LINE",
"766 32 LINE",
"713 42 LINE SMOOTH",
"702 44 OFFCURVE",
"696 51 OFFCURVE",
"695 64 CURVE SMOOTH"
);
}
);
};
layerId = "DAAEA780-4710-4479-B303-5C05B40621B2";
paths = (
{
closed = 1;
nodes = (
"678 499 LINE SMOOTH",
"677 512 OFFCURVE",
"684 521 OFFCURVE",
"699 524 CURVE SMOOTH",
"768 536 LINE",
"772 568 LINE",
"596 568 LINE",
"390 82 LINE",
"419 82 LINE",
"314 568 LINE",
"139 568 LINE",
"135 536 LINE",
"200 524 LINE SMOOTH",
"213 522 OFFCURVE",
"219 512 OFFCURVE",
"216 500 CURVE SMOOTH",
"108 65 LINE SMOOTH",
"104 49 OFFCURVE",
"95 44 OFFCURVE",
"85 42 CURVE SMOOTH",
"29 32 LINE",
"25 0 LINE",
"220 0 LINE",
"224 32 LINE",
"152 44 LINE",
"273 547 LINE",
"252 547 LINE",
"371 25 LINE",
"411 25 LINE",
"634 547 LINE",
"612 547 LINE",
"632 44 LINE",
"562 32 LINE",
"558 0 LINE",
"762 0 LINE",
"766 32 LINE",
"713 42 LINE SMOOTH",
"702 44 OFFCURVE",
"696 51 OFFCURVE",
"695 64 CURVE SMOOTH"
);
}
);
width = 779;
},
{
anchors = (
{
name = btm;
position = "{364, 0}";
},
{
name = top;
position = "{486, 568}";
}
);
background = {
anchors = (
{
name = btm;
position = "{364, 0}";
},
{
name = top;
position = "{486, 568}";
}
);
paths = (
{
closed = 1;
nodes = (
"752 480 LINE SMOOTH",
"752 492 OFFCURVE",
"757 499 OFFCURVE",
"771 502 CURVE SMOOTH",
"837 513 LINE",
"844 568 LINE",
"580 568 LINE",
"418 118 LINE",
"454 118 LINE",
"393 568 LINE",
"129 568 LINE",
"122 513 LINE",
"183 502 LINE SMOOTH",
"194 500 OFFCURVE",
"198 492 OFFCURVE",
"196 480 CURVE SMOOTH",
"99 84 LINE SMOOTH",
"96 73 OFFCURVE",
"90 67 OFFCURVE",
"79 64 CURVE SMOOTH",
"21 52 LINE",
"15 0 LINE",
"241 0 LINE",
"247 52 LINE",
"170 63 LINE",
"282 537 LINE",
"258 537 LINE",
"341 20 LINE",
"451 20 LINE",
"638 536 LINE",
"618 536 LINE",
"623 63 LINE",
"555 52 LINE",
"549 0 LINE",
"823 0 LINE",
"829 52 LINE",
"777 64 LINE SMOOTH",
"767 66 OFFCURVE",
"762 72 OFFCURVE",
"761 84 CURVE SMOOTH"
);
}
);
};
layerId = "925CB40E-795E-477B-BAE7-1EE7D58841B5";
paths = (
{
closed = 1;
nodes = (
"752 480 LINE SMOOTH",
"752 492 OFFCURVE",
"757 499 OFFCURVE",
"771 502 CURVE SMOOTH",
"837 513 LINE",
"844 568 LINE",
"580 568 LINE",
"418 118 LINE",
"454 118 LINE",
"393 568 LINE",
"129 568 LINE",
"122 513 LINE",
"183 502 LINE SMOOTH",
"194 500 OFFCURVE",
"198 492 OFFCURVE",
"196 480 CURVE SMOOTH",
"99 84 LINE SMOOTH",
"96 73 OFFCURVE",
"90 67 OFFCURVE",
"79 64 CURVE SMOOTH",
"21 52 LINE",
"15 0 LINE",
"241 0 LINE",
"247 52 LINE",
"170 63 LINE",
"282 537 LINE",
"258 537 LINE",
"341 20 LINE",
"451 20 LINE",
"638 536 LINE",
"618 536 LINE",
"623 63 LINE",
"555 52 LINE",
"549 0 LINE",
"823 0 LINE",
"829 52 LINE",
"777 64 LINE SMOOTH",
"767 66 OFFCURVE",
"762 72 OFFCURVE",
"761 84 CURVE SMOOTH"
);
}
);
width = 835;
}
);
unicode = 004D;
userData = {
com.typemytype.robofont.layerData = {
background = {
anchors = (
{
name = btm;
x = 1069;
y = -170;
},
{
name = top;
x = 1078;
y = 1700;
}
);
components = (
);
contours = (
{
points = (
{
segmentType = line;
smooth = 0;
x = 78;
y = 0;
},
{
segmentType = line;
smooth = 0;
x = 595;
y = 0;
},
{
segmentType = line;
smooth = 0;
x = 595;
y = 88;
},
{
segmentType = line;
smooth = 0;
x = 348;
y = 111;
},
{
segmentType = line;
smooth = 0;
x = 388;
y = 57;
},
{
segmentType = line;
smooth = 0;
x = 486;
y = 1041;
},
{
segmentType = line;
smooth = 0;
x = 534;
y = 1498;
},
{
segmentType = line;
smooth = 0;
x = 514;
y = 1498;
},
{
segmentType = line;
smooth = 0;
x = 657;
y = 1053;
},
{
segmentType = line;
smooth = 0;
x = 1041;
y = 74;
},
{
segmentType = line;
smooth = 0;
x = 1113;
y = 74;
},
{
segmentType = line;
smooth = 0;
x = 1450;
y = 1167;
},
{
segmentType = line;
smooth = 0;
x = 1542;
y = 1477;
},
{
segmentType = line;
smooth = 0;
x = 1531;
y = 1477;
},
{
segmentType = line;
smooth = 0;
x = 1587;
y = 1040;
},
{
segmentType = line;
smooth = 0;
x = 1744;
y = 47;
},
{
segmentType = line;
smooth = 0;
x = 1772;
y = 111;
},
{
segmentType = line;
smooth = 0;
x = 1545;
y = 88;
},
{
segmentType = line;
smooth = 0;
x = 1545;
y = 0;
},
{
segmentType = line;
smooth = 0;
x = 2091;
y = 0;
},
{
segmentType = line;
smooth = 0;
x = 2091;
y = 88;
},
{
segmentType = line;
smooth = 0;
x = 1883;
y = 111;
},
{
segmentType = line;
smooth = 0;
x = 1918;
y = 48;
},
{
segmentType = line;
smooth = 0;
x = 1689;
y = 1411;
},
{
segmentType = line;
smooth = 0;
x = 1924;
y = 1434;
},
{
segmentType = line;
smooth = 0;
x = 1924;
y = 1522;
},
{
segmentType = line;
smooth = 0;
x = 1448;
y = 1522;
},
{
segmentType = line;
smooth = 0;
x = 1151;
y = 576;
},
{
segmentType = line;
smooth = 0;
x = 1061;
y = 179;
},
{
segmentType = line;
smooth = 0;
x = 1124;
y = 179;
},
{
segmentType = line;
smooth = 0;
x = 1011;
y = 576;
},
{
segmentType = line;
smooth = 0;
x = 666;
y = 1522;
},
{
segmentType = line;
smooth = 0;
x = 187;
y = 1522;
},
{
segmentType = line;
smooth = 0;
x = 187;
y = 1434;
},
{
segmentType = line;
smooth = 0;
x = 419;
y = 1412;
},
{
segmentType = line;
smooth = 0;
x = 251;
y = 56;
},
{
segmentType = line;
smooth = 0;
x = 294;
y = 111;
},
{
segmentType = line;
smooth = 0;
x = 78;
y = 88;
}
);
}
);
lib = {
};
name = M;
unicodes = (
);
width = 2103;
};
};
};
},
{
color = 8;
glyphname = N;
lastChange = "2020-03-12 12:46:08 +0000";
layers = (
{
anchors = (
{
name = btm;
position = "{296, 0}";
},
{
name = top;
position = "{346, 568}";
}
);
background = {
anchors = (
{
name = btm;
position = "{296, 0}";
},
{
name = top;
position = "{346, 568}";
}
);
paths = (
{
closed = 1;
nodes = (
"585 524 CURVE SMOOTH",
"639 536 LINE",
"643 568 LINE",
"445 568 LINE",
"441 536 LINE",
"501 524 LINE SMOOTH",
"514 521 OFFCURVE",
"520 513 OFFCURVE",
"519 501 CURVE SMOOTH",
"466 70 LINE",
"487 75 LINE",
"219 568 LINE",
"80 568 LINE",
"76 536 LINE",
"133 524 LINE SMOOTH",
"145 521 OFFCURVE",
"151 513 OFFCURVE",
"150 501 CURVE SMOOTH",
"96 66 LINE SMOOTH",
"94 53 OFFCURVE",
"88 46 OFFCURVE",
"74 43 CURVE SMOOTH",
"14 32 LINE",
"10 0 LINE",
"219 0 LINE",
"223 32 LINE",
"158 43 LINE SMOOTH",
"146 45 OFFCURVE",
"139 53 OFFCURVE",
"141 66 CURVE SMOOTH",
"196 513 LINE",
"175 510 LINE",
"453 0 LINE",
"502 0 LINE",
"564 501 LINE SMOOTH",
"566 514 OFFCURVE",
"573 521 OFFCURVE"
);
}
);
};
hints = (
{
origin = "{0, 11}";
type = Corner;
name = _corner.LeftSerif;
},
{
origin = "{0, 0}";
scale = "{1.06, 1}";
type = Corner;
name = _corner.RightSerif;
},
{
origin = "{0, 10}";
type = Corner;
name = _corner.RightSerif;
},
{
origin = "{0, 5}";
scale = "{0.9, 1}";
type = Corner;
name = _corner.LeftSerif;
},
{
origin = "{0, 6}";
scale = "{1.01, 1}";
type = Corner;
name = _corner.RightSerif;
}
);
layerId = "DAAEA780-4710-4479-B303-5C05B40621B2";
paths = (
{
closed = 1;
nodes = (
"134 0 LINE",
"198 513 LINE",
"182 511 LINE",
"415 0 LINE",
"471 0 LINE",
"541 568 LINE",
"496 568 LINE",
"435 70 LINE",
"448 74 LINE",
"225 568 LINE",
"159 568 LINE",
"89 0 LINE"
);
}
);
width = 597;
},
{
anchors = (
{
name = btm;
position = "{310, 0}";
},
{
name = top;
position = "{365, 568}";
}
);
background = {
anchors = (
{
name = btm;
position = "{310, 0}";
},
{
name = top;
position = "{365, 568}";
}
);
paths = (
{
closed = 1;
nodes = (
"613 502 CURVE SMOOTH",
"667 513 LINE",
"674 568 LINE",
"451 568 LINE",
"444 513 LINE",
"503 502 LINE SMOOTH",
"514 500 OFFCURVE",
"518 493 OFFCURVE",
"517 481 CURVE SMOOTH",
"475 134 LINE",
"502 136 LINE",
"290 568 LINE",
"74 568 LINE",
"67 513 LINE",
"123 502 LINE SMOOTH",
"134 500 OFFCURVE",
"138 493 OFFCURVE",
"137 481 CURVE SMOOTH",
"88 83 LINE SMOOTH",
"87 72 OFFCURVE",
"80 65 OFFCURVE",
"69 63 CURVE SMOOTH",
"11 52 LINE",
"4 0 LINE",
"237 0 LINE",
"244 52 LINE",
"179 63 LINE SMOOTH",
"168 65 OFFCURVE",
"163 72 OFFCURVE",
"164 83 CURVE SMOOTH",
"211 466 LINE",
"184 464 LINE",
"409 0 LINE",
"534 0 LINE",
"593 481 LINE SMOOTH",
"594 493 OFFCURVE",
"602 500 OFFCURVE"
);
}
);
};
hints = (
{
origin = "{0, 6}";
type = Corner;
name = _corner.RightSerif;
},
{
origin = "{0, 5}";
type = Corner;
name = _corner.LeftSerif;
},
{
origin = "{0, 10}";
type = Corner;
name = _corner.RightSerif;
},
{
origin = "{0, 11}";
type = Corner;
name = _corner.LeftSerif;
},
{
origin = "{0, 0}";
type = Corner;
name = _corner.RightSerif;
}
);
layerId = "925CB40E-795E-477B-BAE7-1EE7D58841B5";
paths = (
{
closed = 1;
nodes = (
"153 0 LINE",
"211 467 LINE",
"188 465 LINE",
"387 0 LINE",
"508 0 LINE",
"579 568 LINE",
"504 568 LINE",
"450 133 LINE",
"471 135 LINE",
"285 568 LINE",
"149 568 LINE",
"78 0 LINE"
);
}
);
width = 621;
}
);
leftKerningGroup = H;
leftMetricsKey = H;
rightKerningGroup = N;
unicode = 004E;
userData = {
com.typemytype.robofont.layerData = {
background = {
anchors = (
{
name = btm;
x = 835;
y = -170;
},
{
name = top;
x = 835;
y = 1700;
}
);
components = (
);
contours = (
{
points = (
{
segmentType = line;
smooth = 0;
x = 115;
y = 0;
},
{
segmentType = line;
smooth = 0;
x = 584;
y = 0;
},
{
segmentType = line;
smooth = 0;
x = 584;
y = 88;
},
{
segmentType = line;
smooth = 0;
x = 380;
y = 109;
},
{
segmentType = line;
smooth = 0;
x = 397;
y = 74;
},
{
segmentType = line;
smooth = 0;
x = 397;
y = 1388;
},
{
segmentType = line;
smooth = 0;
x = 360;
y = 1388;
},
{
segmentType = line;
smooth = 0;
x = 566;
y = 1054;
},
{
segmentType = line;
smooth = 0;
x = 1299;
y = 0;
},
{
segmentType = line;
smooth = 0;
x = 1405;
y = 0;
},
{
segmentType = line;
smooth = 0;
x = 1405;
y = 1446;
},
{
segmentType = line;
smooth = 0;
x = 1380;
y = 1408;
},
{
segmentType = line;
smooth = 0;
x = 1572;
y = 1434;
},
{
segmentType = line;
smooth = 0;
x = 1572;
y = 1522;
},
{
segmentType = line;
smooth = 0;
x = 1106;
y = 1522;
},
{
segmentType = line;
smooth = 0;
x = 1106;
y = 1434;
},
{
segmentType = line;
smooth = 0;
x = 1317;
y = 1407;
},
{
segmentType = line;
smooth = 0;
x = 1286;
y = 1446;
},
{
segmentType = line;
smooth = 0;
x = 1286;
y = 113;
},
{
segmentType = line;
smooth = 0;
x = 1373;
y = 113;
},
{
segmentType = line;
smooth = 0;
x = 1170;
y = 471;
},
{
segmentType = line;
smooth = 0;
x = 445;
y = 1522;
},
{
segmentType = line;
smooth = 0;
x = 115;
y = 1522;
},
{
segmentType = line;
smooth = 0;
x = 115;
y = 1434;
},
{
segmentType = line;
smooth = 0;
x = 320;
y = 1405;
},
{
segmentType = line;
smooth = 0;
x = 278;
y = 1441;
},
{
segmentType = line;
smooth = 0;
x = 278;
y = 74;
},
{
segmentType = line;
smooth = 0;
x = 295;
y = 110;
},
{
segmentType = line;
smooth = 0;
x = 115;
y = 88;
}
);
}
);
lib = {
};
name = N;
unicodes = (
);
width = 1730;
};
};
};
},
{
color = 4;
glyphname = O;
lastChange = "2020-03-12 14:01:10 +0000";
layers = (
{
anchors = (
{
name = btm;
position = "{234, 0}";
},
{
name = top;
position = "{313, 576}";
}
);
background = {
anchors = (
{
name = btm;
position = "{234, 0}";
},
{
name = top;
position = "{313, 576}";
}
);
paths = (
{
closed = 1;
nodes = (
"12 100 OFFCURVE",
"80 -8 OFFCURVE",
"232 -8 CURVE SMOOTH",
"382 -8 OFFCURVE",
"498 101 OFFCURVE",
"521 293 CURVE SMOOTH",
"542 468 OFFCURVE",
"476 576 OFFCURVE",
"323 576 CURVE SMOOTH",
"175 576 OFFCURVE",
"59 470 OFFCURVE",
"34 275 CURVE SMOOTH"
);
},
{
closed = 1;
nodes = (
"125 453 OFFCURVE",
"200 538 OFFCURVE",
"309 538 CURVE SMOOTH",
"425 538 OFFCURVE",
"470 447 OFFCURVE",
"450 285 CURVE SMOOTH",
"429 116 OFFCURVE",
"354 31 OFFCURVE",
"245 31 CURVE SMOOTH",
"130 31 OFFCURVE",
"84 122 OFFCURVE",
"104 284 CURVE SMOOTH"
);
}
);
};
layerId = "DAAEA780-4710-4479-B303-5C05B40621B2";
paths = (
{
closed = 1;
nodes = (
"381 -13 OFFCURVE",
"505 140 OFFCURVE",
"505 352 CURVE SMOOTH",
"505 485 OFFCURVE",
"451 576 OFFCURVE",
"329 576 CURVE SMOOTH",
"173 576 OFFCURVE",
"49 424 OFFCURVE",
"49 212 CURVE SMOOTH",
"49 79 OFFCURVE",
"103 -13 OFFCURVE",
"225 -13 CURVE SMOOTH"
);
},
{
closed = 1;
nodes = (
"164 29 OFFCURVE",
"120 109 OFFCURVE",
"120 229 CURVE SMOOTH",
"120 400 OFFCURVE",
"197 534 OFFCURVE",
"305 534 CURVE SMOOTH",
"390 534 OFFCURVE",
"434 454 OFFCURVE",
"434 334 CURVE SMOOTH",
"434 162 OFFCURVE",
"357 29 OFFCURVE",
"249 29 CURVE SMOOTH"
);
}
);
width = 535;
},
{
anchors = (
{
name = btm;
position = "{257, 0}";
},
{
name = top;
position = "{330, 568}";
}
);
background = {
anchors = (
{
name = btm;
position = "{257, 0}";
},
{
name = top;
position = "{330, 568}";
}
);
paths = (
{
closed = 1;
nodes = (
"248 -12 CURVE SMOOTH",
"422 -12 OFFCURVE",
"528 101 OFFCURVE",
"551 294 CURVE SMOOTH",
"572 470 OFFCURVE",
"510 580 OFFCURVE",
"339 580 CURVE SMOOTH",
"165 580 OFFCURVE",
"59 467 OFFCURVE",
"36 273 CURVE SMOOTH",
"15 97 OFFCURVE",
"77 -12 OFFCURVE"
);
},
{
closed = 1;
nodes = (
"324 523 CURVE SMOOTH",
"394 523 OFFCURVE",
"420 457 OFFCURVE",
"400 289 CURVE SMOOTH",
"379 115 OFFCURVE",
"333 44 OFFCURVE",
"263 44 CURVE SMOOTH",
"193 44 OFFCURVE",
"167 112 OFFCURVE",
"188 280 CURVE SMOOTH",
"210 453 OFFCURVE",
"253 523 OFFCURVE"
);
}
);
};
layerId = "925CB40E-795E-477B-BAE7-1EE7D58841B5";
paths = (
{
closed = 1;
nodes = (
"428 -13 OFFCURVE",
"545 158 OFFCURVE",
"545 352 CURVE SMOOTH",
"545 499 OFFCURVE",
"478 581 OFFCURVE",
"348 581 CURVE SMOOTH",
"160 581 OFFCURVE",
"43 410 OFFCURVE",
"43 216 CURVE SMOOTH",
"43 69 OFFCURVE",
"110 -13 OFFCURVE",
"240 -13 CURVE SMOOTH"
);
},
{
closed = 1;
nodes = (
"213 49 OFFCURVE",
"191 143 OFFCURVE",
"191 238 CURVE SMOOTH",
"191 367 OFFCURVE",
"230 519 OFFCURVE",
"311 519 CURVE SMOOTH",
"375 519 OFFCURVE",
"397 425 OFFCURVE",
"397 330 CURVE SMOOTH",
"397 201 OFFCURVE",
"358 49 OFFCURVE",
"277 49 CURVE SMOOTH"
);
}
);
width = 569;
},
{
anchors = (
{
name = btm;
position = "{244, 0}";
},
{
name = top;
position = "{323, 576}";
}
);
associatedMasterId = "DAAEA780-4710-4479-B303-5C05B40621B2";
background = {
anchors = (
{
name = btm;
position = "{244, 0}";
},
{
name = top;
position = "{323, 576}";
}
);
paths = (
{
closed = 1;
nodes = (
"22 100 OFFCURVE",
"90 -8 OFFCURVE",
"242 -8 CURVE SMOOTH",
"392 -8 OFFCURVE",
"508 101 OFFCURVE",
"531 293 CURVE SMOOTH",
"552 468 OFFCURVE",
"486 576 OFFCURVE",
"333 576 CURVE SMOOTH",
"185 576 OFFCURVE",
"69 470 OFFCURVE",
"44 275 CURVE SMOOTH"
);
},
{
closed = 1;
nodes = (
"135 453 OFFCURVE",
"210 538 OFFCURVE",
"319 538 CURVE SMOOTH",
"435 538 OFFCURVE",
"480 447 OFFCURVE",
"460 285 CURVE SMOOTH",
"439 116 OFFCURVE",
"364 31 OFFCURVE",
"255 31 CURVE SMOOTH",
"140 31 OFFCURVE",
"94 122 OFFCURVE",
"114 284 CURVE SMOOTH"
);
}
);
};
layerId = "F1EBA61A-A301-440E-BFBC-B98A21ECD61C";
name = "Mar 12 20, 14:08";
paths = (
{
closed = 1;
nodes = (
"410 -8 OFFCURVE",
"527 148 OFFCURVE",
"527 337 CURVE SMOOTH",
"527 485 OFFCURVE",
"456 576 OFFCURVE",
"326 576 CURVE SMOOTH",
"163 576 OFFCURVE",
"46 420 OFFCURVE",
"46 227 CURVE SMOOTH",
"46 92 OFFCURVE",
"117 -8 OFFCURVE",
"247 -8 CURVE SMOOTH"
);
},
{
closed = 1;
nodes = (
"165 32 OFFCURVE",
"116 121 OFFCURVE",
"116 232 CURVE SMOOTH",
"116 391 OFFCURVE",
"203 536 OFFCURVE",
"320 536 CURVE SMOOTH",
"408 536 OFFCURVE",
"457 456 OFFCURVE",
"457 340 CURVE SMOOTH",
"457 177 OFFCURVE",
"370 32 OFFCURVE",
"253 32 CURVE SMOOTH"
);
}
);
width = 554;
},
{
anchors = (
{
name = btm;
position = "{263, 0}";
},
{
name = top;
position = "{336, 568}";
}
);
associatedMasterId = "925CB40E-795E-477B-BAE7-1EE7D58841B5";
background = {
anchors = (
{
name = btm;
position = "{263, 0}";
},
{
name = top;
position = "{336, 568}";
}
);
paths = (
{
closed = 1;
nodes = (
"254 -12 CURVE SMOOTH",
"428 -12 OFFCURVE",
"534 101 OFFCURVE",
"557 294 CURVE SMOOTH",
"578 470 OFFCURVE",
"516 580 OFFCURVE",
"345 580 CURVE SMOOTH",
"171 580 OFFCURVE",
"65 467 OFFCURVE",
"42 273 CURVE SMOOTH",
"21 97 OFFCURVE",
"83 -12 OFFCURVE"
);
},
{
closed = 1;
nodes = (
"330 523 CURVE SMOOTH",
"400 523 OFFCURVE",
"426 457 OFFCURVE",
"406 289 CURVE SMOOTH",
"385 115 OFFCURVE",
"339 44 OFFCURVE",
"269 44 CURVE SMOOTH",
"199 44 OFFCURVE",
"173 112 OFFCURVE",
"194 280 CURVE SMOOTH",
"216 453 OFFCURVE",
"259 523 OFFCURVE"
);
}
);
};
layerId = "08D2583D-67F8-4D27-A3AC-66EF2528F3A1";
name = "Mar 12 20, 14:28";
paths = (
{
closed = 1;
nodes = (
"472 -15 OFFCURVE",
"558 159 OFFCURVE",
"558 329 CURVE SMOOTH",
"558 500 OFFCURVE",
"467 582 OFFCURVE",
"330 582 CURVE SMOOTH",
"133 582 OFFCURVE",
"41 414 OFFCURVE",
"41 237 CURVE SMOOTH",
"41 68 OFFCURVE",
"131 -15 OFFCURVE",
"269 -15 CURVE SMOOTH"
);
},
{
closed = 1;
nodes = (
"215 42 OFFCURVE",
"189 102 OFFCURVE",
"189 204 CURVE SMOOTH",
"189 352 OFFCURVE",
"243 524 OFFCURVE",
"333 524 CURVE SMOOTH",
"383 524 OFFCURVE",
"410 469 OFFCURVE",
"410 363 CURVE SMOOTH",
"410 213 OFFCURVE",
"357 42 OFFCURVE",
"268 42 CURVE SMOOTH"
);
}
);
width = 580;
}
);
leftKerningGroup = O;
rightKerningGroup = O;
rightMetricsKey = "=|";
unicode = 004F;
userData = {
com.typemytype.robofont.layerData = {
background = {
anchors = (
{
name = btm;
x = 727;
y = -170;
},
{
name = top;
x = 741;
y = 1700;
}
);
components = (
);
contours = (
{
points = (
{
segmentType = curve;
smooth = 1;
x = 722;
y = -23;
},
{
smooth = 0;
x = 1100;
y = -16;
},
{
smooth = 0;
x = 1398;
y = 292;
},
{
segmentType = curve;
smooth = 1;
x = 1398;
y = 775;
},
{
smooth = 0;
x = 1398;
y = 1234;
},
{
smooth = 0;
x = 1172;
y = 1538;
},
{
segmentType = curve;
smooth = 1;
x = 757;
y = 1538;
},
{
smooth = 0;
x = 377;
y = 1538;
},
{
smooth = 0;
x = 75;
y = 1232;
},
{
segmentType = curve;
smooth = 1;
x = 75;
y = 749;
},
{
smooth = 0;
x = 75;
y = 289;
},
{
smooth = 0;
x = 307;
y = -30;
}
);
},
{
points = (
{
segmentType = curve;
smooth = 1;
x = 740;
y = 1442;
},
{
smooth = 0;
x = 1040;
y = 1442;
},
{
smooth = 0;
x = 1209;
y = 1167;
},
{
segmentType = curve;
smooth = 1;
x = 1209;
y = 774;
},
{
smooth = 0;
x = 1209;
y = 310;
},
{
smooth = 0;
x = 1015;
y = 74;
},
{
segmentType = curve;
smooth = 1;
x = 734;
y = 74;
},
{
smooth = 0;
x = 432;
y = 74;
},
{
smooth = 0;
x = 262;
y = 358;
},
{
segmentType = curve;
smooth = 1;
x = 262;
y = 750;
},
{
smooth = 0;
x = 262;
y = 1214;
},
{
smooth = 0;
x = 456;
y = 1442;
}
);
}
);
lib = {
};
name = O;
unicodes = (
);
width = 1563;
};
};
};
},
{
color = 8;
glyphname = P;
lastChange = "2020-03-12 14:18:28 +0000";
layers = (
{
anchors = (
{
name = btm;
position = "{231, 0}";
},
{
name = top;
position = "{302, 568}";
}
);
background = {
anchors = (
{
name = btm;
position = "{231, 0}";
},
{
name = top;
position = "{302, 568}";
}
);
paths = (
{
closed = 1;
nodes = (
"217 533 LINE",
"238 533 OFFCURVE",
"264 537 OFFCURVE",
"300 537 CURVE SMOOTH",
"398 537 OFFCURVE",
"440 505 OFFCURVE",
"429 415 CURVE SMOOTH",
"414 296 OFFCURVE",
"340 260 OFFCURVE",
"265 260 CURVE SMOOTH",
"226 260 OFFCURVE",
"203 262 OFFCURVE",
"166 264 CURVE",
"163 227 LINE",
"195 225 OFFCURVE",
"227 223 OFFCURVE",
"259 223 CURVE SMOOTH",
"378 223 OFFCURVE",
"481 293 OFFCURVE",
"496 415 CURVE SMOOTH",
"508 515 OFFCURVE",
"469 573 OFFCURVE",
"323 573 CURVE SMOOTH",
"258 573 OFFCURVE",
"242 568 OFFCURVE",
"192 568 CURVE SMOOTH",
"83 568 LINE",
"79 536 LINE",
"139 524 LINE SMOOTH",
"149 522 OFFCURVE",
"153 512 OFFCURVE",
"152 502 CURVE SMOOTH",
"97 65 LINE SMOOTH",
"95 53 OFFCURVE",
"87 45 OFFCURVE",
"75 43 CURVE SMOOTH",
"15 32 LINE",
"11 0 LINE",
"258 0 LINE",
"262 32 LINE",
"175 44 LINE SMOOTH",
"164 46 OFFCURVE",
"158 54 OFFCURVE",
"159 65 CURVE SMOOTH"
);
}
);
};
hints = (
{
origin = "{0, 27}";
type = Corner;
name = _corner.LeftSerif;
},
{
origin = "{0, 26}";
type = Corner;
name = _corner.RightSerif;
options = 1;
}
);
layerId = "DAAEA780-4710-4479-B303-5C05B40621B2";
paths = (
{
closed = 1;
nodes = (
"217 533 LINE",
"234 533 OFFCURVE",
"266 537 OFFCURVE",
"289 537 CURVE SMOOTH",
"363 537 OFFCURVE",
"401 498 OFFCURVE",
"401 422 CURVE SMOOTH",
"401 344 OFFCURVE",
"361 260 OFFCURVE",
"245 260 CURVE SMOOTH",
"221 260 OFFCURVE",
"187 264 OFFCURVE",
"165 267 CURVE",
"161 230 LINE",
"178 228 OFFCURVE",
"213 223 OFFCURVE",
"245 223 CURVE SMOOTH",
"385 223 OFFCURVE",
"471 313 OFFCURVE",
"471 431 CURVE SMOOTH",
"471 521 OFFCURVE",
"413 573 OFFCURVE",
"306 573 CURVE SMOOTH",
"270 573 OFFCURVE",
"212 568 OFFCURVE",
"171 568 CURVE SMOOTH",
"159 568 LINE",
"89 0 LINE",
"254 0 LINE",
"258 32 LINE",
"181 43 LINE SMOOTH",
"167 45 OFFCURVE",
"158 55 OFFCURVE",
"160 71 CURVE SMOOTH"
);
}
);
width = 473;
},
{
anchors = (
{
name = btm;
position = "{247, 0}";
},
{
name = top;
position = "{318, 568}";
}
);
background = {
anchors = (
{
name = btm;
position = "{247, 0}";
},
{
name = top;
position = "{318, 568}";
}
);
paths = (
{
closed = 1;
nodes = (
"279 516 LINE",
"289 517 OFFCURVE",
"297 520 OFFCURVE",
"323 520 CURVE SMOOTH",
"381 520 OFFCURVE",
"407 484 OFFCURVE",
"397 401 CURVE SMOOTH",
"383 288 OFFCURVE",
"342 254 OFFCURVE",
"291 254 CURVE SMOOTH",
"265 254 OFFCURVE",
"253 256 OFFCURVE",
"230 259 CURVE",
"224 204 LINE",
"244 203 OFFCURVE",
"266 201 OFFCURVE",
"289 201 CURVE SMOOTH",
"436 201 OFFCURVE",
"522 277 OFFCURVE",
"538 405 CURVE SMOOTH",
"551 512 OFFCURVE",
"510 572 OFFCURVE",
"344 572 CURVE SMOOTH",
"288 572 OFFCURVE",
"251 568 OFFCURVE",
"219 568 CURVE SMOOTH",
"74 568 LINE",
"67 513 LINE",
"124 501 LINE SMOOTH",
"133 499 OFFCURVE",
"138 492 OFFCURVE",
"137 484 CURVE SMOOTH",
"88 81 LINE SMOOTH",
"87 72 OFFCURVE",
"80 65 OFFCURVE",
"70 63 CURVE SMOOTH",
"10 52 LINE",
"4 0 LINE",
"322 0 LINE",
"328 52 LINE",
"240 64 LINE SMOOTH",
"231 65 OFFCURVE",
"225 72 OFFCURVE",
"226 81 CURVE SMOOTH"
);
}
);
};
hints = (
{
origin = "{0, 27}";
type = Corner;
name = _corner.LeftSerif;
},
{
origin = "{0, 26}";
type = Corner;
name = _corner.RightSerif;
}
);
layerId = "925CB40E-795E-477B-BAE7-1EE7D58841B5";
paths = (
{
closed = 1;
nodes = (
"279 516 LINE",
"290 517 OFFCURVE",
"302 518 OFFCURVE",
"312 518 CURVE SMOOTH",
"357 518 OFFCURVE",
"381 488 OFFCURVE",
"381 420 CURVE SMOOTH",
"381 345 OFFCURVE",
"353 254 OFFCURVE",
"275 254 CURVE SMOOTH",
"260 254 OFFCURVE",
"244 257 OFFCURVE",
"228 259 CURVE",
"223 203 LINE",
"242 201 OFFCURVE",
"263 199 OFFCURVE",
"284 199 CURVE SMOOTH",
"424 199 OFFCURVE",
"520 281 OFFCURVE",
"520 420 CURVE SMOOTH",
"520 535 OFFCURVE",
"438 572 OFFCURVE",
"330 572 CURVE SMOOTH",
"297 572 OFFCURVE",
"243 568 OFFCURVE",
"209 568 CURVE SMOOTH",
"149 568 LINE",
"78 0 LINE",
"310 0 LINE",
"317 52 LINE",
"247 61 LINE SMOOTH",
"223 64 OFFCURVE",
"225 76 OFFCURVE",
"226 90 CURVE SMOOTH"
);
}
);
width = 513;
}
);
leftKerningGroup = H;
leftMetricsKey = H;
unicode = 0050;
userData = {
com.typemytype.robofont.layerData = {
background = {
anchors = (
{
name = btm;
x = 675;
y = -170;
},
{
name = top;
x = 675;
y = 1700;
}
);
components = (
);
contours = (
{
points = (
{
segmentType = line;
smooth = 0;
x = 109;
y = 0;
},
{
segmentType = line;
smooth = 0;
x = 737;
y = 0;
},
{
segmentType = line;
smooth = 0;
x = 737;
y = 88;
},
{
segmentType = line;
smooth = 0;
x = 408;
y = 111;
},
{
segmentType = line;
smooth = 0;
x = 453;
y = 63;
},
{
segmentType = line;
smooth = 0;
x = 453;
y = 590;
},
{
smooth = 0;
x = 472;
y = 586;
},
{
smooth = 0;
x = 589;
y = 581;
},
{
segmentType = curve;
smooth = 1;
x = 670;
y = 581;
},
{
smooth = 0;
x = 996;
y = 581;
},
{
smooth = 0;
x = 1255;
y = 774;
},
{
segmentType = curve;
smooth = 1;
x = 1255;
y = 1105;
},
{
smooth = 0;
x = 1255;
y = 1376;
},
{
smooth = 0;
x = 1128;
y = 1537;
},
{
segmentType = curve;
smooth = 1;
x = 728;
y = 1537;
},
{
smooth = 0;
x = 549;
y = 1537;
},
{
smooth = 0;
x = 504;
y = 1522;
},
{
segmentType = curve;
smooth = 1;
x = 369;
y = 1522;
},
{
segmentType = line;
smooth = 0;
x = 121;
y = 1522;
},
{
segmentType = line;
smooth = 0;
x = 121;
y = 1434;
},
{
segmentType = line;
smooth = 0;
x = 316;
y = 1407;
},
{
segmentType = line;
smooth = 0;
x = 284;
y = 1445;
},
{
segmentType = line;
smooth = 0;
x = 284;
y = 64;
},
{
segmentType = line;
smooth = 0;
x = 317;
y = 111;
},
{
segmentType = line;
smooth = 0;
x = 109;
y = 88;
}
);
},
{
points = (
{
segmentType = curve;
smooth = 0;
x = 453;
y = 691;
},
{
segmentType = line;
smooth = 0;
x = 453;
y = 1425;
},
{
smooth = 0;
x = 509;
y = 1425;
},
{
smooth = 0;
x = 577;
y = 1438;
},
{
segmentType = curve;
smooth = 1;
x = 675;
y = 1438;
},
{
smooth = 0;
x = 946;
y = 1438;
},
{
smooth = 0;
x = 1075;
y = 1349;
},
{
segmentType = curve;
smooth = 1;
x = 1075;
y = 1105;
},
{
smooth = 0;
x = 1075;
y = 781;
},
{
smooth = 0;
x = 880;
y = 682;
},
{
segmentType = curve;
smooth = 1;
x = 673;
y = 682;
},
{
smooth = 0;
x = 572;
y = 682;
},
{
smooth = 0;
x = 491;
y = 684;
}
);
}
);
lib = {
};
name = P;
unicodes = (
);
width = 1352;
};
};
};
},
{
glyphname = Q;
lastChange = "2020-02-21 16:30:30 +0000";
layers = (
{
anchors = (
{
name = btm;
position = "{286, 0}";
},
{
name = top;
position = "{361, 568}";
}
);
background = {
anchors = (
{
name = btm;
position = "{286, 0}";
},
{
name = top;
position = "{361, 568}";
}
);
paths = (
{
closed = 1;
nodes = (
"486 -150 CURVE SMOOTH",
"522 -150 OFFCURVE",
"556 -137 OFFCURVE",
"571 -128 CURVE",
"568 -97 LINE",
"560 -98 OFFCURVE",
"548 -98 OFFCURVE",
"537 -98 CURVE SMOOTH",
"484 -98 OFFCURVE",
"455 -71 OFFCURVE",
"423 -42 CURVE SMOOTH",
"387 -9 OFFCURVE",
"344 21 OFFCURVE",
"269 21 CURVE",
"243 -1 LINE",
"350 -1 OFFCURVE",
"368 -150 OFFCURVE"
);
},
{
closed = 1;
nodes = (
"281 -8 CURVE SMOOTH",
"453 -8 OFFCURVE",
"574 141 OFFCURVE",
"574 355 CURVE SMOOTH",
"574 493 OFFCURVE",
"506 576 OFFCURVE",
"372 576 CURVE SMOOTH",
"200 576 OFFCURVE",
"79 427 OFFCURVE",
"79 214 CURVE SMOOTH",
"79 75 OFFCURVE",
"148 -8 OFFCURVE"
);
},
{
closed = 1;
nodes = (
"359 538 CURVE SMOOTH",
"457 538 OFFCURVE",
"505 474 OFFCURVE",
"505 355 CURVE SMOOTH",
"505 158 OFFCURVE",
"422 31 OFFCURVE",
"294 31 CURVE SMOOTH",
"196 31 OFFCURVE",
"147 95 OFFCURVE",
"147 214 CURVE SMOOTH",
"147 411 OFFCURVE",
"230 538 OFFCURVE"
);
}
);
};
layerId = "DAAEA780-4710-4479-B303-5C05B40621B2";
paths = (
{
closed = 1;
nodes = (
"486 -150 CURVE SMOOTH",
"522 -150 OFFCURVE",
"556 -137 OFFCURVE",
"571 -128 CURVE",
"568 -97 LINE",
"560 -98 OFFCURVE",
"548 -98 OFFCURVE",
"537 -98 CURVE SMOOTH",
"484 -98 OFFCURVE",
"455 -71 OFFCURVE",
"423 -42 CURVE SMOOTH",
"387 -9 OFFCURVE",
"344 21 OFFCURVE",
"269 21 CURVE",
"243 -1 LINE",
"350 -1 OFFCURVE",
"368 -150 OFFCURVE"
);
},
{
closed = 1;
nodes = (
"281 -8 CURVE SMOOTH",
"453 -8 OFFCURVE",
"574 141 OFFCURVE",
"574 355 CURVE SMOOTH",
"574 493 OFFCURVE",
"506 576 OFFCURVE",
"372 576 CURVE SMOOTH",
"200 576 OFFCURVE",
"79 427 OFFCURVE",
"79 214 CURVE SMOOTH",
"79 75 OFFCURVE",
"148 -8 OFFCURVE"
);
},
{
closed = 1;
nodes = (
"359 538 CURVE SMOOTH",
"457 538 OFFCURVE",
"505 474 OFFCURVE",
"505 355 CURVE SMOOTH",
"505 158 OFFCURVE",
"422 31 OFFCURVE",
"294 31 CURVE SMOOTH",
"196 31 OFFCURVE",
"147 95 OFFCURVE",
"147 214 CURVE SMOOTH",
"147 411 OFFCURVE",
"230 538 OFFCURVE"
);
}
);
width = 583;
},
{
anchors = (
{
name = btm;
position = "{291, 0}";
},
{
name = top;
position = "{365, 568}";
}
);
background = {
anchors = (
{
name = btm;
position = "{291, 0}";
},
{
name = top;
position = "{365, 568}";
}
);
paths = (
{
closed = 1;
nodes = (
"476 -154 CURVE SMOOTH",
"527 -154 OFFCURVE",
"576 -126 OFFCURVE",
"599 -102 CURVE",
"593 -59 LINE",
"581 -61 OFFCURVE",
"565 -63 OFFCURVE",
"549 -63 CURVE SMOOTH",
"513 -63 OFFCURVE",
"482 -53 OFFCURVE",
"445 -31 CURVE SMOOTH",
"396 -2 OFFCURVE",
"362 14 OFFCURVE",
"267 14 CURVE",
"200 9 LINE",
"347 -7 OFFCURVE",
"338 -154 OFFCURVE"
);
},
{
closed = 1;
nodes = (
"280 -12 CURVE SMOOTH",
"464 -12 OFFCURVE",
"588 136 OFFCURVE",
"588 357 CURVE SMOOTH",
"588 494 OFFCURVE",
"521 580 OFFCURVE",
"372 580 CURVE SMOOTH",
"186 580 OFFCURVE",
"64 434 OFFCURVE",
"64 210 CURVE SMOOTH",
"64 74 OFFCURVE",
"130 -12 OFFCURVE"
);
},
{
closed = 1;
nodes = (
"357 523 CURVE SMOOTH",
"411 523 OFFCURVE",
"439 484 OFFCURVE",
"439 387 CURVE SMOOTH",
"439 188 OFFCURVE",
"379 44 OFFCURVE",
"294 44 CURVE SMOOTH",
"240 44 OFFCURVE",
"213 85 OFFCURVE",
"213 180 CURVE SMOOTH",
"213 382 OFFCURVE",
"273 523 OFFCURVE"
);
}
);
};
layerId = "925CB40E-795E-477B-BAE7-1EE7D58841B5";
paths = (
{
closed = 1;
nodes = (
"476 -154 CURVE SMOOTH",
"527 -154 OFFCURVE",
"576 -126 OFFCURVE",
"599 -102 CURVE",
"593 -59 LINE",
"581 -61 OFFCURVE",
"565 -63 OFFCURVE",
"549 -63 CURVE SMOOTH",
"513 -63 OFFCURVE",
"482 -53 OFFCURVE",
"445 -31 CURVE SMOOTH",
"396 -2 OFFCURVE",
"362 14 OFFCURVE",
"267 14 CURVE",
"200 9 LINE",
"347 -7 OFFCURVE",
"338 -154 OFFCURVE"
);
},
{
closed = 1;
nodes = (
"280 -12 CURVE SMOOTH",
"464 -12 OFFCURVE",
"588 136 OFFCURVE",
"588 357 CURVE SMOOTH",
"588 494 OFFCURVE",
"521 580 OFFCURVE",
"372 580 CURVE SMOOTH",
"186 580 OFFCURVE",
"64 434 OFFCURVE",
"64 210 CURVE SMOOTH",
"64 74 OFFCURVE",
"130 -12 OFFCURVE"
);
},
{
closed = 1;
nodes = (
"357 523 CURVE SMOOTH",
"411 523 OFFCURVE",
"439 484 OFFCURVE",
"439 387 CURVE SMOOTH",
"439 188 OFFCURVE",
"379 44 OFFCURVE",
"294 44 CURVE SMOOTH",
"240 44 OFFCURVE",
"213 85 OFFCURVE",
"213 180 CURVE SMOOTH",
"213 382 OFFCURVE",
"273 523 OFFCURVE"
);
}
);
width = 581;
}
);
leftKerningGroup = O;
rightKerningGroup = O;
unicode = 0051;
userData = {
com.typemytype.robofont.layerData = {
background = {
anchors = (
{
name = btm;
x = 733;
y = -170;
},
{
name = top;
x = 733;
y = 1700;
}
);
components = (
);
contours = (
{
points = (
{
segmentType = curve;
smooth = 0;
x = 1668;
y = -413;
},
{
segmentType = line;
smooth = 0;
x = 1679;
y = -413;
},
{
smooth = 0;
x = 1749;
y = -413;
},
{
smooth = 0;
x = 1815;
y = -371;
},
{
segmentType = curve;
smooth = 0;
x = 1834;
y = -353;
},
{
segmentType = line;
smooth = 0;
x = 1814;
y = -268;
},
{
smooth = 0;
x = 1801;
y = -269;
},
{
smooth = 0;
x = 1789;
y = -270;
},
{
segmentType = curve;
smooth = 1;
x = 1770;
y = -270;
},
{
segmentType = line;
smooth = 0;
x = 1768;
y = -270;
},
{
smooth = 0;
x = 1491;
y = -270;
},
{
smooth = 0;
x = 1266;
y = 34;
},
{
segmentType = curve;
smooth = 0;
x = 951;
y = 34;
},
{
segmentType = line;
smooth = 0;
x = 865;
y = 28;
},
{
segmentType = line;
smooth = 0;
x = 809;
y = -3;
},
{
smooth = 0;
x = 1102;
y = -3;
},
{
smooth = 0;
x = 1292;
y = -413;
}
);
},
{
points = (
{
segmentType = curve;
smooth = 1;
x = 728;
y = -23;
},
{
smooth = 0;
x = 1106;
y = -16;
},
{
smooth = 0;
x = 1404;
y = 292;
},
{
segmentType = curve;
smooth = 1;
x = 1404;
y = 775;
},
{
smooth = 0;
x = 1404;
y = 1234;
},
{
smooth = 0;
x = 1178;
y = 1538;
},
{
segmentType = curve;
smooth = 1;
x = 763;
y = 1538;
},
{
smooth = 0;
x = 383;
y = 1538;
},
{
smooth = 0;
x = 81;
y = 1232;
},
{
segmentType = curve;
smooth = 1;
x = 81;
y = 749;
},
{
smooth = 0;
x = 81;
y = 289;
},
{
smooth = 0;
x = 313;
y = -30;
}
);
},
{
points = (
{
segmentType = curve;
smooth = 1;
x = 746;
y = 1442;
},
{
smooth = 0;
x = 1046;
y = 1442;
},
{
smooth = 0;
x = 1215;
y = 1167;
},
{
segmentType = curve;
smooth = 1;
x = 1215;
y = 774;
},
{
smooth = 0;
x = 1215;
y = 310;
},
{
smooth = 0;
x = 1021;
y = 74;
},
{
segmentType = curve;
smooth = 1;
x = 740;
y = 74;
},
{
smooth = 0;
x = 438;
y = 74;
},
{
smooth = 0;
x = 268;
y = 358;
},
{
segmentType = curve;
smooth = 1;
x = 268;
y = 750;
},
{
smooth = 0;
x = 268;
y = 1214;
},
{
smooth = 0;
x = 462;
y = 1442;
}
);
}
);
lib = {
};
name = Q;
unicodes = (
);
width = 1563;
};
};
};
},
{
glyphname = R;
lastChange = "2020-02-21 16:30:30 +0000";
layers = (
{
anchors = (
{
name = btm;
position = "{307, 0}";
},
{
name = top;
position = "{336, 568}";
}
);
background = {
anchors = (
{
name = btm;
position = "{307, 0}";
},
{
name = top;
position = "{336, 568}";
}
);
paths = (
{
closed = 1;
nodes = (
"266 0 LINE",
"270 32 LINE",
"208 43 LINE SMOOTH",
"190 46 OFFCURVE",
"189 56 OFFCURVE",
"190 66 CURVE SMOOTH",
"248 532 LINE",
"261 533 OFFCURVE",
"295 537 OFFCURVE",
"328 537 CURVE SMOOTH",
"425 537 OFFCURVE",
"455 501 OFFCURVE",
"455 445 CURVE SMOOTH",
"455 351 OFFCURVE",
"404 289 OFFCURVE",
"326 289 CURVE SMOOTH",
"307 289 OFFCURVE",
"237 289 OFFCURVE",
"204 291 CURVE",
"200 253 LINE",
"219 253 OFFCURVE",
"275 253 OFFCURVE",
"334 253 CURVE",
"367 260 LINE",
"461 276 OFFCURVE",
"523 348 OFFCURVE",
"523 453 CURVE SMOOTH",
"523 533 OFFCURVE",
"472 574 OFFCURVE",
"346 574 CURVE SMOOTH",
"298 574 OFFCURVE",
"266 568 OFFCURVE",
"223 568 CURVE SMOOTH",
"113 568 LINE",
"109 536 LINE",
"165 524 LINE SMOOTH",
"178 521 OFFCURVE",
"183 515 OFFCURVE",
"182 501 CURVE SMOOTH",
"128 66 LINE SMOOTH",
"126 51 OFFCURVE",
"118 45 OFFCURVE",
"106 43 CURVE SMOOTH",
"46 32 LINE",
"42 0 LINE"
);
},
{
closed = 1;
nodes = (
"542 0 LINE",
"546 32 LINE",
"505 41 LINE SMOOTH",
"488 45 OFFCURVE",
"481 49 OFFCURVE",
"473 68 CURVE SMOOTH",
"428 179 LINE SMOOTH",
"407 231 OFFCURVE",
"391 256 OFFCURVE",
"359 275 CURVE",
"302 265 LINE",
"324 256 OFFCURVE",
"343 213 OFFCURVE",
"361 164 CURVE SMOOTH",
"388 93 LINE SMOOTH",
"410 36 OFFCURVE",
"422 0 OFFCURVE",
"445 0 CURVE SMOOTH"
);
}
);
};
layerId = "DAAEA780-4710-4479-B303-5C05B40621B2";
paths = (
{
closed = 1;
nodes = (
"266 0 LINE",
"270 32 LINE",
"208 43 LINE SMOOTH",
"190 46 OFFCURVE",
"189 56 OFFCURVE",
"190 66 CURVE SMOOTH",
"248 532 LINE",
"261 533 OFFCURVE",
"295 537 OFFCURVE",
"328 537 CURVE SMOOTH",
"425 537 OFFCURVE",
"455 501 OFFCURVE",
"455 445 CURVE SMOOTH",
"455 351 OFFCURVE",
"404 289 OFFCURVE",
"326 289 CURVE SMOOTH",
"307 289 OFFCURVE",
"237 289 OFFCURVE",
"204 291 CURVE",
"200 253 LINE",
"219 253 OFFCURVE",
"275 253 OFFCURVE",
"334 253 CURVE",
"367 260 LINE",
"461 276 OFFCURVE",
"523 348 OFFCURVE",
"523 453 CURVE SMOOTH",
"523 533 OFFCURVE",
"472 574 OFFCURVE",
"346 574 CURVE SMOOTH",
"298 574 OFFCURVE",
"266 568 OFFCURVE",
"223 568 CURVE SMOOTH",
"113 568 LINE",
"109 536 LINE",
"165 524 LINE SMOOTH",
"178 521 OFFCURVE",
"183 515 OFFCURVE",
"182 501 CURVE SMOOTH",
"128 66 LINE SMOOTH",
"126 51 OFFCURVE",
"118 45 OFFCURVE",
"106 43 CURVE SMOOTH",
"46 32 LINE",
"42 0 LINE"
);
},
{
closed = 1;
nodes = (
"542 0 LINE",
"546 32 LINE",
"505 41 LINE SMOOTH",
"488 45 OFFCURVE",
"481 49 OFFCURVE",
"473 68 CURVE SMOOTH",
"428 179 LINE SMOOTH",
"407 231 OFFCURVE",
"391 256 OFFCURVE",
"359 275 CURVE",
"302 265 LINE",
"324 256 OFFCURVE",
"343 213 OFFCURVE",
"361 164 CURVE SMOOTH",
"388 93 LINE SMOOTH",
"410 36 OFFCURVE",
"422 0 OFFCURVE",
"445 0 CURVE SMOOTH"
);
}
);
width = 555;
},
{
anchors = (
{
name = btm;
position = "{297, -62}";
},
{
name = top;
position = "{281, 618}";
}
);
associatedMasterId = "DAAEA780-4710-4479-B303-5C05B40621B2";
layerId = "C5C366A4-98CE-4A20-820B-334FF14FD6C7";
name = "Light Sep 30 15, 11:17";
paths = (
{
closed = 1;
nodes = (
"184 533 LINE",
"201 533 OFFCURVE",
"227 537 OFFCURVE",
"265 537 CURVE SMOOTH",
"373 537 OFFCURVE",
"403 489 OFFCURVE",
"403 419 CURVE SMOOTH",
"403 330 OFFCURVE",
"357 289 OFFCURVE",
"291 289 CURVE SMOOTH",
"272 289 OFFCURVE",
"203 289 OFFCURVE",
"170 291 CURVE",
"170 253 LINE",
"190 253 OFFCURVE",
"291 253 OFFCURVE",
"305 253 CURVE SMOOTH",
"333 253 OFFCURVE",
"316 257 OFFCURVE",
"329 258 CURVE SMOOTH",
"417 267 OFFCURVE",
"469 342 OFFCURVE",
"469 424 CURVE SMOOTH",
"469 525 OFFCURVE",
"417 574 OFFCURVE",
"271 574 CURVE SMOOTH",
"235 574 OFFCURVE",
"193 568 OFFCURVE",
"154 568 CURVE SMOOTH",
"44 568 LINE",
"44 536 LINE",
"101 524 LINE SMOOTH",
"114 522 OFFCURVE",
"122 515 OFFCURVE",
"122 501 CURVE SMOOTH",
"122 66 LINE SMOOTH",
"122 52 OFFCURVE",
"114 45 OFFCURVE",
"101 43 CURVE SMOOTH",
"44 32 LINE",
"44 0 LINE",
"267 0 LINE",
"267 32 LINE",
"204 43 LINE SMOOTH",
"191 46 OFFCURVE",
"184 52 OFFCURVE",
"184 66 CURVE SMOOTH"
);
},
{
closed = 1;
nodes = (
"544 0 LINE",
"544 32 LINE",
"496 43 LINE SMOOTH",
"458 52 OFFCURVE",
"400 241 OFFCURVE",
"343 268 CURVE",
"293 270 LINE",
"282 256 LINE",
"339 239 OFFCURVE",
"403 0 OFFCURVE",
"442 0 CURVE SMOOTH"
);
}
);
width = 543;
},
{
anchors = (
{
name = btm;
position = "{332, 0}";
},
{
name = top;
position = "{360, 568}";
}
);
background = {
anchors = (
{
name = btm;
position = "{332, 0}";
},
{
name = top;
position = "{360, 568}";
}
);
paths = (
{
closed = 1;
nodes = (
"317 0 LINE",
"323 52 LINE",
"269 62 LINE SMOOTH",
"256 64 OFFCURVE",
"252 70 OFFCURVE",
"253 81 CURVE SMOOTH",
"307 517 LINE",
"321 519 OFFCURVE",
"337 521 OFFCURVE",
"353 521 CURVE SMOOTH",
"408 521 OFFCURVE",
"436 499 OFFCURVE",
"436 442 CURVE SMOOTH",
"436 354 OFFCURVE",
"395 291 OFFCURVE",
"335 291 CURVE SMOOTH",
"318 291 OFFCURVE",
"284 290 OFFCURVE",
"263 296 CURVE",
"256 241 LINE",
"296 241 OFFCURVE",
"336 241 OFFCURVE",
"371 241 CURVE",
"408 256 LINE",
"470 270 OFFCURVE",
"582 297 OFFCURVE",
"582 449 CURVE SMOOTH",
"582 537 OFFCURVE",
"519 572 OFFCURVE",
"371 572 CURVE SMOOTH",
"319 572 OFFCURVE",
"284 568 OFFCURVE",
"242 568 CURVE SMOOTH",
"103 568 LINE",
"96 513 LINE",
"152 502 LINE SMOOTH",
"162 500 OFFCURVE",
"168 492 OFFCURVE",
"166 482 CURVE SMOOTH",
"116 83 LINE SMOOTH",
"115 72 OFFCURVE",
"107 65 OFFCURVE",
"97 63 CURVE SMOOTH",
"38 52 LINE",
"32 0 LINE"
);
},
{
closed = 1;
nodes = (
"592 0 LINE",
"598 52 LINE",
"565 61 LINE SMOOTH",
"553 64 OFFCURVE",
"548 70 OFFCURVE",
"543 85 CURVE SMOOTH",
"514 173 LINE SMOOTH",
"492 240 OFFCURVE",
"459 261 OFFCURVE",
"396 278 CURVE",
"314 259 LINE",
"339 249 OFFCURVE",
"354 216 OFFCURVE",
"366 169 CURVE SMOOTH",
"391 73 LINE SMOOTH",
"404 23 OFFCURVE",
"417 0 OFFCURVE",
"436 0 CURVE SMOOTH"
);
}
);
};
layerId = "925CB40E-795E-477B-BAE7-1EE7D58841B5";
paths = (
{
closed = 1;
nodes = (
"317 0 LINE",
"323 52 LINE",
"269 62 LINE SMOOTH",
"256 64 OFFCURVE",
"252 70 OFFCURVE",
"253 81 CURVE SMOOTH",
"307 517 LINE",
"321 519 OFFCURVE",
"337 521 OFFCURVE",
"353 521 CURVE SMOOTH",
"408 521 OFFCURVE",
"436 499 OFFCURVE",
"436 442 CURVE SMOOTH",
"436 354 OFFCURVE",
"395 291 OFFCURVE",
"335 291 CURVE SMOOTH",
"318 291 OFFCURVE",
"284 290 OFFCURVE",
"263 296 CURVE",
"256 241 LINE",
"296 241 OFFCURVE",
"336 241 OFFCURVE",
"371 241 CURVE",
"408 256 LINE",
"470 270 OFFCURVE",
"582 297 OFFCURVE",
"582 449 CURVE SMOOTH",
"582 537 OFFCURVE",
"519 572 OFFCURVE",
"371 572 CURVE SMOOTH",
"319 572 OFFCURVE",
"284 568 OFFCURVE",
"242 568 CURVE SMOOTH",
"103 568 LINE",
"96 513 LINE",
"152 502 LINE SMOOTH",
"162 500 OFFCURVE",
"168 492 OFFCURVE",
"166 482 CURVE SMOOTH",
"116 83 LINE SMOOTH",
"115 72 OFFCURVE",
"107 65 OFFCURVE",
"97 63 CURVE SMOOTH",
"38 52 LINE",
"32 0 LINE"
);
},
{
closed = 1;
nodes = (
"592 0 LINE",
"598 52 LINE",
"565 61 LINE SMOOTH",
"553 64 OFFCURVE",
"548 70 OFFCURVE",
"543 85 CURVE SMOOTH",
"514 173 LINE SMOOTH",
"492 240 OFFCURVE",
"459 261 OFFCURVE",
"396 278 CURVE",
"314 259 LINE",
"339 249 OFFCURVE",
"354 216 OFFCURVE",
"366 169 CURVE SMOOTH",
"391 73 LINE SMOOTH",
"404 23 OFFCURVE",
"417 0 OFFCURVE",
"436 0 CURVE SMOOTH"
);
}
);
width = 602;
}
);
leftKerningGroup = H;
rightKerningGroup = R;
unicode = 0052;
userData = {
com.typemytype.robofont.layerData = {
"Light Sep 30 15, 11:17" = {
anchors = (
{
name = btm;
x = 817;
y = -170;
},
{
name = top;
x = 774;
y = 1700;
}
);
components = (
);
contours = (
{
points = (
{
segmentType = line;
smooth = 0;
x = 505;
y = 1465;
},
{
smooth = 0;
x = 552;
y = 1465;
},
{
smooth = 0;
x = 624;
y = 1477;
},
{
segmentType = curve;
smooth = 1;
x = 730;
y = 1477;
},
{
smooth = 0;
x = 1026;
y = 1477;
},
{
smooth = 0;
x = 1107;
y = 1345;
},
{
segmentType = curve;
smooth = 1;
x = 1107;
y = 1153;
},
{
smooth = 0;
x = 1107;
y = 908;
},
{
smooth = 0;
x = 983;
y = 796;
},
{
segmentType = curve;
smooth = 1;
x = 801;
y = 796;
},
{
smooth = 0;
x = 748;
y = 796;
},
{
smooth = 0;
x = 558;
y = 794;
},
{
segmentType = curve;
smooth = 0;
x = 467;
y = 800;
},
{
segmentType = line;
smooth = 0;
x = 467;
y = 697;
},
{
smooth = 0;
x = 523;
y = 696;
},
{
smooth = 0;
x = 799;
y = 695;
},
{
segmentType = curve;
smooth = 1;
x = 838;
y = 695;
},
{
smooth = 0;
x = 916;
y = 695;
},
{
smooth = 0;
x = 868;
y = 706;
},
{
segmentType = curve;
smooth = 1;
x = 906;
y = 710;
},
{
smooth = 0;
x = 1146;
y = 735;
},
{
smooth = 0;
x = 1291;
y = 940;
},
{
segmentType = curve;
smooth = 1;
x = 1291;
y = 1167;
},
{
smooth = 0;
x = 1291;
y = 1443;
},
{
smooth = 0;
x = 1146;
y = 1578;
},
{
segmentType = curve;
smooth = 1;
x = 746;
y = 1578;
},
{
smooth = 0;
x = 645;
y = 1578;
},
{
smooth = 0;
x = 532;
y = 1562;
},
{
segmentType = curve;
smooth = 1;
x = 423;
y = 1562;
},
{
segmentType = line;
smooth = 0;
x = 120;
y = 1562;
},
{
segmentType = line;
smooth = 0;
x = 120;
y = 1474;
},
{
segmentType = line;
smooth = 1;
x = 279;
y = 1442;
},
{
smooth = 0;
x = 314;
y = 1435;
},
{
smooth = 0;
x = 335;
y = 1415;
},
{
segmentType = curve;
smooth = 1;
x = 335;
y = 1378;
},
{
segmentType = line;
smooth = 1;
x = 335;
y = 181;
},
{
smooth = 0;
x = 335;
y = 144;
},
{
smooth = 0;
x = 314;
y = 125;
},
{
segmentType = curve;
smooth = 1;
x = 278;
y = 118;
},
{
segmentType = line;
smooth = 0;
x = 120;
y = 88;
},
{
segmentType = line;
smooth = 0;
x = 120;
y = 0;
},
{
segmentType = line;
smooth = 0;
x = 735;
y = 0;
},
{
segmentType = line;
smooth = 0;
x = 735;
y = 88;
},
{
segmentType = line;
smooth = 1;
x = 562;
y = 119;
},
{
smooth = 0;
x = 525;
y = 126;
},
{
smooth = 0;
x = 505;
y = 144;
},
{
segmentType = curve;
smooth = 1;
x = 505;
y = 181;
}
);
},
{
points = (
{
segmentType = line;
smooth = 0;
x = 1495;
y = 0;
},
{
segmentType = line;
smooth = 0;
x = 1495;
y = 88;
},
{
segmentType = line;
smooth = 1;
x = 1364;
y = 118;
},
{
smooth = 0;
x = 1259;
y = 142;
},
{
smooth = 0;
x = 1101;
y = 663;
},
{
segmentType = curve;
smooth = 0;
x = 942;
y = 736;
},
{
segmentType = line;
smooth = 0;
x = 806;
y = 742;
},
{
segmentType = line;
smooth = 0;
x = 775;
y = 703;
},
{
smooth = 0;
x = 933;
y = 657;
},
{
smooth = 0;
x = 1109;
y = 0;
},
{
segmentType = curve;
smooth = 1;
x = 1216;
y = 0;
}
);
}
);
lib = {
};
name = R;
unicodes = (
);
width = 1494;
};
background = {
anchors = (
{
name = btm;
x = 817;
y = -170;
},
{
name = top;
x = 774;
y = 1700;
}
);
components = (
);
contours = (
{
points = (
{
smooth = 0;
x = 1236;
y = 0;
},
{
smooth = 0;
x = 1276;
y = 0;
},
{
segmentType = curve;
smooth = 0;
x = 1474;
y = 0;
},
{
segmentType = line;
smooth = 0;
x = 1474;
y = 85;
},
{
segmentType = line;
smooth = 0;
x = 1388;
y = 108;
},
{
smooth = 0;
x = 1283;
y = 133;
},
{
smooth = 0;
x = 1100;
y = 643;
},
{
segmentType = curve;
smooth = 0;
x = 941;
y = 716;
},
{
segmentType = line;
smooth = 0;
x = 805;
y = 722;
},
{
segmentType = line;
smooth = 0;
x = 774;
y = 683;
},
{
smooth = 0;
x = 932;
y = 637;
},
{
smooth = 0;
x = 1128;
y = 0;
},
{
segmentType = curve;
smooth = 1;
x = 1235;
y = 0;
}
);
},
{
points = (
{
segmentType = line;
smooth = 0;
x = 160;
y = 0;
},
{
segmentType = line;
smooth = 0;
x = 714;
y = 0;
},
{
segmentType = line;
smooth = 0;
x = 714;
y = 88;
},
{
segmentType = line;
smooth = 0;
x = 463;
y = 110;
},
{
segmentType = line;
smooth = 0;
x = 504;
y = 63;
},
{
segmentType = line;
smooth = 0;
x = 504;
y = 677;
},
{
smooth = 0;
x = 547;
y = 676;
},
{
smooth = 0;
x = 780;
y = 675;
},
{
segmentType = curve;
smooth = 0;
x = 817;
y = 675;
},
{
smooth = 0;
x = 895;
y = 675;
},
{
smooth = 0;
x = 847;
y = 686;
},
{
segmentType = curve;
smooth = 0;
x = 885;
y = 690;
},
{
smooth = 0;
x = 1125;
y = 715;
},
{
smooth = 0;
x = 1268;
y = 921;
},
{
segmentType = curve;
smooth = 1;
x = 1268;
y = 1137;
},
{
smooth = 0;
x = 1268;
y = 1402;
},
{
smooth = 0;
x = 1125;
y = 1538;
},
{
segmentType = curve;
smooth = 1;
x = 725;
y = 1538;
},
{
smooth = 0;
x = 624;
y = 1538;
},
{
smooth = 0;
x = 531;
y = 1522;
},
{
segmentType = curve;
smooth = 1;
x = 422;
y = 1522;
},
{
segmentType = line;
smooth = 0;
x = 171;
y = 1522;
},
{
segmentType = line;
smooth = 0;
x = 171;
y = 1437;
},
{
segmentType = line;
smooth = 0;
x = 367;
y = 1410;
},
{
segmentType = line;
smooth = 0;
x = 335;
y = 1447;
},
{
segmentType = line;
smooth = 0;
x = 335;
y = 63;
},
{
segmentType = line;
smooth = 0;
x = 366;
y = 110;
},
{
segmentType = line;
smooth = 0;
x = 160;
y = 88;
}
);
},
{
points = (
{
smooth = 0;
x = 730;
y = 776;
},
{
smooth = 0;
x = 576;
y = 774;
},
{
segmentType = curve;
smooth = 0;
x = 504;
y = 779;
},
{
segmentType = line;
smooth = 0;
x = 504;
y = 1425;
},
{
smooth = 0;
x = 551;
y = 1425;
},
{
smooth = 0;
x = 603;
y = 1437;
},
{
segmentType = curve;
smooth = 1;
x = 709;
y = 1437;
},
{
smooth = 0;
x = 1005;
y = 1437;
},
{
smooth = 0;
x = 1086;
y = 1305;
},
{
segmentType = curve;
smooth = 1;
x = 1086;
y = 1123;
},
{
smooth = 0;
x = 1086;
y = 889;
},
{
smooth = 0;
x = 962;
y = 776;
},
{
segmentType = curve;
smooth = 1;
x = 780;
y = 776;
}
);
}
);
lib = {
};
name = R;
unicodes = (
);
width = 1485;
};
};
};
},
{
color = 4;
glyphname = S;
lastChange = "2020-03-11 20:19:43 +0000";
layers = (
{
anchors = (
{
name = btm;
position = "{194, 0}";
},
{
name = top;
position = "{277, 568}";
}
);
background = {
anchors = (
{
name = btm;
position = "{194, 0}";
},
{
name = top;
position = "{277, 568}";
}
);
paths = (
{
closed = 1;
nodes = (
"402 148 CURVE SMOOTH",
"412 241 OFFCURVE",
"340 280 OFFCURVE",
"267 316 CURVE SMOOTH",
"183 358 OFFCURVE",
"137 381 OFFCURVE",
"145 451 CURVE SMOOTH",
"152 509 OFFCURVE",
"192 542 OFFCURVE",
"262 542 CURVE SMOOTH",
"301 542 OFFCURVE",
"332 529 OFFCURVE",
"348 515 CURVE SMOOTH",
"357 507 OFFCURVE",
"358 497 OFFCURVE",
"359 489 CURVE SMOOTH",
"365 417 LINE",
"402 417 LINE",
"413 458 OFFCURVE",
"420 499 OFFCURVE",
"422 547 CURVE",
"388 566 OFFCURVE",
"333 577 OFFCURVE",
"282 577 CURVE SMOOTH",
"164 577 OFFCURVE",
"95 517 OFFCURVE",
"85 434 CURVE SMOOTH",
"73 334 OFFCURVE",
"156 293 OFFCURVE",
"222 263 CURVE SMOOTH",
"298 229 OFFCURVE",
"345 204 OFFCURVE",
"336 130 CURVE SMOOTH",
"328 64 OFFCURVE",
"282 24 OFFCURVE",
"203 24 CURVE SMOOTH",
"154 24 OFFCURVE",
"115 44 OFFCURVE",
"98 66 CURVE SMOOTH",
"91 75 OFFCURVE",
"88 84 OFFCURVE",
"88 91 CURVE SMOOTH",
"86 173 LINE",
"48 173 LINE",
"36 125 OFFCURVE",
"28 81 OFFCURVE",
"25 36 CURVE",
"56 13 OFFCURVE",
"115 -12 OFFCURVE",
"192 -12 CURVE SMOOTH",
"323 -12 OFFCURVE",
"393 67 OFFCURVE"
);
}
);
};
layerId = "DAAEA780-4710-4479-B303-5C05B40621B2";
paths = (
{
closed = 1;
nodes = (
"403 160 CURVE SMOOTH",
"403 246 OFFCURVE",
"342 281 OFFCURVE",
"259 318 CURVE SMOOTH",
"200 344 OFFCURVE",
"144 377 OFFCURVE",
"144 436 CURVE SMOOTH",
"144 498 OFFCURVE",
"190 544 OFFCURVE",
"257 544 CURVE SMOOTH",
"290 544 OFFCURVE",
"318 536 OFFCURVE",
"334 522 CURVE SMOOTH",
"349 509 OFFCURVE",
"349 496 OFFCURVE",
"351 484 CURVE SMOOTH",
"359 422 LINE",
"396 422 LINE",
"406 463 OFFCURVE",
"411 510 OFFCURVE",
"413 548 CURVE",
"378 565 OFFCURVE",
"317 579 OFFCURVE",
"264 579 CURVE SMOOTH",
"158 579 OFFCURVE",
"83 515 OFFCURVE",
"83 422 CURVE SMOOTH",
"83 327 OFFCURVE",
"170 286 OFFCURVE",
"227 261 CURVE SMOOTH",
"296 231 OFFCURVE",
"338 196 OFFCURVE",
"338 140 CURVE SMOOTH",
"338 74 OFFCURVE",
"284 22 OFFCURVE",
"213 22 CURVE SMOOTH",
"168 22 OFFCURVE",
"130 40 OFFCURVE",
"109 63 CURVE SMOOTH",
"96 77 OFFCURVE",
"94 88 OFFCURVE",
"93 104 CURVE SMOOTH",
"88 176 LINE",
"51 176 LINE",
"41 128 OFFCURVE",
"32 83 OFFCURVE",
"30 40 CURVE",
"66 10 OFFCURVE",
"132 -15 OFFCURVE",
"201 -15 CURVE SMOOTH",
"335 -15 OFFCURVE",
"403 69 OFFCURVE"
);
}
);
width = 446;
},
{
anchors = (
{
name = btm;
position = "{193, 0}";
},
{
name = top;
position = "{286, 568}";
}
);
background = {
anchors = (
{
name = btm;
position = "{193, 0}";
},
{
name = top;
position = "{286, 568}";
}
);
paths = (
{
closed = 1;
nodes = (
"438 161 CURVE SMOOTH",
"449 251 OFFCURVE",
"385 300 OFFCURVE",
"307 343 CURVE SMOOTH",
"236 382 OFFCURVE",
"194 404 OFFCURVE",
"201 460 CURVE SMOOTH",
"206 500 OFFCURVE",
"235 527 OFFCURVE",
"278 527 CURVE SMOOTH",
"299 527 OFFCURVE",
"321 519 OFFCURVE",
"333 511 CURVE SMOOTH",
"342 505 OFFCURVE",
"344 496 OFFCURVE",
"345 481 CURVE SMOOTH",
"350 399 LINE",
"426 399 LINE",
"440 446 OFFCURVE",
"451 501 OFFCURVE",
"453 549 CURVE",
"411 567 OFFCURVE",
"349 579 OFFCURVE",
"291 579 CURVE SMOOTH",
"153 579 OFFCURVE",
"76 507 OFFCURVE",
"65 412 CURVE SMOOTH",
"54 316 OFFCURVE",
"118 279 OFFCURVE",
"190 239 CURVE SMOOTH",
"251 205 OFFCURVE",
"304 175 OFFCURVE",
"295 113 CURVE SMOOTH",
"289 70 OFFCURVE",
"258 41 OFFCURVE",
"210 41 CURVE SMOOTH",
"177 41 OFFCURVE",
"149 56 OFFCURVE",
"137 69 CURVE SMOOTH",
"129 78 OFFCURVE",
"124 85 OFFCURVE",
"124 97 CURVE SMOOTH",
"122 191 LINE",
"44 191 LINE",
"30 148 OFFCURVE",
"18 84 OFFCURVE",
"14 31 CURVE",
"59 8 OFFCURVE",
"125 -12 OFFCURVE",
"201 -12 CURVE SMOOTH",
"359 -12 OFFCURVE",
"428 79 OFFCURVE"
);
}
);
};
layerId = "925CB40E-795E-477B-BAE7-1EE7D58841B5";
paths = (
{
closed = 1;
nodes = (
"439 167 CURVE SMOOTH",
"439 249 OFFCURVE",
"387 298 OFFCURVE",
"306 343 CURVE SMOOTH",
"250 374 OFFCURVE",
"200 392 OFFCURVE",
"200 449 CURVE SMOOTH",
"200 496 OFFCURVE",
"233 531 OFFCURVE",
"278 531 CURVE SMOOTH",
"297 531 OFFCURVE",
"314 525 OFFCURVE",
"326 515 CURVE SMOOTH",
"340 504 OFFCURVE",
"340 492 OFFCURVE",
"343 468 CURVE SMOOTH",
"350 402 LINE",
"425 402 LINE",
"439 449 OFFCURVE",
"447 508 OFFCURVE",
"450 552 CURVE",
"405 569 OFFCURVE",
"337 583 OFFCURVE",
"279 583 CURVE SMOOTH",
"135 583 OFFCURVE",
"68 499 OFFCURVE",
"66 405 CURVE SMOOTH",
"64 313 OFFCURVE",
"129 273 OFFCURVE",
"193 239 CURVE SMOOTH",
"251 208 OFFCURVE",
"299 180 OFFCURVE",
"299 123 CURVE SMOOTH",
"299 73 OFFCURVE",
"263 38 OFFCURVE",
"212 38 CURVE SMOOTH",
"183 38 OFFCURVE",
"155 48 OFFCURVE",
"139 65 CURVE SMOOTH",
"124 81 OFFCURVE",
"125 90 OFFCURVE",
"124 113 CURVE SMOOTH",
"121 195 LINE",
"44 195 LINE",
"30 151 OFFCURVE",
"16 95 OFFCURVE",
"14 35 CURVE",
"60 8 OFFCURVE",
"129 -15 OFFCURVE",
"212 -15 CURVE SMOOTH",
"357 -15 OFFCURVE",
"439 63 OFFCURVE"
);
}
);
width = 470;
}
);
leftKerningGroup = S;
rightKerningGroup = S;
unicode = 0053;
userData = {
com.typemytype.robofont.layerData = {
background = {
anchors = (
{
name = btm;
x = 560;
y = -170;
},
{
name = top;
x = 605;
y = 1700;
}
);
components = (
);
contours = (
{
points = (
{
segmentType = curve;
smooth = 1;
x = 545;
y = -23;
},
{
smooth = 0;
x = 883;
y = -23;
},
{
smooth = 0;
x = 1075;
y = 196;
},
{
segmentType = curve;
smooth = 1;
x = 1075;
y = 408;
},
{
smooth = 0;
x = 1075;
y = 654;
},
{
smooth = 0;
x = 838;
y = 757;
},
{
segmentType = curve;
smooth = 1;
x = 636;
y = 853;
},
{
smooth = 0;
x = 421;
y = 955;
},
{
smooth = 0;
x = 274;
y = 1018;
},
{
segmentType = curve;
smooth = 1;
x = 274;
y = 1194;
},
{
smooth = 0;
x = 274;
y = 1360;
},
{
smooth = 0;
x = 384;
y = 1441;
},
{
segmentType = curve;
smooth = 1;
x = 586;
y = 1441;
},
{
smooth = 0;
x = 702;
y = 1441;
},
{
smooth = 0;
x = 803;
y = 1407;
},
{
segmentType = curve;
smooth = 0;
x = 831;
y = 1383;
},
{
segmentType = line;
smooth = 0;
x = 869;
y = 1128;
},
{
segmentType = line;
smooth = 0;
x = 970;
y = 1128;
},
{
segmentType = line;
smooth = 0;
x = 983;
y = 1465;
},
{
smooth = 0;
x = 923;
y = 1475;
},
{
smooth = 0;
x = 779;
y = 1538;
},
{
segmentType = curve;
smooth = 1;
x = 595;
y = 1538;
},
{
smooth = 0;
x = 312;
y = 1538;
},
{
smooth = 0;
x = 113;
y = 1383;
},
{
segmentType = curve;
smooth = 1;
x = 113;
y = 1152;
},
{
smooth = 0;
x = 113;
y = 888;
},
{
smooth = 0;
x = 361;
y = 778;
},
{
segmentType = curve;
smooth = 1;
x = 530;
y = 705;
},
{
smooth = 0;
x = 737;
y = 616;
},
{
smooth = 0;
x = 898;
y = 542;
},
{
segmentType = curve;
smooth = 1;
x = 898;
y = 362;
},
{
smooth = 0;
x = 898;
y = 189;
},
{
smooth = 0;
x = 781;
y = 77;
},
{
segmentType = curve;
smooth = 1;
x = 555;
y = 77;
},
{
smooth = 0;
x = 414;
y = 77;
},
{
smooth = 0;
x = 293;
y = 122;
},
{
segmentType = curve;
smooth = 0;
x = 245;
y = 168;
},
{
segmentType = line;
smooth = 0;
x = 214;
y = 437;
},
{
segmentType = line;
smooth = 0;
x = 109;
y = 437;
},
{
segmentType = line;
smooth = 0;
x = 92;
y = 71;
},
{
smooth = 0;
x = 156;
y = 65;
},
{
smooth = 0;
x = 313;
y = -23;
}
);
}
);
lib = {
};
name = S;
unicodes = (
);
width = 1227;
};
};
};
},
{
color = 8;
glyphname = T;
lastChange = "2020-03-11 13:55:44 +0000";
layers = (
{
anchors = (
{
name = btm;
position = "{220, 0}";
},
{
name = top;
position = "{293, 568}";
}
);
background = {
anchors = (
{
name = btm;
position = "{220, 0}";
},
{
name = top;
position = "{293, 568}";
}
);
paths = (
{
closed = 1;
nodes = (
"359 0 LINE",
"363 32 LINE",
"280 45 LINE SMOOTH",
"266 47 OFFCURVE",
"259 54 OFFCURVE",
"261 68 CURVE SMOOTH",
"318 532 LINE",
"367 532 LINE SMOOTH",
"405 532 OFFCURVE",
"433 529 OFFCURVE",
"448 524 CURVE SMOOTH",
"458 521 OFFCURVE",
"464 514 OFFCURVE",
"465 501 CURVE SMOOTH",
"474 406 LINE",
"509 406 LINE",
"521 464 OFFCURVE",
"525 516 OFFCURVE",
"526 568 CURVE",
"60 568 LINE",
"47 516 OFFCURVE",
"38 464 OFFCURVE",
"34 406 CURVE",
"70 406 LINE",
"103 501 LINE SMOOTH",
"107 514 OFFCURVE",
"114 520 OFFCURVE",
"126 524 CURVE SMOOTH",
"141 529 OFFCURVE",
"173 532 OFFCURVE",
"210 532 CURVE SMOOTH",
"257 532 LINE",
"200 68 LINE SMOOTH",
"198 54 OFFCURVE",
"191 47 OFFCURVE",
"177 45 CURVE SMOOTH",
"90 32 LINE",
"86 0 LINE"
);
}
);
};
layerId = "DAAEA780-4710-4479-B303-5C05B40621B2";
paths = (
{
closed = 1;
nodes = (
"356 0 LINE",
"360 32 LINE",
"288 41 LINE SMOOTH",
"264 44 OFFCURVE",
"259 51 OFFCURVE",
"261 68 CURVE SMOOTH",
"319 532 LINE",
"354 532 LINE SMOOTH",
"386 532 OFFCURVE",
"414 530 OFFCURVE",
"427 526 CURVE SMOOTH",
"438 522 OFFCURVE",
"443 514 OFFCURVE",
"444 497 CURVE SMOOTH",
"450 406 LINE",
"485 406 LINE",
"499 464 OFFCURVE",
"506 514 OFFCURVE",
"508 568 CURVE",
"77 568 LINE",
"67 518 OFFCURVE",
"59 464 OFFCURVE",
"57 406 CURVE",
"93 406 LINE",
"122 497 LINE SMOOTH",
"127 511 OFFCURVE",
"134 521 OFFCURVE",
"148 526 CURVE SMOOTH",
"163 531 OFFCURVE",
"192 532 OFFCURVE",
"224 532 CURVE SMOOTH",
"257 532 LINE",
"200 75 LINE SMOOTH",
"197 51 OFFCURVE",
"192 44 OFFCURVE",
"169 42 CURVE SMOOTH",
"92 32 LINE",
"88 0 LINE"
);
}
);
width = 495;
},
{
anchors = (
{
name = btm;
position = "{248, 0}";
},
{
name = top;
position = "{319, 568}";
}
);
background = {
anchors = (
{
name = btm;
position = "{248, 0}";
},
{
name = top;
position = "{319, 568}";
}
);
paths = (
{
closed = 1;
nodes = (
"420 0 LINE",
"427 52 LINE",
"343 66 LINE SMOOTH",
"332 68 OFFCURVE",
"328 74 OFFCURVE",
"329 85 CURVE SMOOTH",
"381 512 LINE",
"410 512 LINE SMOOTH",
"430 512 OFFCURVE",
"449 509 OFFCURVE",
"459 505 CURVE SMOOTH",
"469 501 OFFCURVE",
"473 495 OFFCURVE",
"474 486 CURVE SMOOTH",
"491 360 LINE",
"558 360 LINE",
"574 433 OFFCURVE",
"585 493 OFFCURVE",
"586 568 CURVE",
"51 568 LINE",
"34 493 OFFCURVE",
"30 435 OFFCURVE",
"28 360 CURVE",
"95 360 LINE",
"142 485 LINE SMOOTH",
"146 495 OFFCURVE",
"151 501 OFFCURVE",
"161 505 CURVE SMOOTH",
"174 510 OFFCURVE",
"193 512 OFFCURVE",
"212 512 CURVE SMOOTH",
"243 512 LINE",
"191 85 LINE SMOOTH",
"190 74 OFFCURVE",
"182 68 OFFCURVE",
"171 66 CURVE SMOOTH",
"84 52 LINE",
"77 0 LINE"
);
}
);
};
layerId = "925CB40E-795E-477B-BAE7-1EE7D58841B5";
paths = (
{
closed = 1;
nodes = (
"412 0 LINE",
"419 52 LINE",
"350 61 LINE SMOOTH",
"326 64 OFFCURVE",
"325 71 OFFCURVE",
"327 85 CURVE SMOOTH",
"380 512 LINE",
"400 512 LINE SMOOTH",
"418 512 OFFCURVE",
"435 511 OFFCURVE",
"445 507 CURVE SMOOTH",
"459 501 OFFCURVE",
"462 494 OFFCURVE",
"463 477 CURVE SMOOTH",
"473 361 LINE",
"539 361 LINE",
"558 434 OFFCURVE",
"570 495 OFFCURVE",
"573 568 CURVE",
"64 568 LINE",
"51 492 OFFCURVE",
"47 443 OFFCURVE",
"45 361 CURVE",
"111 361 LINE",
"151 479 LINE SMOOTH",
"156 493 OFFCURVE",
"161 502 OFFCURVE",
"174 507 CURVE SMOOTH",
"188 512 OFFCURVE",
"205 512 OFFCURVE",
"222 512 CURVE SMOOTH",
"244 512 LINE",
"191 86 LINE SMOOTH",
"189 66 OFFCURVE",
"177 66 OFFCURVE",
"162 63 CURVE SMOOTH",
"93 52 LINE",
"87 0 LINE"
);
}
);
width = 548;
}
);
leftKerningGroup = T;
rightKerningGroup = T;
rightMetricsKey = "=|";
unicode = 0054;
userData = {
com.schriftgestaltung.Glyphs.rightMetricsKey = "=|";
com.typemytype.robofont.layerData = {
background = {
anchors = (
{
name = btm;
x = 712;
y = -170;
},
{
name = top;
x = 712;
y = 1700;
}
);
components = (
);
contours = (
{
points = (
{
segmentType = line;
smooth = 0;
x = 336;
y = 0;
},
{
segmentType = line;
smooth = 0;
x = 1073;
y = 0;
},
{
segmentType = line;
smooth = 0;
x = 1073;
y = 88;
},
{
segmentType = line;
smooth = 0;
x = 731;
y = 111;
},
{
segmentType = line;
smooth = 0;
x = 781;
y = 58;
},
{
segmentType = line;
smooth = 0;
x = 781;
y = 1429;
},
{
segmentType = line;
smooth = 0;
x = 1175;
y = 1418;
},
{
segmentType = line;
smooth = 0;
x = 1232;
y = 1001;
},
{
segmentType = line;
smooth = 0;
x = 1342;
y = 1001;
},
{
segmentType = line;
smooth = 0;
x = 1319;
y = 1522;
},
{
segmentType = line;
smooth = 0;
x = 71;
y = 1522;
},
{
segmentType = line;
smooth = 0;
x = 37;
y = 1001;
},
{
segmentType = line;
smooth = 0;
x = 149;
y = 1001;
},
{
segmentType = line;
smooth = 0;
x = 215;
y = 1418;
},
{
segmentType = line;
smooth = 0;
x = 604;
y = 1429;
},
{
segmentType = line;
smooth = 0;
x = 604;
y = 61;
},
{
segmentType = line;
smooth = 0;
x = 653;
y = 111;
},
{
segmentType = line;
smooth = 0;
x = 336;
y = 88;
}
);
}
);
lib = {
};
name = T;
unicodes = (
);
width = 1442;
};
};
};
},
{
color = 8;
glyphname = U;
lastChange = "2020-03-12 14:06:27 +0000";
layers = (
{
anchors = (
{
name = btm;
position = "{246, 0}";
},
{
name = top;
position = "{325, 568}";
}
);
background = {
anchors = (
{
name = btm;
position = "{246, 0}";
},
{
name = top;
position = "{325, 568}";
}
);
paths = (
{
closed = 1;
nodes = (
"389 568 LINE",
"385 536 LINE",
"448 524 LINE SMOOTH",
"461 522 OFFCURVE",
"466 514 OFFCURVE",
"464 501 CURVE SMOOTH",
"428 206 LINE SMOOTH",
"414 89 OFFCURVE",
"362 29 OFFCURVE",
"257 29 CURVE SMOOTH",
"172 29 OFFCURVE",
"116 71 OFFCURVE",
"133 212 CURVE SMOOTH",
"168 500 LINE SMOOTH",
"170 513 OFFCURVE",
"178 522 OFFCURVE",
"190 524 CURVE SMOOTH",
"258 536 LINE",
"262 568 LINE",
"50 568 LINE",
"46 536 LINE",
"89 525 LINE SMOOTH",
"101 522 OFFCURVE",
"106 514 OFFCURVE",
"104 501 CURVE SMOOTH",
"69 219 LINE SMOOTH",
"50 69 OFFCURVE",
"102 -7 OFFCURVE",
"241 -7 CURVE SMOOTH",
"374 -7 OFFCURVE",
"458 59 OFFCURVE",
"476 209 CURVE SMOOTH",
"512 501 LINE SMOOTH",
"514 514 OFFCURVE",
"521 522 OFFCURVE",
"534 525 CURVE SMOOTH",
"580 536 LINE",
"584 568 LINE"
);
}
);
};
layerId = "DAAEA780-4710-4479-B303-5C05B40621B2";
paths = (
{
closed = 1;
nodes = (
"422 -9 OFFCURVE",
"456 117 OFFCURVE",
"467 209 CURVE SMOOTH",
"502 493 LINE SMOOTH",
"505 516 OFFCURVE",
"508 522 OFFCURVE",
"530 527 CURVE SMOOTH",
"568 536 LINE",
"572 568 LINE",
"382 568 LINE",
"378 536 LINE",
"437 526 LINE SMOOTH",
"451 524 OFFCURVE",
"456 517 OFFCURVE",
"454 500 CURVE SMOOTH",
"418 209 LINE SMOOTH",
"408 128 OFFCURVE",
"381 29 OFFCURVE",
"263 29 CURVE SMOOTH",
"176 29 OFFCURVE",
"146 81 OFFCURVE",
"146 162 CURVE SMOOTH",
"146 183 OFFCURVE",
"149 215 OFFCURVE",
"152 240 CURVE SMOOTH",
"183 493 LINE SMOOTH",
"186 521 OFFCURVE",
"195 523 OFFCURVE",
"210 526 CURVE SMOOTH",
"268 536 LINE",
"272 568 LINE",
"68 568 LINE",
"64 536 LINE",
"103 527 LINE SMOOTH",
"117 524 OFFCURVE",
"123 517 OFFCURVE",
"120 500 CURVE SMOOTH",
"87 237 LINE SMOOTH",
"83 205 OFFCURVE",
"81 177 OFFCURVE",
"81 156 CURVE SMOOTH",
"81 46 OFFCURVE",
"138 -9 OFFCURVE",
"252 -9 CURVE SMOOTH"
);
}
);
width = 550;
},
{
anchors = (
{
name = btm;
position = "{267, 0}";
},
{
name = top;
position = "{349, 568}";
}
);
background = {
anchors = (
{
name = btm;
position = "{267, 0}";
},
{
name = top;
position = "{349, 568}";
}
);
paths = (
{
closed = 1;
nodes = (
"404 568 LINE",
"398 513 LINE",
"457 502 LINE SMOOTH",
"468 500 OFFCURVE",
"472 493 OFFCURVE",
"471 481 CURVE SMOOTH",
"437 203 LINE SMOOTH",
"426 110 OFFCURVE",
"389 45 OFFCURVE",
"300 45 CURVE SMOOTH",
"215 45 OFFCURVE",
"193 104 OFFCURVE",
"205 203 CURVE SMOOTH",
"239 480 LINE SMOOTH",
"240 491 OFFCURVE",
"247 499 OFFCURVE",
"258 501 CURVE SMOOTH",
"318 513 LINE",
"324 568 LINE",
"55 568 LINE",
"49 513 LINE",
"83 503 LINE SMOOTH",
"93 500 OFFCURVE",
"98 493 OFFCURVE",
"97 482 CURVE SMOOTH",
"64 215 LINE SMOOTH",
"44 56 OFFCURVE",
"114 -9 OFFCURVE",
"272 -9 CURVE SMOOTH",
"409 -9 OFFCURVE",
"502 50 OFFCURVE",
"522 210 CURVE SMOOTH",
"556 482 LINE SMOOTH",
"557 493 OFFCURVE",
"563 500 OFFCURVE",
"574 503 CURVE SMOOTH",
"616 513 LINE",
"622 568 LINE"
);
}
);
};
layerId = "925CB40E-795E-477B-BAE7-1EE7D58841B5";
paths = (
{
closed = 1;
nodes = (
"420 -11 OFFCURVE",
"496 57 OFFCURVE",
"514 206 CURVE SMOOTH",
"548 485 LINE SMOOTH",
"550 504 OFFCURVE",
"560 508 OFFCURVE",
"572 510 CURVE SMOOTH",
"606 516 LINE",
"612 568 LINE",
"399 568 LINE",
"393 516 LINE",
"442 507 LINE SMOOTH",
"457 504 OFFCURVE",
"462 499 OFFCURVE",
"460 483 CURVE SMOOTH",
"425 199 LINE SMOOTH",
"412 91 OFFCURVE",
"374 46 OFFCURVE",
"299 46 CURVE SMOOTH",
"243 46 OFFCURVE",
"210 75 OFFCURVE",
"210 146 CURVE SMOOTH",
"210 163 OFFCURVE",
"212 185 OFFCURVE",
"216 216 CURVE SMOOTH",
"250 483 LINE SMOOTH",
"253 503 OFFCURVE",
"263 505 OFFCURVE",
"273 507 CURVE SMOOTH",
"323 516 LINE",
"329 568 LINE",
"62 568 LINE",
"56 516 LINE",
"91 509 LINE SMOOTH",
"106 506 OFFCURVE",
"111 501 OFFCURVE",
"109 485 CURVE SMOOTH",
"77 231 LINE SMOOTH",
"74 207 OFFCURVE",
"72 181 OFFCURVE",
"72 155 CURVE SMOOTH",
"72 44 OFFCURVE",
"133 -11 OFFCURVE",
"266 -11 CURVE SMOOTH"
);
}
);
width = 585;
}
);
leftKerningGroup = U;
rightKerningGroup = U;
rightMetricsKey = "=|";
unicode = 0055;
userData = {
com.schriftgestaltung.Glyphs.rightMetricsKey = "=|";
com.typemytype.robofont.layerData = {
background = {
anchors = (
{
name = btm;
x = 793;
y = -170;
},
{
name = top;
x = 799;
y = 1700;
}
);
components = (
);
contours = (
{
points = (
{
segmentType = curve;
smooth = 1;
x = 781;
y = -16;
},
{
smooth = 0;
x = 1092;
y = -16;
},
{
smooth = 0;
x = 1322;
y = 181;
},
{
segmentType = curve;
smooth = 1;
x = 1322;
y = 625;
},
{
segmentType = line;
smooth = 0;
x = 1322;
y = 1460;
},
{
segmentType = line;
smooth = 0;
x = 1294;
y = 1407;
},
{
segmentType = line;
smooth = 0;
x = 1479;
y = 1434;
},
{
segmentType = line;
smooth = 0;
x = 1479;
y = 1522;
},
{
segmentType = line;
smooth = 0;
x = 1024;
y = 1522;
},
{
segmentType = line;
smooth = 0;
x = 1024;
y = 1434;
},
{
segmentType = line;
smooth = 0;
x = 1227;
y = 1406;
},
{
segmentType = line;
smooth = 0;
x = 1193;
y = 1460;
},
{
segmentType = line;
smooth = 0;
x = 1193;
y = 617;
},
{
smooth = 0;
x = 1193;
y = 269;
},
{
smooth = 0;
x = 1059;
y = 83;
},
{
segmentType = curve;
smooth = 1;
x = 797;
y = 83;
},
{
smooth = 0;
x = 557;
y = 83;
},
{
smooth = 0;
x = 385;
y = 208;
},
{
segmentType = curve;
smooth = 1;
x = 385;
y = 633;
},
{
segmentType = line;
smooth = 0;
x = 385;
y = 1460;
},
{
segmentType = line;
smooth = 0;
x = 356;
y = 1407;
},
{
segmentType = line;
smooth = 0;
x = 561;
y = 1434;
},
{
segmentType = line;
smooth = 0;
x = 561;
y = 1522;
},
{
segmentType = line;
smooth = 0;
x = 60;
y = 1522;
},
{
segmentType = line;
smooth = 0;
x = 60;
y = 1434;
},
{
segmentType = line;
smooth = 0;
x = 238;
y = 1407;
},
{
segmentType = line;
smooth = 0;
x = 212;
y = 1460;
},
{
segmentType = line;
smooth = 0;
x = 212;
y = 651;
},
{
smooth = 0;
x = 212;
y = 199;
},
{
smooth = 0;
x = 385;
y = -16;
}
);
}
);
lib = {
};
name = U;
unicodes = (
);
width = 1638;
};
};
};
},
{
glyphname = V;
lastChange = "2020-02-21 16:30:30 +0000";
layers = (
{
anchors = (
{
name = bottom;
position = "{266, -65}";
},
{
name = btm;
position = "{285, 0}";
},
{
name = top;
position = "{303, 568}";
}
);
background = {
anchors = (
{
name = bottom;
position = "{266, -65}";
},
{
name = btm;
position = "{285, 0}";
},
{
name = top;
position = "{303, 568}";
}
);
paths = (
{
closed = 1;
nodes = (
"253 -2 LINE",
"311 -2 LINE",
"547 505 LINE SMOOTH",
"552 516 OFFCURVE",
"562 521 OFFCURVE",
"572 524 CURVE SMOOTH",
"616 536 LINE",
"620 568 LINE",
"435 568 LINE",
"431 536 LINE",
"505 521 LINE",
"280 28 LINE",
"309 28 LINE",
"187 521 LINE",
"266 536 LINE",
"270 568 LINE",
"69 568 LINE",
"65 536 LINE",
"104 524 LINE SMOOTH",
"116 520 OFFCURVE",
"121 516 OFFCURVE",
"124 505 CURVE SMOOTH"
);
}
);
};
layerId = "DAAEA780-4710-4479-B303-5C05B40621B2";
paths = (
{
closed = 1;
nodes = (
"253 -2 LINE",
"311 -2 LINE",
"547 505 LINE SMOOTH",
"552 516 OFFCURVE",
"562 521 OFFCURVE",
"572 524 CURVE SMOOTH",
"616 536 LINE",
"620 568 LINE",
"435 568 LINE",
"431 536 LINE",
"505 521 LINE",
"280 28 LINE",
"309 28 LINE",
"187 521 LINE",
"266 536 LINE",
"270 568 LINE",
"69 568 LINE",
"65 536 LINE",
"104 524 LINE SMOOTH",
"116 520 OFFCURVE",
"121 516 OFFCURVE",
"124 505 CURVE SMOOTH"
);
}
);
width = 553;
},
{
anchors = (
{
name = bottom;
position = "{285, -65}";
},
{
name = btm;
position = "{343, 0}";
},
{
name = top;
position = "{289, 568}";
}
);
background = {
anchors = (
{
name = bottom;
position = "{285, -65}";
},
{
name = btm;
position = "{343, 0}";
},
{
name = top;
position = "{289, 568}";
}
);
paths = (
{
closed = 1;
nodes = (
"236 -2 LINE",
"359 -2 LINE",
"578 485 LINE SMOOTH",
"583 496 OFFCURVE",
"592 500 OFFCURVE",
"600 502 CURVE SMOOTH",
"651 513 LINE",
"658 568 LINE",
"446 568 LINE",
"439 513 LINE",
"507 500 LINE",
"318 58 LINE",
"354 58 LINE",
"259 500 LINE",
"331 513 LINE",
"338 568 LINE",
"64 568 LINE",
"57 513 LINE",
"102 502 LINE SMOOTH",
"110 500 OFFCURVE",
"116 496 OFFCURVE",
"119 485 CURVE SMOOTH"
);
}
);
};
layerId = "925CB40E-795E-477B-BAE7-1EE7D58841B5";
paths = (
{
closed = 1;
nodes = (
"236 -2 LINE",
"359 -2 LINE",
"578 485 LINE SMOOTH",
"583 496 OFFCURVE",
"592 500 OFFCURVE",
"600 502 CURVE SMOOTH",
"651 513 LINE",
"658 568 LINE",
"446 568 LINE",
"439 513 LINE",
"507 500 LINE",
"318 58 LINE",
"354 58 LINE",
"259 500 LINE",
"331 513 LINE",
"338 568 LINE",
"64 568 LINE",
"57 513 LINE",
"102 502 LINE SMOOTH",
"110 500 OFFCURVE",
"116 496 OFFCURVE",
"119 485 CURVE SMOOTH"
);
}
);
width = 585;
}
);
unicode = 0056;
userData = {
com.typemytype.robofont.layerData = {
background = {
anchors = (
{
name = btm;
x = 703;
y = -170;
},
{
name = top;
x = 672;
y = 1700;
}
);
components = (
);
contours = (
{
points = (
{
segmentType = line;
smooth = 0;
x = 633;
y = -16;
},
{
segmentType = line;
smooth = 0;
x = 768;
y = -16;
},
{
segmentType = line;
smooth = 0;
x = 1271;
y = 1455;
},
{
segmentType = line;
smooth = 0;
x = 1228;
y = 1407;
},
{
segmentType = line;
smooth = 0;
x = 1386;
y = 1434;
},
{
segmentType = line;
smooth = 0;
x = 1386;
y = 1522;
},
{
segmentType = line;
smooth = 0;
x = 955;
y = 1522;
},
{
segmentType = line;
smooth = 0;
x = 955;
y = 1434;
},
{
segmentType = line;
smooth = 0;
x = 1139;
y = 1409;
},
{
segmentType = line;
smooth = 0;
x = 1134;
y = 1457;
},
{
segmentType = line;
smooth = 0;
x = 805;
y = 428;
},
{
segmentType = line;
smooth = 0;
x = 727;
y = 145;
},
{
segmentType = line;
smooth = 0;
x = 641;
y = 423;
},
{
segmentType = line;
smooth = 0;
x = 263;
y = 1454;
},
{
segmentType = line;
smooth = 0;
x = 244;
y = 1408;
},
{
segmentType = line;
smooth = 0;
x = 467;
y = 1434;
},
{
segmentType = line;
smooth = 0;
x = 467;
y = 1522;
},
{
segmentType = line;
smooth = 0;
x = -30;
y = 1522;
},
{
segmentType = line;
smooth = 0;
x = -30;
y = 1434;
},
{
segmentType = line;
smooth = 0;
x = 135;
y = 1405;
},
{
segmentType = line;
smooth = 0;
x = 83;
y = 1450;
}
);
}
);
lib = {
};
name = V;
unicodes = (
);
width = 1482;
};
};
};
},
{
glyphname = W;
lastChange = "2020-02-21 16:30:30 +0000";
layers = (
{
anchors = (
{
name = btm;
position = "{406, 0}";
},
{
name = top;
position = "{471, 568}";
}
);
background = {
anchors = (
{
name = btm;
position = "{406, 0}";
},
{
name = top;
position = "{471, 568}";
}
);
paths = (
{
closed = 1;
nodes = (
"450 488 LINE",
"263 46 LINE",
"278 46 LINE",
"191 521 LINE",
"269 536 LINE",
"273 568 LINE",
"71 568 LINE",
"67 536 LINE",
"108 524 LINE SMOOTH",
"119 521 OFFCURVE",
"125 515 OFFCURVE",
"127 504 CURVE SMOOTH",
"227 -4 LINE",
"287 -4 LINE",
"467 425 LINE"
);
},
{
closed = 1;
nodes = (
"448 425 LINE",
"524 -4 LINE",
"585 -4 LINE",
"798 504 LINE SMOOTH",
"805 520 OFFCURVE",
"814 521 OFFCURVE",
"822 524 CURVE SMOOTH",
"867 536 LINE",
"871 568 LINE",
"687 568 LINE",
"683 536 LINE",
"757 521 LINE",
"561 44 LINE",
"577 44 LINE",
"493 521 LINE",
"570 536 LINE",
"574 568 LINE",
"378 568 LINE",
"374 536 LINE",
"411 524 LINE SMOOTH",
"423 520 OFFCURVE",
"427 515 OFFCURVE",
"430 504 CURVE SMOOTH"
);
}
);
};
layerId = "DAAEA780-4710-4479-B303-5C05B40621B2";
paths = (
{
closed = 1;
nodes = (
"450 488 LINE",
"263 46 LINE",
"278 46 LINE",
"191 521 LINE",
"269 536 LINE",
"273 568 LINE",
"71 568 LINE",
"67 536 LINE",
"108 524 LINE SMOOTH",
"119 521 OFFCURVE",
"125 515 OFFCURVE",
"127 504 CURVE SMOOTH",
"227 -4 LINE",
"287 -4 LINE",
"467 425 LINE"
);
},
{
closed = 1;
nodes = (
"448 425 LINE",
"524 -4 LINE",
"585 -4 LINE",
"798 504 LINE SMOOTH",
"805 520 OFFCURVE",
"814 521 OFFCURVE",
"822 524 CURVE SMOOTH",
"867 536 LINE",
"871 568 LINE",
"687 568 LINE",
"683 536 LINE",
"757 521 LINE",
"561 44 LINE",
"577 44 LINE",
"493 521 LINE",
"570 536 LINE",
"574 568 LINE",
"378 568 LINE",
"374 536 LINE",
"411 524 LINE SMOOTH",
"423 520 OFFCURVE",
"427 515 OFFCURVE",
"430 504 CURVE SMOOTH"
);
}
);
width = 805;
},
{
anchors = (
{
name = btm;
position = "{426, 0}";
},
{
name = top;
position = "{498, 568}";
}
);
background = {
anchors = (
{
name = btm;
position = "{426, 0}";
},
{
name = top;
position = "{498, 568}";
}
);
paths = (
{
closed = 1;
nodes = (
"453 459 LINE",
"302 83 LINE",
"318 83 LINE",
"261 500 LINE",
"326 513 LINE",
"333 568 LINE",
"67 568 LINE",
"60 513 LINE",
"107 502 LINE SMOOTH",
"115 500 OFFCURVE",
"120 494 OFFCURVE",
"122 484 CURVE SMOOTH",
"211 -2 LINE",
"334 -2 LINE",
"484 380 LINE"
);
},
{
closed = 1;
nodes = (
"456 383 LINE",
"518 -2 LINE",
"641 -2 LINE",
"838 484 LINE SMOOTH",
"842 494 OFFCURVE",
"849 499 OFFCURVE",
"859 502 CURVE SMOOTH",
"911 513 LINE",
"918 568 LINE",
"715 568 LINE",
"708 513 LINE",
"769 500 LINE",
"608 83 LINE",
"628 83 LINE",
"572 500 LINE",
"646 513 LINE",
"653 568 LINE",
"394 568 LINE",
"387 513 LINE",
"419 502 LINE SMOOTH",
"430 498 OFFCURVE",
"432 491 OFFCURVE",
"434 484 CURVE SMOOTH"
);
}
);
};
layerId = "925CB40E-795E-477B-BAE7-1EE7D58841B5";
paths = (
{
closed = 1;
nodes = (
"453 459 LINE",
"302 83 LINE",
"318 83 LINE",
"261 500 LINE",
"326 513 LINE",
"333 568 LINE",
"67 568 LINE",
"60 513 LINE",
"107 502 LINE SMOOTH",
"115 500 OFFCURVE",
"120 494 OFFCURVE",
"122 484 CURVE SMOOTH",
"211 -2 LINE",
"334 -2 LINE",
"484 380 LINE"
);
},
{
closed = 1;
nodes = (
"456 383 LINE",
"518 -2 LINE",
"641 -2 LINE",
"838 484 LINE SMOOTH",
"842 494 OFFCURVE",
"849 499 OFFCURVE",
"859 502 CURVE SMOOTH",
"911 513 LINE",
"918 568 LINE",
"715 568 LINE",
"708 513 LINE",
"769 500 LINE",
"608 83 LINE",
"628 83 LINE",
"572 500 LINE",
"646 513 LINE",
"653 568 LINE",
"394 568 LINE",
"387 513 LINE",
"419 502 LINE SMOOTH",
"430 498 OFFCURVE",
"432 491 OFFCURVE",
"434 484 CURVE SMOOTH"
);
}
);
width = 845;
}
);
leftKerningGroup = W;
rightKerningGroup = W;
unicode = 0057;
userData = {
com.typemytype.robofont.layerData = {
background = {
anchors = (
{
name = btm;
x = 1109;
y = -170;
},
{
name = top;
x = 1119;
y = 1700;
}
);
components = (
);
contours = (
{
points = (
{
segmentType = line;
smooth = 0;
x = 655;
y = -11;
},
{
segmentType = line;
smooth = 0;
x = 804;
y = -11;
},
{
segmentType = line;
smooth = 0;
x = 1149;
y = 1122;
},
{
segmentType = line;
smooth = 0;
x = 1118;
y = 1101;
},
{
segmentType = line;
smooth = 0;
x = 1461;
y = -11;
},
{
segmentType = line;
smooth = 0;
x = 1620;
y = -11;
},
{
segmentType = line;
smooth = 0;
x = 2052;
y = 1453;
},
{
segmentType = line;
smooth = 0;
x = 2026;
y = 1409;
},
{
segmentType = line;
smooth = 0;
x = 2177;
y = 1434;
},
{
segmentType = line;
smooth = 0;
x = 2177;
y = 1522;
},
{
segmentType = line;
smooth = 0;
x = 1692;
y = 1522;
},
{
segmentType = line;
smooth = 0;
x = 1692;
y = 1434;
},
{
segmentType = line;
smooth = 0;
x = 1927;
y = 1409;
},
{
segmentType = line;
smooth = 0;
x = 1922;
y = 1463;
},
{
segmentType = line;
smooth = 0;
x = 1633;
y = 439;
},
{
segmentType = line;
smooth = 0;
x = 1555;
y = 34;
},
{
segmentType = line;
smooth = 0;
x = 1579;
y = 34;
},
{
segmentType = line;
smooth = 0;
x = 1486;
y = 439;
},
{
segmentType = line;
smooth = 0;
x = 1179;
y = 1474;
},
{
segmentType = line;
smooth = 0;
x = 1169;
y = 1408;
},
{
segmentType = line;
smooth = 0;
x = 1400;
y = 1434;
},
{
segmentType = line;
smooth = 0;
x = 1400;
y = 1522;
},
{
segmentType = line;
smooth = 0;
x = 868;
y = 1522;
},
{
segmentType = line;
smooth = 0;
x = 868;
y = 1434;
},
{
segmentType = line;
smooth = 0;
x = 1042;
y = 1408;
},
{
segmentType = line;
smooth = 0;
x = 1003;
y = 1463;
},
{
segmentType = line;
smooth = 0;
x = 1089;
y = 1195;
},
{
segmentType = line;
smooth = 0;
x = 1089;
y = 1285;
},
{
segmentType = line;
smooth = 0;
x = 829;
y = 439;
},
{
segmentType = line;
smooth = 0;
x = 732;
y = 44;
},
{
segmentType = line;
smooth = 0;
x = 764;
y = 44;
},
{
segmentType = line;
smooth = 0;
x = 682;
y = 439;
},
{
segmentType = line;
smooth = 0;
x = 369;
y = 1462;
},
{
segmentType = line;
smooth = 0;
x = 359;
y = 1408;
},
{
segmentType = line;
smooth = 0;
x = 585;
y = 1434;
},
{
segmentType = line;
smooth = 0;
x = 585;
y = 1522;
},
{
segmentType = line;
smooth = 0;
x = 70;
y = 1522;
},
{
segmentType = line;
smooth = 0;
x = 70;
y = 1434;
},
{
segmentType = line;
smooth = 0;
x = 235;
y = 1407;
},
{
segmentType = line;
smooth = 0;
x = 195;
y = 1466;
}
);
}
);
lib = {
};
name = W;
unicodes = (
);
width = 2173;
};
};
};
},
{
glyphname = X;
lastChange = "2020-02-21 16:30:30 +0000";
layers = (
{
anchors = (
{
name = btm;
position = "{268, 0}";
},
{
name = top;
position = "{339, 568}";
}
);
background = {
anchors = (
{
name = btm;
position = "{268, 0}";
},
{
name = top;
position = "{339, 568}";
}
);
paths = (
{
closed = 1;
nodes = (
"529 0 LINE",
"533 32 LINE",
"491 43 LINE SMOOTH",
"482 45 OFFCURVE",
"474 49 OFFCURVE",
"469 59 CURVE SMOOTH",
"331 312 LINE",
"327 312 LINE",
"221 523 LINE",
"299 536 LINE",
"303 568 LINE",
"94 568 LINE",
"90 536 LINE",
"130 524 LINE SMOOTH",
"141 521 OFFCURVE",
"147 516 OFFCURVE",
"152 507 CURVE SMOOTH",
"280 268 LINE",
"285 267 LINE",
"400 44 LINE",
"326 32 LINE",
"322 0 LINE"
);
},
{
closed = 1;
nodes = (
"206 0 LINE",
"210 32 LINE",
"134 44 LINE",
"311 269 LINE",
"317 269 LINE",
"512 508 LINE SMOOTH",
"520 518 OFFCURVE",
"527 521 OFFCURVE",
"537 524 CURVE SMOOTH",
"583 536 LINE",
"587 568 LINE",
"409 568 LINE",
"405 536 LINE",
"470 523 LINE",
"302 306 LINE",
"293 306 LINE",
"90 59 LINE SMOOTH",
"81 48 OFFCURVE",
"74 45 OFFCURVE",
"65 43 CURVE SMOOTH",
"14 32 LINE",
"10 0 LINE"
);
}
);
};
guideLines = (
{
angle = 123.098;
position = "{-31, -21}";
},
{
angle = 55.848;
position = "{638, 405}";
}
);
layerId = "DAAEA780-4710-4479-B303-5C05B40621B2";
paths = (
{
closed = 1;
nodes = (
"529 0 LINE",
"533 32 LINE",
"491 43 LINE SMOOTH",
"482 45 OFFCURVE",
"474 49 OFFCURVE",
"469 59 CURVE SMOOTH",
"331 312 LINE",
"327 312 LINE",
"221 523 LINE",
"299 536 LINE",
"303 568 LINE",
"94 568 LINE",
"90 536 LINE",
"130 524 LINE SMOOTH",
"141 521 OFFCURVE",
"147 516 OFFCURVE",
"152 507 CURVE SMOOTH",
"280 268 LINE",
"285 267 LINE",
"400 44 LINE",
"326 32 LINE",
"322 0 LINE"
);
},
{
closed = 1;
nodes = (
"206 0 LINE",
"210 32 LINE",
"134 44 LINE",
"311 269 LINE",
"317 269 LINE",
"512 508 LINE SMOOTH",
"520 518 OFFCURVE",
"527 521 OFFCURVE",
"537 524 CURVE SMOOTH",
"583 536 LINE",
"587 568 LINE",
"409 568 LINE",
"405 536 LINE",
"470 523 LINE",
"302 306 LINE",
"293 306 LINE",
"90 59 LINE SMOOTH",
"81 48 OFFCURVE",
"74 45 OFFCURVE",
"65 43 CURVE SMOOTH",
"14 32 LINE",
"10 0 LINE"
);
}
);
width = 540;
},
{
anchors = (
{
name = btm;
position = "{278, 0}";
},
{
name = top;
position = "{349, 568}";
}
);
background = {
anchors = (
{
name = btm;
position = "{278, 0}";
},
{
name = top;
position = "{349, 568}";
}
);
paths = (
{
closed = 1;
nodes = (
"562 0 LINE",
"568 52 LINE",
"529 63 LINE SMOOTH",
"519 66 OFFCURVE",
"515 69 OFFCURVE",
"510 77 CURVE SMOOTH",
"377 329 LINE",
"371 329 LINE",
"288 500 LINE",
"346 513 LINE",
"353 568 LINE",
"86 568 LINE",
"79 513 LINE",
"118 502 LINE SMOOTH",
"128 499 OFFCURVE",
"133 495 OFFCURVE",
"137 487 CURVE SMOOTH",
"260 249 LINE",
"266 249 LINE",
"356 64 LINE",
"298 52 LINE",
"292 0 LINE"
);
},
{
closed = 1;
nodes = (
"219 0 LINE",
"225 52 LINE",
"159 64 LINE",
"312 261 LINE",
"346 261 LINE",
"536 488 LINE SMOOTH",
"544 497 OFFCURVE",
"551 500 OFFCURVE",
"559 502 CURVE SMOOTH",
"609 513 LINE",
"616 568 LINE",
"415 568 LINE",
"408 513 LINE",
"468 500 LINE",
"323 316 LINE",
"287 316 LINE",
"90 77 LINE SMOOTH",
"82 67 OFFCURVE",
"77 65 OFFCURVE",
"68 63 CURVE SMOOTH",
"12 52 LINE",
"6 0 LINE"
);
}
);
};
layerId = "925CB40E-795E-477B-BAE7-1EE7D58841B5";
paths = (
{
closed = 1;
nodes = (
"562 0 LINE",
"568 52 LINE",
"529 63 LINE SMOOTH",
"519 66 OFFCURVE",
"515 69 OFFCURVE",
"510 77 CURVE SMOOTH",
"377 329 LINE",
"371 329 LINE",
"288 500 LINE",
"346 513 LINE",
"353 568 LINE",
"86 568 LINE",
"79 513 LINE",
"118 502 LINE SMOOTH",
"128 499 OFFCURVE",
"133 495 OFFCURVE",
"137 487 CURVE SMOOTH",
"260 249 LINE",
"266 249 LINE",
"356 64 LINE",
"298 52 LINE",
"292 0 LINE"
);
},
{
closed = 1;
nodes = (
"219 0 LINE",
"225 52 LINE",
"159 64 LINE",
"312 261 LINE",
"346 261 LINE",
"536 488 LINE SMOOTH",
"544 497 OFFCURVE",
"551 500 OFFCURVE",
"559 502 CURVE SMOOTH",
"609 513 LINE",
"616 568 LINE",
"415 568 LINE",
"408 513 LINE",
"468 500 LINE",
"323 316 LINE",
"287 316 LINE",
"90 77 LINE SMOOTH",
"82 67 OFFCURVE",
"77 65 OFFCURVE",
"68 63 CURVE SMOOTH",
"12 52 LINE",
"6 0 LINE"
);
}
);
width = 565;
}
);
unicode = 0058;
userData = {
com.typemytype.robofont.guides = (
{
angle = 123.098;
isGlobal = 0;
x = -85;
y = -57;
},
{
angle = 55.848;
isGlobal = 0;
x = 1754;
y = 1115;
}
);
com.typemytype.robofont.layerData = {
background = {
anchors = (
{
name = btm;
x = 759;
y = -170;
},
{
name = top;
x = 759;
y = 1700;
}
);
components = (
);
contours = (
{
points = (
{
segmentType = line;
smooth = 0;
x = 50;
y = 0;
},
{
segmentType = line;
smooth = 0;
x = 588;
y = 0;
},
{
segmentType = line;
smooth = 0;
x = 588;
y = 90;
},
{
segmentType = line;
smooth = 0;
x = 341;
y = 113;
},
{
segmentType = line;
smooth = 0;
x = 346;
y = 54;
},
{
segmentType = line;
smooth = 0;
x = 753;
y = 749;
},
{
segmentType = line;
smooth = 0;
x = 721;
y = 744;
},
{
segmentType = line;
smooth = 0;
x = 1135;
y = 67;
},
{
segmentType = line;
smooth = 0;
x = 1149;
y = 114;
},
{
segmentType = line;
smooth = 0;
x = 908;
y = 90;
},
{
segmentType = line;
smooth = 0;
x = 908;
y = 0;
},
{
segmentType = line;
smooth = 0;
x = 1478;
y = 0;
},
{
segmentType = line;
smooth = 0;
x = 1478;
y = 90;
},
{
segmentType = line;
smooth = 0;
x = 1259;
y = 116;
},
{
segmentType = line;
smooth = 0;
x = 1343;
y = 69;
},
{
segmentType = line;
smooth = 0;
x = 829;
y = 844;
},
{
segmentType = line;
smooth = 0;
x = 834;
y = 786;
},
{
segmentType = line;
smooth = 0;
x = 1313;
y = 1498;
},
{
segmentType = line;
smooth = 0;
x = 1233;
y = 1441;
},
{
segmentType = line;
smooth = 0;
x = 1440;
y = 1472;
},
{
segmentType = line;
smooth = 0;
x = 1440;
y = 1562;
},
{
segmentType = line;
smooth = 0;
x = 951;
y = 1562;
},
{
segmentType = line;
smooth = 0;
x = 951;
y = 1472;
},
{
segmentType = line;
smooth = 0;
x = 1161;
y = 1445;
},
{
segmentType = line;
smooth = 0;
x = 1160;
y = 1491;
},
{
segmentType = line;
smooth = 0;
x = 771;
y = 841;
},
{
segmentType = line;
smooth = 0;
x = 823;
y = 835;
},
{
segmentType = line;
smooth = 0;
x = 419;
y = 1499;
},
{
segmentType = line;
smooth = 0;
x = 408;
y = 1443;
},
{
segmentType = line;
smooth = 0;
x = 660;
y = 1472;
},
{
segmentType = line;
smooth = 0;
x = 660;
y = 1562;
},
{
segmentType = line;
smooth = 0;
x = 86;
y = 1562;
},
{
segmentType = line;
smooth = 0;
x = 86;
y = 1472;
},
{
segmentType = line;
smooth = 0;
x = 289;
y = 1441;
},
{
segmentType = line;
smooth = 0;
x = 214;
y = 1493;
},
{
segmentType = line;
smooth = 0;
x = 699;
y = 758;
},
{
segmentType = line;
smooth = 0;
x = 689;
y = 810;
},
{
segmentType = line;
smooth = 0;
x = 200;
y = 69;
},
{
segmentType = line;
smooth = 0;
x = 269;
y = 114;
},
{
segmentType = line;
smooth = 0;
x = 50;
y = 90;
}
);
}
);
lib = {
};
name = X;
unicodes = (
);
width = 1445;
};
};
};
},
{
glyphname = Y;
lastChange = "2020-02-21 16:30:30 +0000";
layers = (
{
anchors = (
{
name = btm;
position = "{268, 0}";
},
{
name = top;
position = "{332, 568}";
}
);
background = {
anchors = (
{
name = btm;
position = "{268, 0}";
},
{
name = top;
position = "{332, 568}";
}
);
paths = (
{
closed = 1;
nodes = (
"313 196 LINE",
"515 508 LINE SMOOTH",
"522 519 OFFCURVE",
"531 523 OFFCURVE",
"542 526 CURVE SMOOTH",
"589 536 LINE",
"593 568 LINE",
"411 568 LINE",
"407 536 LINE",
"474 523 LINE",
"296 246 LINE",
"320 246 LINE",
"198 523 LINE",
"270 536 LINE",
"274 568 LINE",
"71 568 LINE",
"67 536 LINE",
"111 525 LINE SMOOTH",
"126 521 OFFCURVE",
"129 514 OFFCURVE",
"133 507 CURVE SMOOTH",
"273 196 LINE"
);
},
{
closed = 1;
nodes = (
"389 0 LINE",
"393 32 LINE",
"325 45 LINE SMOOTH",
"311 48 OFFCURVE",
"306 53 OFFCURVE",
"308 68 CURVE SMOOTH",
"327 223 LINE",
"265 223 LINE",
"246 68 LINE SMOOTH",
"244 51 OFFCURVE",
"232 47 OFFCURVE",
"222 45 CURVE SMOOTH",
"150 32 LINE",
"146 0 LINE"
);
}
);
};
layerId = "DAAEA780-4710-4479-B303-5C05B40621B2";
paths = (
{
closed = 1;
nodes = (
"313 196 LINE",
"515 508 LINE SMOOTH",
"522 519 OFFCURVE",
"531 523 OFFCURVE",
"542 526 CURVE SMOOTH",
"589 536 LINE",
"593 568 LINE",
"411 568 LINE",
"407 536 LINE",
"474 523 LINE",
"296 246 LINE",
"320 246 LINE",
"198 523 LINE",
"270 536 LINE",
"274 568 LINE",
"71 568 LINE",
"67 536 LINE",
"111 525 LINE SMOOTH",
"126 521 OFFCURVE",
"129 514 OFFCURVE",
"133 507 CURVE SMOOTH",
"273 196 LINE"
);
},
{
closed = 1;
nodes = (
"389 0 LINE",
"393 32 LINE",
"325 45 LINE SMOOTH",
"311 48 OFFCURVE",
"306 53 OFFCURVE",
"308 68 CURVE SMOOTH",
"327 223 LINE",
"265 223 LINE",
"246 68 LINE SMOOTH",
"244 51 OFFCURVE",
"232 47 OFFCURVE",
"222 45 CURVE SMOOTH",
"150 32 LINE",
"146 0 LINE"
);
}
);
width = 529;
},
{
anchors = (
{
name = btm;
position = "{278, 0}";
},
{
name = top;
position = "{358, 568}";
}
);
background = {
anchors = (
{
name = btm;
position = "{278, 0}";
},
{
name = top;
position = "{358, 568}";
}
);
paths = (
{
closed = 1;
nodes = (
"357 189 LINE",
"545 488 LINE SMOOTH",
"550 496 OFFCURVE",
"556 500 OFFCURVE",
"567 503 CURVE SMOOTH",
"610 513 LINE",
"617 568 LINE",
"414 568 LINE",
"407 513 LINE",
"469 499 LINE",
"327 264 LINE",
"365 264 LINE",
"273 499 LINE",
"332 513 LINE",
"339 568 LINE",
"62 568 LINE",
"55 513 LINE",
"99 502 LINE SMOOTH",
"107 500 OFFCURVE",
"113 495 OFFCURVE",
"117 487 CURVE SMOOTH",
"250 189 LINE"
);
},
{
closed = 1;
nodes = (
"436 0 LINE",
"443 52 LINE",
"375 66 LINE SMOOTH",
"361 69 OFFCURVE",
"359 77 OFFCURVE",
"360 85 CURVE SMOOTH",
"379 239 LINE",
"237 239 LINE",
"218 85 LINE SMOOTH",
"216 72 OFFCURVE",
"209 69 OFFCURVE",
"198 66 CURVE SMOOTH",
"128 52 LINE",
"121 0 LINE"
);
}
);
};
layerId = "925CB40E-795E-477B-BAE7-1EE7D58841B5";
paths = (
{
closed = 1;
nodes = (
"357 189 LINE",
"545 488 LINE SMOOTH",
"550 496 OFFCURVE",
"556 500 OFFCURVE",
"567 503 CURVE SMOOTH",
"610 513 LINE",
"617 568 LINE",
"414 568 LINE",
"407 513 LINE",
"469 499 LINE",
"327 264 LINE",
"365 264 LINE",
"273 499 LINE",
"332 513 LINE",
"339 568 LINE",
"62 568 LINE",
"55 513 LINE",
"99 502 LINE SMOOTH",
"107 500 OFFCURVE",
"113 495 OFFCURVE",
"117 487 CURVE SMOOTH",
"250 189 LINE"
);
},
{
closed = 1;
nodes = (
"436 0 LINE",
"443 52 LINE",
"375 66 LINE SMOOTH",
"361 69 OFFCURVE",
"359 77 OFFCURVE",
"360 85 CURVE SMOOTH",
"379 239 LINE",
"237 239 LINE",
"218 85 LINE SMOOTH",
"216 72 OFFCURVE",
"209 69 OFFCURVE",
"198 66 CURVE SMOOTH",
"128 52 LINE",
"121 0 LINE"
);
}
);
width = 549;
}
);
leftKerningGroup = Y;
rightKerningGroup = Y;
unicode = 0059;
userData = {
com.typemytype.robofont.layerData = {
background = {
anchors = (
{
name = btm;
x = 734;
y = -170;
},
{
name = top;
x = 787;
y = 1700;
}
);
components = (
);
contours = (
{
points = (
{
segmentType = line;
smooth = 0;
x = 463;
y = 0;
},
{
segmentType = line;
smooth = 0;
x = 1096;
y = 0;
},
{
segmentType = line;
smooth = 0;
x = 1096;
y = 88;
},
{
segmentType = line;
smooth = 0;
x = 826;
y = 111;
},
{
segmentType = line;
smooth = 0;
x = 863;
y = 75;
},
{
segmentType = line;
smooth = 0;
x = 863;
y = 639;
},
{
segmentType = line;
smooth = 0;
x = 831;
y = 528;
},
{
segmentType = line;
smooth = 0;
x = 1333;
y = 1463;
},
{
segmentType = line;
smooth = 0;
x = 1264;
y = 1404;
},
{
segmentType = line;
smooth = 0;
x = 1441;
y = 1434;
},
{
segmentType = line;
smooth = 0;
x = 1441;
y = 1522;
},
{
segmentType = line;
smooth = 0;
x = 996;
y = 1522;
},
{
segmentType = line;
smooth = 0;
x = 996;
y = 1434;
},
{
segmentType = line;
smooth = 0;
x = 1192;
y = 1408;
},
{
segmentType = line;
smooth = 0;
x = 1199;
y = 1473;
},
{
segmentType = line;
smooth = 0;
x = 870;
y = 831;
},
{
segmentType = line;
smooth = 0;
x = 786;
y = 655;
},
{
segmentType = line;
smooth = 0;
x = 797;
y = 655;
},
{
segmentType = line;
smooth = 0;
x = 718;
y = 831;
},
{
segmentType = line;
smooth = 0;
x = 377;
y = 1470;
},
{
segmentType = line;
smooth = 0;
x = 381;
y = 1408;
},
{
segmentType = line;
smooth = 0;
x = 581;
y = 1434;
},
{
segmentType = line;
smooth = 0;
x = 581;
y = 1522;
},
{
segmentType = line;
smooth = 0;
x = 90;
y = 1522;
},
{
segmentType = line;
smooth = 0;
x = 90;
y = 1434;
},
{
segmentType = line;
smooth = 0;
x = 266;
y = 1401;
},
{
segmentType = line;
smooth = 0;
x = 182;
y = 1474;
},
{
segmentType = line;
smooth = 0;
x = 725;
y = 526;
},
{
segmentType = line;
smooth = 0;
x = 691;
y = 639;
},
{
segmentType = line;
smooth = 0;
x = 691;
y = 74;
},
{
segmentType = line;
smooth = 0;
x = 729;
y = 111;
},
{
segmentType = line;
smooth = 0;
x = 463;
y = 88;
}
);
}
);
lib = {
};
name = Y;
unicodes = (
);
width = 1415;
};
};
};
},
{
color = 8;
glyphname = Z;
lastChange = "2020-03-11 19:36:22 +0000";
layers = (
{
anchors = (
{
name = btm;
position = "{184, 0}";
},
{
name = top;
position = "{283, 568}";
}
);
background = {
anchors = (
{
name = btm;
position = "{184, 0}";
},
{
name = top;
position = "{283, 568}";
}
);
paths = (
{
closed = 1;
nodes = (
"395 0 LINE",
"409 46 OFFCURVE",
"422 111 OFFCURVE",
"427 159 CURVE",
"394 162 LINE",
"355 69 LINE SMOOTH",
"350 58 OFFCURVE",
"344 52 OFFCURVE",
"332 48 CURVE SMOOTH",
"312 41 OFFCURVE",
"281 39 OFFCURVE",
"246 39 CURVE SMOOTH",
"52 39 LINE",
"65 24 LINE",
"472 540 LINE",
"460 568 LINE",
"105 568 LINE",
"92 519 OFFCURVE",
"81 463 OFFCURVE",
"78 414 CURVE",
"112 414 LINE",
"146 501 LINE SMOOTH",
"150 512 OFFCURVE",
"157 518 OFFCURVE",
"168 522 CURVE SMOOTH",
"188 529 OFFCURVE",
"219 530 OFFCURVE",
"254 530 CURVE SMOOTH",
"411 530 LINE",
"401 544 LINE",
"-6 29 LINE",
"7 0 LINE"
);
}
);
};
layerId = "DAAEA780-4710-4479-B303-5C05B40621B2";
paths = (
{
closed = 1;
nodes = (
"388 0 LINE",
"399 47 OFFCURVE",
"411 109 OFFCURVE",
"414 168 CURVE",
"381 172 LINE",
"345 69 LINE SMOOTH",
"342 59 OFFCURVE",
"335 53 OFFCURVE",
"323 48 CURVE SMOOTH",
"300 39 OFFCURVE",
"261 39 OFFCURVE",
"238 39 CURVE SMOOTH",
"66 39 LINE",
"79 24 LINE",
"466 540 LINE",
"453 568 LINE",
"110 568 LINE",
"100 519 OFFCURVE",
"93 462 OFFCURVE",
"91 414 CURVE",
"128 414 LINE",
"156 499 LINE SMOOTH",
"159 507 OFFCURVE",
"164 516 OFFCURVE",
"177 521 CURVE SMOOTH",
"196 528 OFFCURVE",
"235 530 OFFCURVE",
"262 530 CURVE SMOOTH",
"404 530 LINE",
"394 544 LINE",
"8 29 LINE",
"21 0 LINE"
);
}
);
width = 456;
},
{
anchors = (
{
name = btm;
position = "{232, 0}";
},
{
name = top;
position = "{332, 568}";
}
);
background = {
anchors = (
{
name = btm;
position = "{232, 0}";
},
{
name = top;
position = "{332, 568}";
}
);
paths = (
{
closed = 1;
nodes = (
"436 0 LINE",
"453 55 OFFCURVE",
"469 137 OFFCURVE",
"473 188 CURVE",
"400 198 LINE",
"350 92 LINE SMOOTH",
"345 79 OFFCURVE",
"337 72 OFFCURVE",
"326 68 CURVE SMOOTH",
"313 63 OFFCURVE",
"289 60 OFFCURVE",
"259 60 CURVE SMOOTH",
"126 60 LINE",
"149 40 LINE",
"517 523 LINE",
"504 569 LINE",
"107 569 LINE",
"89 511 OFFCURVE",
"76 443 OFFCURVE",
"72 381 CURVE",
"148 381 LINE",
"193 483 LINE SMOOTH",
"200 495 OFFCURVE",
"207 502 OFFCURVE",
"218 506 CURVE SMOOTH",
"232 511 OFFCURVE",
"255 514 OFFCURVE",
"285 514 CURVE SMOOTH",
"380 514 LINE",
"365 528 LINE",
"-7 45 LINE",
"13 0 LINE"
);
}
);
};
layerId = "925CB40E-795E-477B-BAE7-1EE7D58841B5";
paths = (
{
closed = 1;
nodes = (
"432 0 LINE",
"450 55 OFFCURVE",
"459 135 OFFCURVE",
"462 194 CURVE",
"394 203 LINE",
"350 95 LINE SMOOTH",
"342 75 OFFCURVE",
"334 68 OFFCURVE",
"322 65 CURVE SMOOTH",
"303 60 OFFCURVE",
"287 59 OFFCURVE",
"257 59 CURVE SMOOTH",
"136 59 LINE",
"158 40 LINE",
"502 522 LINE",
"488 568 LINE",
"101 568 LINE",
"89 508 OFFCURVE",
"79 440 OFFCURVE",
"75 376 CURVE",
"147 376 LINE",
"189 482 LINE SMOOTH",
"195 497 OFFCURVE",
"201 502 OFFCURVE",
"212 506 CURVE SMOOTH",
"229 512 OFFCURVE",
"247 512 OFFCURVE",
"280 512 CURVE SMOOTH",
"365 512 LINE",
"351 527 LINE",
"4 45 LINE",
"24 0 LINE"
);
}
);
width = 495;
}
);
leftKerningGroup = Z;
rightKerningGroup = Z;
unicode = 005A;
userData = {
com.typemytype.robofont.layerData = {
background = {
anchors = (
{
name = btm;
x = 683;
y = -170;
},
{
name = top;
x = 706;
y = 1700;
}
);
components = (
);
contours = (
{
points = (
{
segmentType = line;
smooth = 0;
x = 135;
y = 0;
},
{
segmentType = line;
smooth = 0;
x = 1201;
y = 0;
},
{
segmentType = line;
smooth = 0;
x = 1249;
y = 433;
},
{
segmentType = line;
smooth = 0;
x = 1151;
y = 454;
},
{
segmentType = line;
smooth = 0;
x = 1049;
y = 132;
},
{
segmentType = line;
smooth = 0;
x = 291;
y = 96;
},
{
segmentType = line;
smooth = 0;
x = 424;
y = 256;
},
{
segmentType = line;
smooth = 0;
x = 1226;
y = 1452;
},
{
segmentType = line;
smooth = 0;
x = 1182;
y = 1528;
},
{
segmentType = line;
smooth = 0;
x = 217;
y = 1528;
},
{
segmentType = line;
smooth = 0;
x = 174;
y = 1157;
},
{
segmentType = line;
smooth = 0;
x = 268;
y = 1146;
},
{
segmentType = line;
smooth = 0;
x = 369;
y = 1413;
},
{
segmentType = line;
smooth = 0;
x = 1019;
y = 1434;
},
{
segmentType = line;
smooth = 0;
x = 903;
y = 1286;
},
{
segmentType = line;
smooth = 0;
x = 87;
y = 80;
}
);
}
);
lib = {
};
name = Z;
unicodes = (
);
width = 1307;
};
};
};
},
{
color = 6;
glyphname = a;
lastChange = "2020-03-09 15:41:01 +0000";
layers = (
{
anchors = (
{
name = btm;
position = "{174, 0}";
},
{
name = top;
position = "{243, 413}";
}
);
background = {
paths = (
{
closed = 1;
nodes = (
"222 -11 OFFCURVE",
"278 46 OFFCURVE",
"304 166 CURVE",
"293 173 LINE",
"268 95 OFFCURVE",
"214 40 OFFCURVE",
"168 40 CURVE SMOOTH",
"125 40 OFFCURVE",
"98 91 OFFCURVE",
"98 170 CURVE SMOOTH",
"98 274 OFFCURVE",
"145 386 OFFCURVE",
"231 386 CURVE SMOOTH",
"271 386 OFFCURVE",
"307 377 OFFCURVE",
"340 360 CURVE",
"351 397 LINE",
"320 412 OFFCURVE",
"285 422 OFFCURVE",
"245 422 CURVE SMOOTH",
"123 422 OFFCURVE",
"32 311 OFFCURVE",
"32 157 CURVE SMOOTH",
"32 37 OFFCURVE",
"87 -11 OFFCURVE",
"146 -11 CURVE SMOOTH"
);
},
{
closed = 1;
nodes = (
"358 -6 OFFCURVE",
"401 17 OFFCURVE",
"434 54 CURVE",
"421 80 LINE",
"385 59 OFFCURVE",
"365 48 OFFCURVE",
"352 48 CURVE SMOOTH",
"344 48 OFFCURVE",
"340 52 OFFCURVE",
"340 63 CURVE SMOOTH",
"340 80 OFFCURVE",
"343 106 OFFCURVE",
"345 126 CURVE SMOOTH",
"381 416 LINE",
"371 426 LINE",
"320 397 LINE",
"286 122 LINE SMOOTH",
"281 79 OFFCURVE",
"278 58 OFFCURVE",
"278 34 CURVE SMOOTH",
"278 6 OFFCURVE",
"291 -6 OFFCURVE",
"320 -6 CURVE SMOOTH"
);
}
);
};
layerId = "DAAEA780-4710-4479-B303-5C05B40621B2";
paths = (
{
closed = 1;
nodes = (
"222 -10 OFFCURVE",
"278 46 OFFCURVE",
"304 164 CURVE",
"293 171 LINE",
"268 94 OFFCURVE",
"214 39 OFFCURVE",
"168 39 CURVE SMOOTH",
"125 39 OFFCURVE",
"98 90 OFFCURVE",
"98 168 CURVE SMOOTH",
"98 272 OFFCURVE",
"145 384 OFFCURVE",
"231 384 CURVE SMOOTH",
"271 384 OFFCURVE",
"307 375 OFFCURVE",
"340 358 CURVE",
"351 395 LINE",
"320 410 OFFCURVE",
"285 420 OFFCURVE",
"245 420 CURVE SMOOTH",
"123 420 OFFCURVE",
"32 309 OFFCURVE",
"32 155 CURVE SMOOTH",
"32 37 OFFCURVE",
"87 -10 OFFCURVE",
"146 -10 CURVE SMOOTH"
);
},
{
closed = 1;
nodes = (
"350 -7 OFFCURVE",
"401 16 OFFCURVE",
"434 53 CURVE",
"421 79 LINE",
"385 58 OFFCURVE",
"365 47 OFFCURVE",
"352 47 CURVE SMOOTH",
"344 47 OFFCURVE",
"340 51 OFFCURVE",
"340 62 CURVE SMOOTH",
"340 79 OFFCURVE",
"343 105 OFFCURVE",
"345 125 CURVE",
"380 416 LINE",
"369 425 LINE",
"320 397 LINE",
"286 121 LINE SMOOTH",
"281 78 OFFCURVE",
"278 52 OFFCURVE",
"278 33 CURVE SMOOTH",
"278 5 OFFCURVE",
"293 -7 OFFCURVE",
"320 -7 CURVE SMOOTH"
);
}
);
width = 455;
},
{
anchors = (
{
name = btm;
position = "{206, 0}";
},
{
name = top;
position = "{273, 414}";
}
);
background = {
anchors = (
{
name = btm;
position = "{206, 0}";
},
{
name = top;
position = "{273, 414}";
}
);
paths = (
{
closed = 1;
nodes = (
"226 -13 OFFCURVE",
"271 45 OFFCURVE",
"296 145 CURVE",
"280 172 LINE",
"236 90 OFFCURVE",
"214 75 OFFCURVE",
"198 75 CURVE SMOOTH",
"172 75 OFFCURVE",
"155 114 OFFCURVE",
"155 172 CURVE SMOOTH",
"155 275 OFFCURVE",
"187 369 OFFCURVE",
"247 369 CURVE SMOOTH",
"270 369 OFFCURVE",
"301 353 OFFCURVE",
"314 313 CURVE",
"415 378 LINE",
"362 411 OFFCURVE",
"296 428 OFFCURVE",
"247 428 CURVE SMOOTH",
"101 428 OFFCURVE",
"23 301 OFFCURVE",
"23 157 CURVE SMOOTH",
"23 46 OFFCURVE",
"76 -13 OFFCURVE",
"149 -13 CURVE SMOOTH"
);
},
{
closed = 1;
nodes = (
"415 -7 OFFCURVE",
"466 33 OFFCURVE",
"484 55 CURVE",
"459 95 LINE",
"444 83 OFFCURVE",
"428 77 OFFCURVE",
"418 77 CURVE SMOOTH",
"407 77 OFFCURVE",
"401 85 OFFCURVE",
"401 100 CURVE SMOOTH",
"401 110 OFFCURVE",
"404 139 OFFCURVE",
"406 152 CURVE SMOOTH",
"444 414 LINE",
"434 426 LINE",
"389 416 OFFCURVE",
"338 395 OFFCURVE",
"307 371 CURVE",
"273 140 LINE",
"273 56 OFFCURVE",
"299 -7 OFFCURVE",
"364 -7 CURVE SMOOTH"
);
}
);
};
layerId = "925CB40E-795E-477B-BAE7-1EE7D58841B5";
paths = (
{
closed = 1;
nodes = (
"227 -10 OFFCURVE",
"274 54 OFFCURVE",
"296 165 CURVE",
"280 172 LINE",
"260 123 OFFCURVE",
"223 78 OFFCURVE",
"197 78 CURVE SMOOTH",
"172 78 OFFCURVE",
"155 116 OFFCURVE",
"155 172 CURVE SMOOTH",
"155 272 OFFCURVE",
"185 362 OFFCURVE",
"250 362 CURVE SMOOTH",
"280 362 OFFCURVE",
"317 355 OFFCURVE",
"353 341 CURVE",
"369 399 LINE",
"343 410 OFFCURVE",
"295 421 OFFCURVE",
"251 421 CURVE SMOOTH",
"121 421 OFFCURVE",
"21 298 OFFCURVE",
"21 157 CURVE SMOOTH",
"21 48 OFFCURVE",
"77 -10 OFFCURVE",
"152 -10 CURVE SMOOTH"
);
},
{
closed = 1;
nodes = (
"388 -7 OFFCURVE",
"442 17 OFFCURVE",
"498 62 CURVE",
"473 112 LINE",
"438 92 OFFCURVE",
"420 83 OFFCURVE",
"409 83 CURVE SMOOTH",
"403 83 OFFCURVE",
"399 87 OFFCURVE",
"399 101 CURVE SMOOTH",
"399 112 OFFCURVE",
"402 129 OFFCURVE",
"404 148 CURVE SMOOTH",
"437 406 LINE",
"413 426 LINE",
"306 371 LINE",
"274 144 LINE",
"274 106 OFFCURVE",
"274 76 OFFCURVE",
"275 61 CURVE SMOOTH",
"278 16 OFFCURVE",
"292 -7 OFFCURVE",
"341 -7 CURVE SMOOTH"
);
}
);
width = 513;
},
{
anchors = (
{
name = btm;
position = "{177, 0}";
},
{
name = top;
position = "{246, 413}";
}
);
associatedMasterId = "DAAEA780-4710-4479-B303-5C05B40621B2";
background = {
paths = (
{
closed = 1;
nodes = (
"213 -8 OFFCURVE",
"280 64 OFFCURVE",
"319 185 CURVE",
"301 199 LINE",
"265 113 OFFCURVE",
"208 41 OFFCURVE",
"160 41 CURVE SMOOTH",
"126 41 OFFCURVE",
"103 78 OFFCURVE",
"103 154 CURVE SMOOTH",
"103 264 OFFCURVE",
"152 389 OFFCURVE",
"234 389 CURVE SMOOTH",
"270 389 OFFCURVE",
"305 369 OFFCURVE",
"325 316 CURVE",
"360 373 LINE",
"319 408 OFFCURVE",
"278 424 OFFCURVE",
"234 424 CURVE SMOOTH",
"122 424 OFFCURVE",
"36 293 OFFCURVE",
"36 149 CURVE SMOOTH",
"36 37 OFFCURVE",
"86 -8 OFFCURVE",
"140 -8 CURVE SMOOTH"
);
},
{
closed = 1;
nodes = (
"365 -5 OFFCURVE",
"400 17 OFFCURVE",
"423 43 CURVE",
"408 68 LINE",
"388 54 OFFCURVE",
"372 44 OFFCURVE",
"360 44 CURVE SMOOTH",
"347 44 OFFCURVE",
"342 55 OFFCURVE",
"342 78 CURVE SMOOTH",
"342 98 OFFCURVE",
"347 130 OFFCURVE",
"350 154 CURVE SMOOTH",
"386 413 LINE",
"376 419 LINE",
"355 413 OFFCURVE",
"340 405 OFFCURVE",
"322 393 CURVE",
"286 134 LINE",
"288 125 LINE",
"285 105 OFFCURVE",
"282 87 OFFCURVE",
"282 69 CURVE SMOOTH",
"282 21 OFFCURVE",
"300 -5 OFFCURVE",
"334 -5 CURVE SMOOTH"
);
}
);
};
layerId = "45617D9F-138D-42F9-8761-5346CFD0B3A2";
name = "Feb 8 20, 20:33";
paths = (
{
closed = 1;
nodes = (
"213 -8 OFFCURVE",
"280 64 OFFCURVE",
"319 185 CURVE",
"301 199 LINE",
"265 113 OFFCURVE",
"208 41 OFFCURVE",
"160 41 CURVE SMOOTH",
"126 41 OFFCURVE",
"103 78 OFFCURVE",
"103 154 CURVE SMOOTH",
"103 264 OFFCURVE",
"152 389 OFFCURVE",
"234 389 CURVE SMOOTH",
"270 389 OFFCURVE",
"305 369 OFFCURVE",
"325 316 CURVE",
"360 373 LINE",
"319 408 OFFCURVE",
"278 424 OFFCURVE",
"234 424 CURVE SMOOTH",
"122 424 OFFCURVE",
"36 293 OFFCURVE",
"36 149 CURVE SMOOTH",
"36 37 OFFCURVE",
"86 -8 OFFCURVE",
"140 -8 CURVE SMOOTH"
);
},
{
closed = 1;
nodes = (
"365 -5 OFFCURVE",
"400 17 OFFCURVE",
"423 43 CURVE",
"408 68 LINE",
"388 54 OFFCURVE",
"372 44 OFFCURVE",
"360 44 CURVE SMOOTH",
"347 44 OFFCURVE",
"342 55 OFFCURVE",
"342 78 CURVE SMOOTH",
"342 98 OFFCURVE",
"347 130 OFFCURVE",
"350 154 CURVE SMOOTH",
"386 413 LINE",
"376 419 LINE",
"355 413 OFFCURVE",
"340 405 OFFCURVE",
"322 393 CURVE",
"286 134 LINE",
"288 125 LINE",
"285 105 OFFCURVE",
"282 87 OFFCURVE",
"282 69 CURVE SMOOTH",
"282 21 OFFCURVE",
"300 -5 OFFCURVE",
"334 -5 CURVE SMOOTH"
);
}
);
width = 450;
},
{
anchors = (
{
name = btm;
position = "{177, 0}";
},
{
name = top;
position = "{246, 413}";
}
);
associatedMasterId = "DAAEA780-4710-4479-B303-5C05B40621B2";
background = {
paths = (
{
closed = 1;
nodes = (
"213 -8 OFFCURVE",
"280 64 OFFCURVE",
"319 185 CURVE",
"301 199 LINE",
"265 113 OFFCURVE",
"208 41 OFFCURVE",
"160 41 CURVE SMOOTH",
"126 41 OFFCURVE",
"103 78 OFFCURVE",
"103 154 CURVE SMOOTH",
"103 264 OFFCURVE",
"152 389 OFFCURVE",
"234 389 CURVE SMOOTH",
"270 389 OFFCURVE",
"305 369 OFFCURVE",
"325 316 CURVE",
"360 373 LINE",
"319 408 OFFCURVE",
"278 424 OFFCURVE",
"234 424 CURVE SMOOTH",
"122 424 OFFCURVE",
"36 293 OFFCURVE",
"36 149 CURVE SMOOTH",
"36 37 OFFCURVE",
"86 -8 OFFCURVE",
"140 -8 CURVE SMOOTH"
);
},
{
closed = 1;
nodes = (
"365 -5 OFFCURVE",
"400 17 OFFCURVE",
"423 43 CURVE",
"408 68 LINE",
"388 54 OFFCURVE",
"372 44 OFFCURVE",
"360 44 CURVE SMOOTH",
"347 44 OFFCURVE",
"342 55 OFFCURVE",
"342 78 CURVE SMOOTH",
"342 98 OFFCURVE",
"347 130 OFFCURVE",
"350 154 CURVE SMOOTH",
"386 413 LINE",
"376 419 LINE",
"355 413 OFFCURVE",
"340 405 OFFCURVE",
"322 393 CURVE",
"286 134 LINE",
"288 125 LINE",
"285 105 OFFCURVE",
"282 87 OFFCURVE",
"282 69 CURVE SMOOTH",
"282 21 OFFCURVE",
"300 -5 OFFCURVE",
"334 -5 CURVE SMOOTH"
);
}
);
};
layerId = "FBF76585-1C8D-42A4-ACAF-BF50E5981716";
name = "Feb 8 20, 20:48";
paths = (
{
closed = 1;
nodes = (
"365 -5 OFFCURVE",
"400 17 OFFCURVE",
"423 43 CURVE",
"408 68 LINE",
"388 54 OFFCURVE",
"372 44 OFFCURVE",
"360 44 CURVE SMOOTH",
"348 44 OFFCURVE",
"342 53 OFFCURVE",
"342 78 CURVE SMOOTH",
"342 98 OFFCURVE",
"346 125 OFFCURVE",
"350 154 CURVE SMOOTH",
"386 413 LINE",
"376 419 LINE",
"355 413 OFFCURVE",
"340 405 OFFCURVE",
"322 393 CURVE",
"286 134 LINE",
"288 125 LINE",
"285 105 OFFCURVE",
"282 87 OFFCURVE",
"282 69 CURVE SMOOTH",
"282 25 OFFCURVE",
"300 -5 OFFCURVE",
"334 -5 CURVE SMOOTH"
);
},
{
closed = 1;
nodes = (
"208 -8 OFFCURVE",
"294 51 OFFCURVE",
"296 149 CURVE",
"291 153 LINE",
"246 60 OFFCURVE",
"197 42 OFFCURVE",
"164 42 CURVE SMOOTH",
"124 42 OFFCURVE",
"91 80 OFFCURVE",
"91 169 CURVE SMOOTH",
"91 284 OFFCURVE",
"149 389 OFFCURVE",
"230 389 CURVE SMOOTH",
"270 389 OFFCURVE",
"314 363 OFFCURVE",
"328 320 CURVE",
"360 379 LINE",
"323 410 OFFCURVE",
"277 424 OFFCURVE",
"235 424 CURVE SMOOTH",
"115 424 OFFCURVE",
"25 308 OFFCURVE",
"25 158 CURVE SMOOTH",
"25 38 OFFCURVE",
"83 -8 OFFCURVE",
"144 -8 CURVE SMOOTH"
);
}
);
width = 450;
},
{
anchors = (
{
name = btm;
position = "{177, 0}";
},
{
name = top;
position = "{246, 413}";
}
);
associatedMasterId = "DAAEA780-4710-4479-B303-5C05B40621B2";
background = {
paths = (
{
closed = 1;
nodes = (
"213 -8 OFFCURVE",
"280 64 OFFCURVE",
"319 185 CURVE",
"301 199 LINE",
"265 113 OFFCURVE",
"208 41 OFFCURVE",
"160 41 CURVE SMOOTH",
"126 41 OFFCURVE",
"103 78 OFFCURVE",
"103 154 CURVE SMOOTH",
"103 264 OFFCURVE",
"152 389 OFFCURVE",
"234 389 CURVE SMOOTH",
"270 389 OFFCURVE",
"305 369 OFFCURVE",
"325 316 CURVE",
"360 373 LINE",
"319 408 OFFCURVE",
"278 424 OFFCURVE",
"234 424 CURVE SMOOTH",
"122 424 OFFCURVE",
"36 293 OFFCURVE",
"36 149 CURVE SMOOTH",
"36 37 OFFCURVE",
"86 -8 OFFCURVE",
"140 -8 CURVE SMOOTH"
);
},
{
closed = 1;
nodes = (
"365 -5 OFFCURVE",
"400 17 OFFCURVE",
"423 43 CURVE",
"408 68 LINE",
"388 54 OFFCURVE",
"372 44 OFFCURVE",
"360 44 CURVE SMOOTH",
"347 44 OFFCURVE",
"342 55 OFFCURVE",
"342 78 CURVE SMOOTH",
"342 98 OFFCURVE",
"347 130 OFFCURVE",
"350 154 CURVE SMOOTH",
"386 413 LINE",
"376 419 LINE",
"355 413 OFFCURVE",
"340 405 OFFCURVE",
"322 393 CURVE",
"286 134 LINE",
"288 125 LINE",
"285 105 OFFCURVE",
"282 87 OFFCURVE",
"282 69 CURVE SMOOTH",
"282 21 OFFCURVE",
"300 -5 OFFCURVE",
"334 -5 CURVE SMOOTH"
);
}
);
};
layerId = "0E747D25-E58D-40F5-A720-F3DB52F4E0D2";
name = "Feb 8 20, 20:57";
paths = (
{
closed = 1;
nodes = (
"25 52 OFFCURVE",
"75 -8 OFFCURVE",
"147 -8 CURVE SMOOTH",
"217 -8 OFFCURVE",
"276 46 OFFCURVE",
"307 134 CURVE",
"299 151 LINE",
"256 77 OFFCURVE",
"212 39 OFFCURVE",
"169 39 CURVE SMOOTH",
"124 39 OFFCURVE",
"92 80 OFFCURVE",
"92 170 CURVE SMOOTH",
"92 286 OFFCURVE",
"147 387 OFFCURVE",
"231 387 CURVE SMOOTH",
"271 387 OFFCURVE",
"312 364 OFFCURVE",
"328 329 CURVE",
"352 389 LINE",
"332 403 OFFCURVE",
"294 425 OFFCURVE",
"240 425 CURVE SMOOTH",
"116 425 OFFCURVE",
"25 312 OFFCURVE",
"25 159 CURVE SMOOTH"
);
},
{
closed = 1;
nodes = (
"282 89 LINE",
"280 54 OFFCURVE",
"282 -5 OFFCURVE",
"334 -5 CURVE SMOOTH",
"365 -5 OFFCURVE",
"400 17 OFFCURVE",
"423 43 CURVE",
"408 68 LINE",
"388 54 OFFCURVE",
"372 44 OFFCURVE",
"360 44 CURVE SMOOTH",
"348 44 OFFCURVE",
"342 53 OFFCURVE",
"342 77 CURVE SMOOTH",
"342 100 OFFCURVE",
"347 132 OFFCURVE",
"350 154 CURVE SMOOTH",
"386 413 LINE",
"376 419 LINE",
"355 413 OFFCURVE",
"340 405 OFFCURVE",
"322 393 CURVE",
"283 104 LINE"
);
}
);
width = 450;
},
{
anchors = (
{
name = btm;
position = "{212, 0}";
},
{
name = top;
position = "{279, 414}";
}
);
associatedMasterId = "925CB40E-795E-477B-BAE7-1EE7D58841B5";
background = {
paths = (
{
closed = 1;
nodes = (
"151 -8 CURVE SMOOTH",
"215 -8 OFFCURVE",
"271 20 OFFCURVE",
"303 71 CURVE",
"297 99 LINE",
"276 77 OFFCURVE",
"247 64 OFFCURVE",
"216 64 CURVE SMOOTH",
"189 64 OFFCURVE",
"178 76 OFFCURVE",
"178 98 CURVE SMOOTH",
"178 142 OFFCURVE",
"203 166 OFFCURVE",
"247 169 CURVE SMOOTH",
"309 173 LINE",
"315 221 LINE",
"219 216 LINE SMOOTH",
"111 210 OFFCURVE",
"42 155 OFFCURVE",
"42 80 CURVE SMOOTH",
"42 26 OFFCURVE",
"83 -8 OFFCURVE"
);
},
{
closed = 1;
nodes = (
"110 296 LINE",
"146 325 OFFCURVE",
"185 339 OFFCURVE",
"229 339 CURVE SMOOTH",
"280 339 OFFCURVE",
"306 320 OFFCURVE",
"299 261 CURVE SMOOTH",
"275 69 LINE",
"279 12 OFFCURVE",
"310 -7 OFFCURVE",
"361 -7 CURVE SMOOTH",
"390 -7 OFFCURVE",
"428 2 OFFCURVE",
"449 7 CURVE",
"455 56 LINE",
"420 61 LINE SMOOTH",
"407 63 OFFCURVE",
"402 68 OFFCURVE",
"404 83 CURVE SMOOTH",
"426 263 LINE SMOOTH",
"439 369 OFFCURVE",
"397 424 OFFCURVE",
"279 424 CURVE SMOOTH",
"181 424 OFFCURVE",
"115 385 OFFCURVE",
"83 322 CURVE"
);
}
);
};
guideLines = (
{
angle = 81.1871;
position = "{286, 137}";
}
);
layerId = "CAFA71EE-9B46-40CB-A966-250434BB344D";
name = "Feb 8 20, 22:03";
paths = (
{
closed = 1;
nodes = (
"234 -13 OFFCURVE",
"313 97 OFFCURVE",
"313 225 CURVE",
"291 237 LINE",
"280 163 OFFCURVE",
"227 76 OFFCURVE",
"188 76 CURVE SMOOTH",
"167 76 OFFCURVE",
"154 100 OFFCURVE",
"154 158 CURVE SMOOTH",
"154 261 OFFCURVE",
"196 375 OFFCURVE",
"251 375 CURVE SMOOTH",
"276 375 OFFCURVE",
"306 351 OFFCURVE",
"320 284 CURVE",
"402 370 LINE",
"353 407 OFFCURVE",
"293 424 OFFCURVE",
"242 424 CURVE SMOOTH",
"96 424 OFFCURVE",
"20 284 OFFCURVE",
"20 153 CURVE SMOOTH",
"20 46 OFFCURVE",
"71 -13 OFFCURVE",
"140 -13 CURVE SMOOTH"
);
},
{
closed = 1;
nodes = (
"405 -7 OFFCURVE",
"461 35 OFFCURVE",
"479 60 CURVE",
"454 101 LINE",
"438 87 OFFCURVE",
"421 77 OFFCURVE",
"410 77 CURVE SMOOTH",
"399 77 OFFCURVE",
"394 88 OFFCURVE",
"394 106 CURVE SMOOTH",
"394 120 OFFCURVE",
"397 142 OFFCURVE",
"400 161 CURVE SMOOTH",
"439 413 LINE",
"429 425 LINE",
"389 416 OFFCURVE",
"337 392 OFFCURVE",
"308 367 CURVE",
"273 142 LINE",
"284 130 LINE",
"281 115 OFFCURVE",
"280 101 OFFCURVE",
"280 88 CURVE SMOOTH",
"280 35 OFFCURVE",
"303 -7 OFFCURVE",
"355 -7 CURVE SMOOTH"
);
}
);
width = 500;
},
{
anchors = (
{
name = btm;
position = "{173, 0}";
},
{
name = top;
position = "{242, 413}";
}
);
associatedMasterId = "DAAEA780-4710-4479-B303-5C05B40621B2";
background = {
paths = (
{
closed = 1;
nodes = (
"35 45 OFFCURVE",
"87 -9 OFFCURVE",
"149 -9 CURVE SMOOTH",
"210 -9 OFFCURVE",
"290 53 OFFCURVE",
"311 198 CURVE",
"308 211 LINE",
"264 82 OFFCURVE",
"202 42 OFFCURVE",
"170 42 CURVE SMOOTH",
"137 42 OFFCURVE",
"102 73 OFFCURVE",
"102 168 CURVE SMOOTH",
"102 285 OFFCURVE",
"155 387 OFFCURVE",
"233 387 CURVE SMOOTH",
"273 387 OFFCURVE",
"314 364 OFFCURVE",
"330 329 CURVE",
"354 389 LINE",
"334 403 OFFCURVE",
"296 425 OFFCURVE",
"242 425 CURVE SMOOTH",
"124 425 OFFCURVE",
"35 305 OFFCURVE",
"35 158 CURVE SMOOTH"
);
},
{
closed = 1;
nodes = (
"284 104 LINE",
"279 46 OFFCURVE",
"286 -4 OFFCURVE",
"336 -4 CURVE SMOOTH",
"367 -4 OFFCURVE",
"402 18 OFFCURVE",
"425 44 CURVE",
"410 69 LINE",
"390 55 OFFCURVE",
"374 45 OFFCURVE",
"362 45 CURVE SMOOTH",
"349 45 OFFCURVE",
"344 56 OFFCURVE",
"344 79 CURVE SMOOTH",
"344 103 OFFCURVE",
"349 132 OFFCURVE",
"352 154 CURVE SMOOTH",
"388 413 LINE",
"378 419 LINE",
"357 413 OFFCURVE",
"342 405 OFFCURVE",
"324 393 CURVE",
"288 128 LINE"
);
}
);
};
layerId = "82C06596-F9C7-4AA5-BC64-FABE36343286";
name = "Feb 15 20, 01:01";
paths = (
{
closed = 1;
nodes = (
"212 -11 OFFCURVE",
"268 43 OFFCURVE",
"298 153 CURVE",
"290 172 LINE",
"242 71 OFFCURVE",
"198 36 OFFCURVE",
"165 36 CURVE SMOOTH",
"124 36 OFFCURVE",
"97 82 OFFCURVE",
"97 169 CURVE SMOOTH",
"97 279 OFFCURVE",
"146 389 OFFCURVE",
"232 389 CURVE SMOOTH",
"267 389 OFFCURVE",
"302 372 OFFCURVE",
"327 331 CURVE",
"348 391 LINE",
"329 404 OFFCURVE",
"290 425 OFFCURVE",
"240 425 CURVE SMOOTH",
"118 425 OFFCURVE",
"31 304 OFFCURVE",
"31 158 CURVE SMOOTH",
"31 44 OFFCURVE",
"83 -11 OFFCURVE",
"145 -11 CURVE SMOOTH"
);
},
{
closed = 1;
nodes = (
"359 -7 OFFCURVE",
"394 13 OFFCURVE",
"418 41 CURVE",
"404 65 LINE",
"386 53 OFFCURVE",
"368 41 OFFCURVE",
"356 41 CURVE SMOOTH",
"343 41 OFFCURVE",
"338 52 OFFCURVE",
"338 76 CURVE SMOOTH",
"338 100 OFFCURVE",
"343 129 OFFCURVE",
"346 151 CURVE SMOOTH",
"382 413 LINE",
"372 419 LINE",
"349 412 OFFCURVE",
"337 405 OFFCURVE",
"319 393 CURVE",
"280 107 LINE",
"275 50 OFFCURVE",
"281 -7 OFFCURVE",
"330 -7 CURVE SMOOTH"
);
}
);
width = 439;
}
);
leftKerningGroup = a;
leftMetricsKey = "=o";
rightKerningGroup = a;
rightMetricsKey = "=u";
unicode = 0061;
userData = {
com.typemytype.robofont.layerData = {
background = {
anchors = (
{
name = btm;
x = 493;
y = -170;
},
{
name = top;
x = 517;
y = 1700;
}
);
components = (
);
contours = (
{
points = (
{
segmentType = curve;
smooth = 1;
x = 70;
y = 299;
},
{
smooth = 0;
x = 70;
y = 76;
},
{
smooth = 0;
x = 230;
y = -23;
},
{
segmentType = curve;
smooth = 1;
x = 412;
y = -23;
},
{
smooth = 0;
x = 585;
y = -23;
},
{
smooth = 0;
x = 720;
y = 99;
},
{
segmentType = curve;
smooth = 0;
x = 770;
y = 143;
},
{
segmentType = line;
smooth = 0;
x = 797;
y = 200;
},
{
segmentType = line;
smooth = 0;
x = 757;
y = 223;
},
{
smooth = 0;
x = 675;
y = 159;
},
{
smooth = 0;
x = 555;
y = 99;
},
{
segmentType = curve;
smooth = 1;
x = 473;
y = 99;
},
{
smooth = 0;
x = 349;
y = 99;
},
{
smooth = 0;
x = 252;
y = 156;
},
{
segmentType = curve;
smooth = 1;
x = 252;
y = 319;
},
{
smooth = 0;
x = 252;
y = 475;
},
{
smooth = 0;
x = 416;
y = 584;
},
{
segmentType = curve;
smooth = 0;
x = 757;
y = 586;
},
{
segmentType = line;
smooth = 0;
x = 796;
y = 637;
},
{
segmentType = line;
smooth = 0;
x = 757;
y = 682;
},
{
smooth = 0;
x = 419;
y = 676;
},
{
smooth = 0;
x = 70;
y = 585;
}
);
},
{
points = (
{
segmentType = line;
smooth = 0;
x = 757;
y = 186;
},
{
segmentType = line;
smooth = 0;
x = 770;
y = 186;
},
{
segmentType = line;
smooth = 0;
x = 770;
y = 68;
},
{
smooth = 0;
x = 770;
y = -13;
},
{
smooth = 0;
x = 797;
y = -19;
},
{
segmentType = curve;
smooth = 1;
x = 856;
y = -19;
},
{
smooth = 0;
x = 918;
y = -19;
},
{
smooth = 0;
x = 1003;
y = 1;
},
{
segmentType = curve;
smooth = 0;
x = 1048;
y = 13;
},
{
segmentType = line;
smooth = 0;
x = 1048;
y = 89;
},
{
segmentType = line;
smooth = 0;
x = 920;
y = 89;
},
{
segmentType = line;
smooth = 0;
x = 920;
y = 764;
},
{
smooth = 0;
x = 920;
y = 1051;
},
{
smooth = 0;
x = 825;
y = 1160;
},
{
segmentType = curve;
smooth = 1;
x = 547;
y = 1160;
},
{
smooth = 0;
x = 359;
y = 1160;
},
{
smooth = 0;
x = 143;
y = 1043;
},
{
segmentType = curve;
smooth = 0;
x = 105;
y = 1007;
},
{
segmentType = line;
smooth = 0;
x = 150;
y = 917;
},
{
segmentType = line;
smooth = 0;
x = 151;
y = 917;
},
{
smooth = 0;
x = 216;
y = 955;
},
{
smooth = 0;
x = 352;
y = 1027;
},
{
segmentType = curve;
smooth = 1;
x = 511;
y = 1027;
},
{
smooth = 0;
x = 704;
y = 1027;
},
{
smooth = 0;
x = 757;
y = 949;
},
{
segmentType = curve;
smooth = 1;
x = 757;
y = 746;
}
);
}
);
lib = {
};
name = a;
unicodes = (
);
width = 1150;
};
};
};
},
{
color = 6;
glyphname = b;
lastChange = "2020-03-09 15:41:01 +0000";
layers = (
{
anchors = (
{
name = btm;
position = "{235, 0}";
},
{
name = top;
position = "{336, 413}";
}
);
background = {
paths = (
{
closed = 1;
nodes = (
"65 -10 LINE",
"117 20 LINE",
"185 550 LINE SMOOTH",
"189 582 OFFCURVE",
"191 607 OFFCURVE",
"191 616 CURVE SMOOTH",
"191 638 OFFCURVE",
"184 652 OFFCURVE",
"156 652 CURVE SMOOTH",
"127 652 OFFCURVE",
"86 640 OFFCURVE",
"68 631 CURVE",
"64 603 LINE",
"105 603 LINE SMOOTH",
"118 603 OFFCURVE",
"128 599 OFFCURVE",
"128 582 CURVE SMOOTH",
"128 571 OFFCURVE",
"124 539 OFFCURVE",
"122 523 CURVE SMOOTH",
"55 0 LINE"
);
},
{
closed = 1;
nodes = (
"217 427 OFFCURVE",
"161 370 OFFCURVE",
"135 250 CURVE",
"146 243 LINE",
"171 321 OFFCURVE",
"225 376 OFFCURVE",
"271 376 CURVE SMOOTH",
"314 376 OFFCURVE",
"341 325 OFFCURVE",
"341 246 CURVE SMOOTH",
"341 142 OFFCURVE",
"294 30 OFFCURVE",
"208 30 CURVE SMOOTH",
"168 30 OFFCURVE",
"132 39 OFFCURVE",
"99 56 CURVE",
"88 19 LINE",
"119 4 OFFCURVE",
"154 -6 OFFCURVE",
"194 -6 CURVE SMOOTH",
"316 -6 OFFCURVE",
"407 105 OFFCURVE",
"407 259 CURVE SMOOTH",
"407 379 OFFCURVE",
"352 427 OFFCURVE",
"293 427 CURVE SMOOTH"
);
}
);
};
layerId = "DAAEA780-4710-4479-B303-5C05B40621B2";
paths = (
{
closed = 1;
nodes = (
"312 -7 OFFCURVE",
"403 104 OFFCURVE",
"403 258 CURVE SMOOTH",
"403 374 OFFCURVE",
"348 420 OFFCURVE",
"289 420 CURVE SMOOTH",
"213 420 OFFCURVE",
"157 365 OFFCURVE",
"131 249 CURVE",
"142 242 LINE",
"167 318 OFFCURVE",
"221 371 OFFCURVE",
"267 371 CURVE SMOOTH",
"310 371 OFFCURVE",
"337 322 OFFCURVE",
"337 245 CURVE SMOOTH",
"337 141 OFFCURVE",
"290 29 OFFCURVE",
"204 29 CURVE SMOOTH",
"164 29 OFFCURVE",
"128 38 OFFCURVE",
"95 55 CURVE",
"84 18 LINE",
"115 3 OFFCURVE",
"150 -7 OFFCURVE",
"190 -7 CURVE SMOOTH"
);
},
{
closed = 1;
nodes = (
"115 16 LINE",
"185 595 LINE SMOOTH",
"189 632 OFFCURVE",
"182 653 OFFCURVE",
"149 653 CURVE SMOOTH",
"129 653 OFFCURVE",
"97 645 OFFCURVE",
"65 631 CURVE",
"61 603 LINE",
"103 603 LINE SMOOTH",
"115 603 OFFCURVE",
"125 596 OFFCURVE",
"125 582 CURVE SMOOTH",
"125 573 OFFCURVE",
"121 539 OFFCURVE",
"119 523 CURVE SMOOTH",
"55 -3 LINE",
"66 -12 LINE"
);
}
);
width = 435;
},
{
anchors = (
{
name = btm;
position = "{197, 0}";
},
{
name = top;
position = "{355, 414}";
}
);
background = {
anchors = (
{
name = btm;
position = "{197, 0}";
},
{
name = top;
position = "{355, 414}";
}
);
paths = (
{
closed = 1;
nodes = (
"48 20 LINE",
"76 7 OFFCURVE",
"146 -8 OFFCURVE",
"210 -8 CURVE SMOOTH",
"373 -8 OFFCURVE",
"475 99 OFFCURVE",
"475 272 CURVE SMOOTH",
"475 377 OFFCURVE",
"419 425 OFFCURVE",
"342 425 CURVE SMOOTH",
"285 425 OFFCURVE",
"232 398 OFFCURVE",
"197 351 CURVE",
"205 327 LINE",
"226 341 OFFCURVE",
"251 348 OFFCURVE",
"273 348 CURVE SMOOTH",
"327 348 OFFCURVE",
"344 306 OFFCURVE",
"330 204 CURVE SMOOTH",
"314 87 OFFCURVE",
"278 43 OFFCURVE",
"225 43 CURVE SMOOTH",
"208 43 OFFCURVE",
"193 47 OFFCURVE",
"183 53 CURVE",
"256 639 LINE",
"240 655 LINE",
"189 654 OFFCURVE",
"113 645 OFFCURVE",
"60 632 CURVE",
"54 580 LINE",
"100 572 LINE SMOOTH",
"112 570 OFFCURVE",
"115 561 OFFCURVE",
"114 552 CURVE SMOOTH"
);
}
);
};
layerId = "925CB40E-795E-477B-BAE7-1EE7D58841B5";
paths = (
{
closed = 1;
nodes = (
"366 -7 OFFCURVE",
"466 116 OFFCURVE",
"466 257 CURVE SMOOTH",
"466 366 OFFCURVE",
"410 424 OFFCURVE",
"335 424 CURVE SMOOTH",
"260 424 OFFCURVE",
"213 360 OFFCURVE",
"191 249 CURVE",
"207 242 LINE",
"227 291 OFFCURVE",
"264 336 OFFCURVE",
"290 336 CURVE SMOOTH",
"315 336 OFFCURVE",
"332 298 OFFCURVE",
"332 242 CURVE SMOOTH",
"332 142 OFFCURVE",
"302 52 OFFCURVE",
"237 52 CURVE SMOOTH",
"207 52 OFFCURVE",
"170 59 OFFCURVE",
"134 73 CURVE",
"118 15 LINE",
"144 4 OFFCURVE",
"192 -7 OFFCURVE",
"236 -7 CURVE SMOOTH"
);
},
{
closed = 1;
nodes = (
"181 43 LINE",
"249 586 LINE SMOOTH",
"254 626 OFFCURVE",
"238 653 OFFCURVE",
"177 653 CURVE SMOOTH",
"145 653 OFFCURVE",
"109 645 OFFCURVE",
"60 627 CURVE",
"54 577 LINE",
"84 577 LINE SMOOTH",
"103 577 OFFCURVE",
"116 569 OFFCURVE",
"116 548 CURVE SMOOTH",
"116 537 OFFCURVE",
"113 509 OFFCURVE",
"111 494 CURVE SMOOTH",
"50 8 LINE",
"74 -12 LINE"
);
}
);
width = 487;
}
);
leftKerningGroup = b;
leftMetricsKey = "=h";
rightKerningGroup = b;
rightMetricsKey = "=o";
unicode = 0062;
userData = {
com.typemytype.robofont.layerData = {
background = {
anchors = (
{
name = btm;
x = 639;
y = -170;
},
{
name = top;
x = 777;
y = 1700;
}
);
components = (
);
contours = (
{
points = (
{
segmentType = line;
smooth = 0;
x = 206;
y = 56;
},
{
smooth = 0;
x = 232;
y = 28;
},
{
smooth = 0;
x = 400;
y = -23;
},
{
segmentType = curve;
smooth = 1;
x = 586;
y = -23;
},
{
smooth = 0;
x = 946;
y = -23;
},
{
smooth = 0;
x = 1170;
y = 261;
},
{
segmentType = curve;
smooth = 1;
x = 1170;
y = 610;
},
{
smooth = 0;
x = 1170;
y = 1003;
},
{
smooth = 0;
x = 951;
y = 1168;
},
{
segmentType = curve;
smooth = 1;
x = 722;
y = 1168;
},
{
smooth = 0;
x = 523;
y = 1168;
},
{
smooth = 0;
x = 386;
y = 1052;
},
{
segmentType = curve;
smooth = 0;
x = 324;
y = 976;
},
{
segmentType = line;
smooth = 0;
x = 369;
y = 909;
},
{
smooth = 0;
x = 415;
y = 961;
},
{
smooth = 0;
x = 524;
y = 1042;
},
{
segmentType = curve;
smooth = 1;
x = 654;
y = 1042;
},
{
smooth = 0;
x = 837;
y = 1042;
},
{
smooth = 0;
x = 994;
y = 907;
},
{
segmentType = curve;
smooth = 1;
x = 990;
y = 581;
},
{
smooth = 0;
x = 985;
y = 241;
},
{
smooth = 0;
x = 822;
y = 81;
},
{
segmentType = curve;
smooth = 1;
x = 601;
y = 81;
},
{
smooth = 0;
x = 499;
y = 81;
},
{
smooth = 0;
x = 393;
y = 106;
},
{
segmentType = curve;
smooth = 0;
x = 371;
y = 154;
},
{
segmentType = line;
smooth = 0;
x = 371;
y = 1648;
},
{
segmentType = line;
smooth = 0;
x = 333;
y = 1677;
},
{
segmentType = line;
smooth = 0;
x = 329;
y = 1677;
},
{
segmentType = line;
smooth = 0;
x = 30;
y = 1642;
},
{
segmentType = line;
smooth = 0;
x = 30;
y = 1567;
},
{
segmentType = line;
smooth = 0;
x = 206;
y = 1549;
}
);
}
);
lib = {
};
name = b;
unicodes = (
);
width = 1246;
};
};
};
},
